<?xml version="1.0" encoding="utf-8" standalone="no"?>
<!DOCTYPE svg PUBLIC "-//W3C//DTD SVG 1.1//EN"
  "http://www.w3.org/Graphics/SVG/1.1/DTD/svg11.dtd">
<!-- Created with matplotlib (https://matplotlib.org/) -->
<svg height="344.16pt" version="1.1" viewBox="0 0 460.8 344.16" width="460.8pt" xmlns="http://www.w3.org/2000/svg" xmlns:xlink="http://www.w3.org/1999/xlink">
 <defs>
  <style type="text/css">
*{stroke-linecap:butt;stroke-linejoin:round;}
  </style>
 </defs>
 <g id="figure_1">
  <g id="patch_1">
   <path d="M 0 344.16 
L 460.8 344.16 
L 460.8 0 
L 0 0 
z
" style="fill:#ffffff;"/>
  </g>
  <g id="axes_1">
   <g id="patch_2">
    <path d="M 63.55625 293.472083 
L 441.72 293.472083 
L 441.72 30.677667 
L 63.55625 30.677667 
z
" style="fill:#eeeeee;"/>
   </g>
   <g id="matplotlib.axis_1">
    <g id="xtick_1">
     <g id="line2d_1">
      <path clip-path="url(#pf1c14b4a2c)" d="M 63.55625 293.472083 
L 63.55625 30.677667 
" style="fill:none;stroke:#b2b2b2;stroke-dasharray:1.85,0.8;stroke-dashoffset:0;stroke-width:0.5;"/>
     </g>
     <g id="line2d_2">
      <defs>
       <path d="M 0 0 
L 0 -5 
" id="m0b773dac5b" style="stroke:#000000;stroke-width:0.8;"/>
      </defs>
      <g>
       <use style="stroke:#000000;stroke-width:0.8;" x="63.55625" xlink:href="#m0b773dac5b" y="293.472083"/>
      </g>
     </g>
     <g id="text_1">
      <!-- 0.0 -->
      <defs>
       <path d="M 4.15625 35.296875 
Q 4.15625 48 6.765625 55.734375 
Q 9.375 63.484375 14.515625 67.671875 
Q 19.671875 71.875 27.484375 71.875 
Q 33.25 71.875 37.59375 69.546875 
Q 41.9375 67.234375 44.765625 62.859375 
Q 47.609375 58.5 49.21875 52.21875 
Q 50.828125 45.953125 50.828125 35.296875 
Q 50.828125 22.703125 48.234375 14.96875 
Q 45.65625 7.234375 40.5 3 
Q 35.359375 -1.21875 27.484375 -1.21875 
Q 17.140625 -1.21875 11.234375 6.203125 
Q 4.15625 15.140625 4.15625 35.296875 
z
M 13.1875 35.296875 
Q 13.1875 17.671875 17.3125 11.828125 
Q 21.4375 6 27.484375 6 
Q 33.546875 6 37.671875 11.859375 
Q 41.796875 17.71875 41.796875 35.296875 
Q 41.796875 52.984375 37.671875 58.78125 
Q 33.546875 64.59375 27.390625 64.59375 
Q 21.34375 64.59375 17.71875 59.46875 
Q 13.1875 52.9375 13.1875 35.296875 
z
" id="ArialMT-48"/>
       <path d="M 9.078125 0 
L 9.078125 10.015625 
L 19.09375 10.015625 
L 19.09375 0 
z
" id="ArialMT-46"/>
      </defs>
      <g transform="translate(55.21625 305.561458)scale(0.12 -0.12)">
       <use xlink:href="#ArialMT-48"/>
       <use x="55.615234" xlink:href="#ArialMT-46"/>
       <use x="83.398438" xlink:href="#ArialMT-48"/>
      </g>
     </g>
    </g>
    <g id="xtick_2">
     <g id="line2d_3">
      <path clip-path="url(#pf1c14b4a2c)" d="M 117.579643 293.472083 
L 117.579643 30.677667 
" style="fill:none;stroke:#b2b2b2;stroke-dasharray:1.85,0.8;stroke-dashoffset:0;stroke-width:0.5;"/>
     </g>
     <g id="line2d_4">
      <g>
       <use style="stroke:#000000;stroke-width:0.8;" x="117.579643" xlink:href="#m0b773dac5b" y="293.472083"/>
      </g>
     </g>
     <g id="text_2">
      <!-- 0.5 -->
      <defs>
       <path d="M 4.15625 18.75 
L 13.375 19.53125 
Q 14.40625 12.796875 18.140625 9.390625 
Q 21.875 6 27.15625 6 
Q 33.5 6 37.890625 10.78125 
Q 42.28125 15.578125 42.28125 23.484375 
Q 42.28125 31 38.0625 35.34375 
Q 33.84375 39.703125 27 39.703125 
Q 22.75 39.703125 19.328125 37.765625 
Q 15.921875 35.84375 13.96875 32.765625 
L 5.71875 33.84375 
L 12.640625 70.609375 
L 48.25 70.609375 
L 48.25 62.203125 
L 19.671875 62.203125 
L 15.828125 42.96875 
Q 22.265625 47.46875 29.34375 47.46875 
Q 38.71875 47.46875 45.15625 40.96875 
Q 51.609375 34.46875 51.609375 24.265625 
Q 51.609375 14.546875 45.953125 7.46875 
Q 39.0625 -1.21875 27.15625 -1.21875 
Q 17.390625 -1.21875 11.203125 4.25 
Q 5.03125 9.71875 4.15625 18.75 
z
" id="ArialMT-53"/>
      </defs>
      <g transform="translate(109.239643 305.561458)scale(0.12 -0.12)">
       <use xlink:href="#ArialMT-48"/>
       <use x="55.615234" xlink:href="#ArialMT-46"/>
       <use x="83.398438" xlink:href="#ArialMT-53"/>
      </g>
     </g>
    </g>
    <g id="xtick_3">
     <g id="line2d_5">
      <path clip-path="url(#pf1c14b4a2c)" d="M 171.603036 293.472083 
L 171.603036 30.677667 
" style="fill:none;stroke:#b2b2b2;stroke-dasharray:1.85,0.8;stroke-dashoffset:0;stroke-width:0.5;"/>
     </g>
     <g id="line2d_6">
      <g>
       <use style="stroke:#000000;stroke-width:0.8;" x="171.603036" xlink:href="#m0b773dac5b" y="293.472083"/>
      </g>
     </g>
     <g id="text_3">
      <!-- 1.0 -->
      <defs>
       <path d="M 37.25 0 
L 28.46875 0 
L 28.46875 56 
Q 25.296875 52.984375 20.140625 49.953125 
Q 14.984375 46.921875 10.890625 45.40625 
L 10.890625 53.90625 
Q 18.265625 57.375 23.78125 62.296875 
Q 29.296875 67.234375 31.59375 71.875 
L 37.25 71.875 
z
" id="ArialMT-49"/>
      </defs>
      <g transform="translate(163.263036 305.561458)scale(0.12 -0.12)">
       <use xlink:href="#ArialMT-49"/>
       <use x="55.615234" xlink:href="#ArialMT-46"/>
       <use x="83.398438" xlink:href="#ArialMT-48"/>
      </g>
     </g>
    </g>
    <g id="xtick_4">
     <g id="line2d_7">
      <path clip-path="url(#pf1c14b4a2c)" d="M 225.626429 293.472083 
L 225.626429 30.677667 
" style="fill:none;stroke:#b2b2b2;stroke-dasharray:1.85,0.8;stroke-dashoffset:0;stroke-width:0.5;"/>
     </g>
     <g id="line2d_8">
      <g>
       <use style="stroke:#000000;stroke-width:0.8;" x="225.626429" xlink:href="#m0b773dac5b" y="293.472083"/>
      </g>
     </g>
     <g id="text_4">
      <!-- 1.5 -->
      <g transform="translate(217.286429 305.561458)scale(0.12 -0.12)">
       <use xlink:href="#ArialMT-49"/>
       <use x="55.615234" xlink:href="#ArialMT-46"/>
       <use x="83.398438" xlink:href="#ArialMT-53"/>
      </g>
     </g>
    </g>
    <g id="xtick_5">
     <g id="line2d_9">
      <path clip-path="url(#pf1c14b4a2c)" d="M 279.649821 293.472083 
L 279.649821 30.677667 
" style="fill:none;stroke:#b2b2b2;stroke-dasharray:1.85,0.8;stroke-dashoffset:0;stroke-width:0.5;"/>
     </g>
     <g id="line2d_10">
      <g>
       <use style="stroke:#000000;stroke-width:0.8;" x="279.649821" xlink:href="#m0b773dac5b" y="293.472083"/>
      </g>
     </g>
     <g id="text_5">
      <!-- 2.0 -->
      <defs>
       <path d="M 50.34375 8.453125 
L 50.34375 0 
L 3.03125 0 
Q 2.9375 3.171875 4.046875 6.109375 
Q 5.859375 10.9375 9.828125 15.625 
Q 13.8125 20.3125 21.34375 26.46875 
Q 33.015625 36.03125 37.109375 41.625 
Q 41.21875 47.21875 41.21875 52.203125 
Q 41.21875 57.421875 37.46875 61 
Q 33.734375 64.59375 27.734375 64.59375 
Q 21.390625 64.59375 17.578125 60.78125 
Q 13.765625 56.984375 13.71875 50.25 
L 4.6875 51.171875 
Q 5.609375 61.28125 11.65625 66.578125 
Q 17.71875 71.875 27.9375 71.875 
Q 38.234375 71.875 44.234375 66.15625 
Q 50.25 60.453125 50.25 52 
Q 50.25 47.703125 48.484375 43.546875 
Q 46.734375 39.40625 42.65625 34.8125 
Q 38.578125 30.21875 29.109375 22.21875 
Q 21.1875 15.578125 18.9375 13.203125 
Q 16.703125 10.84375 15.234375 8.453125 
z
" id="ArialMT-50"/>
      </defs>
      <g transform="translate(271.309821 305.561458)scale(0.12 -0.12)">
       <use xlink:href="#ArialMT-50"/>
       <use x="55.615234" xlink:href="#ArialMT-46"/>
       <use x="83.398438" xlink:href="#ArialMT-48"/>
      </g>
     </g>
    </g>
    <g id="xtick_6">
     <g id="line2d_11">
      <path clip-path="url(#pf1c14b4a2c)" d="M 333.673214 293.472083 
L 333.673214 30.677667 
" style="fill:none;stroke:#b2b2b2;stroke-dasharray:1.85,0.8;stroke-dashoffset:0;stroke-width:0.5;"/>
     </g>
     <g id="line2d_12">
      <g>
       <use style="stroke:#000000;stroke-width:0.8;" x="333.673214" xlink:href="#m0b773dac5b" y="293.472083"/>
      </g>
     </g>
     <g id="text_6">
      <!-- 2.5 -->
      <g transform="translate(325.333214 305.561458)scale(0.12 -0.12)">
       <use xlink:href="#ArialMT-50"/>
       <use x="55.615234" xlink:href="#ArialMT-46"/>
       <use x="83.398438" xlink:href="#ArialMT-53"/>
      </g>
     </g>
    </g>
    <g id="xtick_7">
     <g id="line2d_13">
      <path clip-path="url(#pf1c14b4a2c)" d="M 387.696607 293.472083 
L 387.696607 30.677667 
" style="fill:none;stroke:#b2b2b2;stroke-dasharray:1.85,0.8;stroke-dashoffset:0;stroke-width:0.5;"/>
     </g>
     <g id="line2d_14">
      <g>
       <use style="stroke:#000000;stroke-width:0.8;" x="387.696607" xlink:href="#m0b773dac5b" y="293.472083"/>
      </g>
     </g>
     <g id="text_7">
      <!-- 3.0 -->
      <defs>
       <path d="M 4.203125 18.890625 
L 12.984375 20.0625 
Q 14.5 12.59375 18.140625 9.296875 
Q 21.78125 6 27 6 
Q 33.203125 6 37.46875 10.296875 
Q 41.75 14.59375 41.75 20.953125 
Q 41.75 27 37.796875 30.921875 
Q 33.84375 34.859375 27.734375 34.859375 
Q 25.25 34.859375 21.53125 33.890625 
L 22.515625 41.609375 
Q 23.390625 41.5 23.921875 41.5 
Q 29.546875 41.5 34.03125 44.421875 
Q 38.53125 47.359375 38.53125 53.46875 
Q 38.53125 58.296875 35.25 61.46875 
Q 31.984375 64.65625 26.8125 64.65625 
Q 21.6875 64.65625 18.265625 61.421875 
Q 14.84375 58.203125 13.875 51.765625 
L 5.078125 53.328125 
Q 6.6875 62.15625 12.390625 67.015625 
Q 18.109375 71.875 26.609375 71.875 
Q 32.46875 71.875 37.390625 69.359375 
Q 42.328125 66.84375 44.9375 62.5 
Q 47.5625 58.15625 47.5625 53.265625 
Q 47.5625 48.640625 45.0625 44.828125 
Q 42.578125 41.015625 37.703125 38.765625 
Q 44.046875 37.3125 47.5625 32.6875 
Q 51.078125 28.078125 51.078125 21.140625 
Q 51.078125 11.765625 44.234375 5.25 
Q 37.40625 -1.265625 26.953125 -1.265625 
Q 17.53125 -1.265625 11.296875 4.34375 
Q 5.078125 9.96875 4.203125 18.890625 
z
" id="ArialMT-51"/>
      </defs>
      <g transform="translate(379.356607 305.561458)scale(0.12 -0.12)">
       <use xlink:href="#ArialMT-51"/>
       <use x="55.615234" xlink:href="#ArialMT-46"/>
       <use x="83.398438" xlink:href="#ArialMT-48"/>
      </g>
     </g>
    </g>
    <g id="xtick_8">
     <g id="line2d_15">
      <path clip-path="url(#pf1c14b4a2c)" d="M 441.72 293.472083 
L 441.72 30.677667 
" style="fill:none;stroke:#b2b2b2;stroke-dasharray:1.85,0.8;stroke-dashoffset:0;stroke-width:0.5;"/>
     </g>
     <g id="line2d_16">
      <g>
       <use style="stroke:#000000;stroke-width:0.8;" x="441.72" xlink:href="#m0b773dac5b" y="293.472083"/>
      </g>
     </g>
     <g id="text_8">
      <!-- 3.5 -->
      <g transform="translate(433.38 305.561458)scale(0.12 -0.12)">
       <use xlink:href="#ArialMT-51"/>
       <use x="55.615234" xlink:href="#ArialMT-46"/>
       <use x="83.398438" xlink:href="#ArialMT-53"/>
      </g>
     </g>
    </g>
    <g id="xtick_9">
     <g id="line2d_17">
      <defs>
       <path d="M 0 0 
L 0 -2 
" id="mfd9855ecf5" style="stroke:#000000;stroke-width:0.6;"/>
      </defs>
      <g>
       <use style="stroke:#000000;stroke-width:0.6;" x="90.567946" xlink:href="#mfd9855ecf5" y="293.472083"/>
      </g>
     </g>
    </g>
    <g id="xtick_10">
     <g id="line2d_18">
      <g>
       <use style="stroke:#000000;stroke-width:0.6;" x="144.591339" xlink:href="#mfd9855ecf5" y="293.472083"/>
      </g>
     </g>
    </g>
    <g id="xtick_11">
     <g id="line2d_19">
      <g>
       <use style="stroke:#000000;stroke-width:0.6;" x="198.614732" xlink:href="#mfd9855ecf5" y="293.472083"/>
      </g>
     </g>
    </g>
    <g id="xtick_12">
     <g id="line2d_20">
      <g>
       <use style="stroke:#000000;stroke-width:0.6;" x="252.638125" xlink:href="#mfd9855ecf5" y="293.472083"/>
      </g>
     </g>
    </g>
    <g id="xtick_13">
     <g id="line2d_21">
      <g>
       <use style="stroke:#000000;stroke-width:0.6;" x="306.661518" xlink:href="#mfd9855ecf5" y="293.472083"/>
      </g>
     </g>
    </g>
    <g id="xtick_14">
     <g id="line2d_22">
      <g>
       <use style="stroke:#000000;stroke-width:0.6;" x="360.684911" xlink:href="#mfd9855ecf5" y="293.472083"/>
      </g>
     </g>
    </g>
    <g id="xtick_15">
     <g id="line2d_23">
      <g>
       <use style="stroke:#000000;stroke-width:0.6;" x="414.708304" xlink:href="#mfd9855ecf5" y="293.472083"/>
      </g>
     </g>
    </g>
    <g id="text_9">
     <!-- Energy (eV) -->
     <defs>
      <path d="M 7.90625 0 
L 7.90625 71.578125 
L 59.671875 71.578125 
L 59.671875 63.140625 
L 17.390625 63.140625 
L 17.390625 41.21875 
L 56.984375 41.21875 
L 56.984375 32.8125 
L 17.390625 32.8125 
L 17.390625 8.453125 
L 61.328125 8.453125 
L 61.328125 0 
z
" id="ArialMT-69"/>
      <path d="M 6.59375 0 
L 6.59375 51.859375 
L 14.5 51.859375 
L 14.5 44.484375 
Q 20.21875 53.03125 31 53.03125 
Q 35.6875 53.03125 39.625 51.34375 
Q 43.5625 49.65625 45.515625 46.921875 
Q 47.46875 44.1875 48.25 40.4375 
Q 48.734375 37.984375 48.734375 31.890625 
L 48.734375 0 
L 39.9375 0 
L 39.9375 31.546875 
Q 39.9375 36.921875 38.90625 39.578125 
Q 37.890625 42.234375 35.28125 43.8125 
Q 32.671875 45.40625 29.15625 45.40625 
Q 23.53125 45.40625 19.453125 41.84375 
Q 15.375 38.28125 15.375 28.328125 
L 15.375 0 
z
" id="ArialMT-110"/>
      <path d="M 42.09375 16.703125 
L 51.171875 15.578125 
Q 49.03125 7.625 43.21875 3.21875 
Q 37.40625 -1.171875 28.375 -1.171875 
Q 17 -1.171875 10.328125 5.828125 
Q 3.65625 12.84375 3.65625 25.484375 
Q 3.65625 38.578125 10.390625 45.796875 
Q 17.140625 53.03125 27.875 53.03125 
Q 38.28125 53.03125 44.875 45.953125 
Q 51.46875 38.875 51.46875 26.03125 
Q 51.46875 25.25 51.421875 23.6875 
L 12.75 23.6875 
Q 13.234375 15.140625 17.578125 10.59375 
Q 21.921875 6.0625 28.421875 6.0625 
Q 33.25 6.0625 36.671875 8.59375 
Q 40.09375 11.140625 42.09375 16.703125 
z
M 13.234375 30.90625 
L 42.1875 30.90625 
Q 41.609375 37.453125 38.875 40.71875 
Q 34.671875 45.796875 27.984375 45.796875 
Q 21.921875 45.796875 17.796875 41.75 
Q 13.671875 37.703125 13.234375 30.90625 
z
" id="ArialMT-101"/>
      <path d="M 6.5 0 
L 6.5 51.859375 
L 14.40625 51.859375 
L 14.40625 44 
Q 17.4375 49.515625 20 51.265625 
Q 22.5625 53.03125 25.640625 53.03125 
Q 30.078125 53.03125 34.671875 50.203125 
L 31.640625 42.046875 
Q 28.421875 43.953125 25.203125 43.953125 
Q 22.3125 43.953125 20.015625 42.21875 
Q 17.71875 40.484375 16.75 37.40625 
Q 15.28125 32.71875 15.28125 27.15625 
L 15.28125 0 
z
" id="ArialMT-114"/>
      <path d="M 4.984375 -4.296875 
L 13.53125 -5.5625 
Q 14.0625 -9.515625 16.5 -11.328125 
Q 19.78125 -13.765625 25.4375 -13.765625 
Q 31.546875 -13.765625 34.859375 -11.328125 
Q 38.1875 -8.890625 39.359375 -4.5 
Q 40.046875 -1.8125 39.984375 6.78125 
Q 34.234375 0 25.640625 0 
Q 14.9375 0 9.078125 7.71875 
Q 3.21875 15.4375 3.21875 26.21875 
Q 3.21875 33.640625 5.90625 39.90625 
Q 8.59375 46.1875 13.6875 49.609375 
Q 18.796875 53.03125 25.6875 53.03125 
Q 34.859375 53.03125 40.828125 45.609375 
L 40.828125 51.859375 
L 48.921875 51.859375 
L 48.921875 7.03125 
Q 48.921875 -5.078125 46.453125 -10.125 
Q 44 -15.1875 38.640625 -18.109375 
Q 33.296875 -21.046875 25.484375 -21.046875 
Q 16.21875 -21.046875 10.5 -16.875 
Q 4.78125 -12.703125 4.984375 -4.296875 
z
M 12.25 26.859375 
Q 12.25 16.65625 16.296875 11.96875 
Q 20.359375 7.28125 26.46875 7.28125 
Q 32.515625 7.28125 36.609375 11.9375 
Q 40.71875 16.609375 40.71875 26.5625 
Q 40.71875 36.078125 36.5 40.90625 
Q 32.28125 45.75 26.3125 45.75 
Q 20.453125 45.75 16.34375 40.984375 
Q 12.25 36.234375 12.25 26.859375 
z
" id="ArialMT-103"/>
      <path d="M 6.203125 -19.96875 
L 5.21875 -11.71875 
Q 8.109375 -12.5 10.25 -12.5 
Q 13.1875 -12.5 14.9375 -11.515625 
Q 16.703125 -10.546875 17.828125 -8.796875 
Q 18.65625 -7.46875 20.515625 -2.25 
Q 20.75 -1.515625 21.296875 -0.09375 
L 1.609375 51.859375 
L 11.078125 51.859375 
L 21.875 21.828125 
Q 23.96875 16.109375 25.640625 9.8125 
Q 27.15625 15.875 29.25 21.625 
L 40.328125 51.859375 
L 49.125 51.859375 
L 29.390625 -0.875 
Q 26.21875 -9.421875 24.46875 -12.640625 
Q 22.125 -17 19.09375 -19.015625 
Q 16.0625 -21.046875 11.859375 -21.046875 
Q 9.328125 -21.046875 6.203125 -19.96875 
z
" id="ArialMT-121"/>
      <path id="ArialMT-32"/>
      <path d="M 23.390625 -21.046875 
Q 16.109375 -11.859375 11.078125 0.4375 
Q 6.0625 12.75 6.0625 25.921875 
Q 6.0625 37.546875 9.8125 48.1875 
Q 14.203125 60.546875 23.390625 72.796875 
L 29.6875 72.796875 
Q 23.78125 62.640625 21.875 58.296875 
Q 18.890625 51.5625 17.1875 44.234375 
Q 15.09375 35.109375 15.09375 25.875 
Q 15.09375 2.390625 29.6875 -21.046875 
z
" id="ArialMT-40"/>
      <path d="M 28.171875 0 
L 0.4375 71.578125 
L 10.6875 71.578125 
L 29.296875 19.578125 
Q 31.546875 13.328125 33.0625 7.859375 
Q 34.71875 13.71875 36.921875 19.578125 
L 56.25 71.578125 
L 65.921875 71.578125 
L 37.890625 0 
z
" id="ArialMT-86"/>
      <path d="M 12.359375 -21.046875 
L 6.0625 -21.046875 
Q 20.65625 2.390625 20.65625 25.875 
Q 20.65625 35.0625 18.5625 44.09375 
Q 16.890625 51.421875 13.921875 58.15625 
Q 12.015625 62.546875 6.0625 72.796875 
L 12.359375 72.796875 
Q 21.53125 60.546875 25.921875 48.1875 
Q 29.6875 37.546875 29.6875 25.921875 
Q 29.6875 12.75 24.625 0.4375 
Q 19.578125 -11.859375 12.359375 -21.046875 
z
" id="ArialMT-41"/>
     </defs>
     <g transform="translate(220.627188 331.682083)scale(0.12 -0.12)">
      <use xlink:href="#ArialMT-69"/>
      <use x="66.699219" xlink:href="#ArialMT-110"/>
      <use x="122.314453" xlink:href="#ArialMT-101"/>
      <use x="177.929688" xlink:href="#ArialMT-114"/>
      <use x="211.230469" xlink:href="#ArialMT-103"/>
      <use x="266.845703" xlink:href="#ArialMT-121"/>
      <use x="316.845703" xlink:href="#ArialMT-32"/>
      <use x="344.628906" xlink:href="#ArialMT-40"/>
      <use x="377.929688" xlink:href="#ArialMT-101"/>
      <use x="433.544922" xlink:href="#ArialMT-86"/>
      <use x="500.244141" xlink:href="#ArialMT-41"/>
     </g>
    </g>
    <g id="text_10">
     <!-- 1e7 -->
     <defs>
      <path d="M 4.734375 62.203125 
L 4.734375 70.65625 
L 51.078125 70.65625 
L 51.078125 63.8125 
Q 44.234375 56.546875 37.515625 44.484375 
Q 30.8125 32.421875 27.15625 19.671875 
Q 24.515625 10.6875 23.78125 0 
L 14.75 0 
Q 14.890625 8.453125 18.0625 20.40625 
Q 21.234375 32.375 27.171875 43.484375 
Q 33.109375 54.59375 39.796875 62.203125 
z
" id="ArialMT-55"/>
     </defs>
     <g transform="translate(425.037188 318.104271)scale(0.1 -0.1)">
      <use xlink:href="#ArialMT-49"/>
      <use x="55.615234" xlink:href="#ArialMT-101"/>
      <use x="111.230469" xlink:href="#ArialMT-55"/>
     </g>
    </g>
   </g>
   <g id="matplotlib.axis_2">
    <g id="ytick_1">
     <g id="line2d_24">
      <path clip-path="url(#pf1c14b4a2c)" d="M 63.55625 281.526883 
L 441.72 281.526883 
" style="fill:none;stroke:#b2b2b2;stroke-dasharray:1.85,0.8;stroke-dashoffset:0;stroke-width:0.5;"/>
     </g>
     <g id="line2d_25">
      <defs>
       <path d="M 0 0 
L 5 0 
" id="m15edfca550" style="stroke:#000000;stroke-width:0.8;"/>
      </defs>
      <g>
       <use style="stroke:#000000;stroke-width:0.8;" x="63.55625" xlink:href="#m15edfca550" y="281.526883"/>
      </g>
     </g>
     <g id="text_11">
      <!-- 0.00 -->
      <g transform="translate(36.703125 285.82157)scale(0.12 -0.12)">
       <use xlink:href="#ArialMT-48"/>
       <use x="55.615234" xlink:href="#ArialMT-46"/>
       <use x="83.398438" xlink:href="#ArialMT-48"/>
       <use x="139.013672" xlink:href="#ArialMT-48"/>
      </g>
     </g>
    </g>
    <g id="ytick_2">
     <g id="line2d_26">
      <path clip-path="url(#pf1c14b4a2c)" d="M 63.55625 252.285265 
L 441.72 252.285265 
" style="fill:none;stroke:#b2b2b2;stroke-dasharray:1.85,0.8;stroke-dashoffset:0;stroke-width:0.5;"/>
     </g>
     <g id="line2d_27">
      <g>
       <use style="stroke:#000000;stroke-width:0.8;" x="63.55625" xlink:href="#m15edfca550" y="252.285265"/>
      </g>
     </g>
     <g id="text_12">
      <!-- 0.02 -->
      <g transform="translate(36.703125 256.579953)scale(0.12 -0.12)">
       <use xlink:href="#ArialMT-48"/>
       <use x="55.615234" xlink:href="#ArialMT-46"/>
       <use x="83.398438" xlink:href="#ArialMT-48"/>
       <use x="139.013672" xlink:href="#ArialMT-50"/>
      </g>
     </g>
    </g>
    <g id="ytick_3">
     <g id="line2d_28">
      <path clip-path="url(#pf1c14b4a2c)" d="M 63.55625 223.043648 
L 441.72 223.043648 
" style="fill:none;stroke:#b2b2b2;stroke-dasharray:1.85,0.8;stroke-dashoffset:0;stroke-width:0.5;"/>
     </g>
     <g id="line2d_29">
      <g>
       <use style="stroke:#000000;stroke-width:0.8;" x="63.55625" xlink:href="#m15edfca550" y="223.043648"/>
      </g>
     </g>
     <g id="text_13">
      <!-- 0.04 -->
      <defs>
       <path d="M 32.328125 0 
L 32.328125 17.140625 
L 1.265625 17.140625 
L 1.265625 25.203125 
L 33.9375 71.578125 
L 41.109375 71.578125 
L 41.109375 25.203125 
L 50.78125 25.203125 
L 50.78125 17.140625 
L 41.109375 17.140625 
L 41.109375 0 
z
M 32.328125 25.203125 
L 32.328125 57.46875 
L 9.90625 25.203125 
z
" id="ArialMT-52"/>
      </defs>
      <g transform="translate(36.703125 227.338335)scale(0.12 -0.12)">
       <use xlink:href="#ArialMT-48"/>
       <use x="55.615234" xlink:href="#ArialMT-46"/>
       <use x="83.398438" xlink:href="#ArialMT-48"/>
       <use x="139.013672" xlink:href="#ArialMT-52"/>
      </g>
     </g>
    </g>
    <g id="ytick_4">
     <g id="line2d_30">
      <path clip-path="url(#pf1c14b4a2c)" d="M 63.55625 193.80203 
L 441.72 193.80203 
" style="fill:none;stroke:#b2b2b2;stroke-dasharray:1.85,0.8;stroke-dashoffset:0;stroke-width:0.5;"/>
     </g>
     <g id="line2d_31">
      <g>
       <use style="stroke:#000000;stroke-width:0.8;" x="63.55625" xlink:href="#m15edfca550" y="193.80203"/>
      </g>
     </g>
     <g id="text_14">
      <!-- 0.06 -->
      <defs>
       <path d="M 49.75 54.046875 
L 41.015625 53.375 
Q 39.84375 58.546875 37.703125 60.890625 
Q 34.125 64.65625 28.90625 64.65625 
Q 24.703125 64.65625 21.53125 62.3125 
Q 17.390625 59.28125 14.984375 53.46875 
Q 12.59375 47.65625 12.5 36.921875 
Q 15.671875 41.75 20.265625 44.09375 
Q 24.859375 46.4375 29.890625 46.4375 
Q 38.671875 46.4375 44.84375 39.96875 
Q 51.03125 33.5 51.03125 23.25 
Q 51.03125 16.5 48.125 10.71875 
Q 45.21875 4.9375 40.140625 1.859375 
Q 35.0625 -1.21875 28.609375 -1.21875 
Q 17.625 -1.21875 10.6875 6.859375 
Q 3.765625 14.9375 3.765625 33.5 
Q 3.765625 54.25 11.421875 63.671875 
Q 18.109375 71.875 29.4375 71.875 
Q 37.890625 71.875 43.28125 67.140625 
Q 48.6875 62.40625 49.75 54.046875 
z
M 13.875 23.1875 
Q 13.875 18.65625 15.796875 14.5 
Q 17.71875 10.359375 21.1875 8.171875 
Q 24.65625 6 28.46875 6 
Q 34.03125 6 38.03125 10.484375 
Q 42.046875 14.984375 42.046875 22.703125 
Q 42.046875 30.125 38.078125 34.390625 
Q 34.125 38.671875 28.125 38.671875 
Q 22.171875 38.671875 18.015625 34.390625 
Q 13.875 30.125 13.875 23.1875 
z
" id="ArialMT-54"/>
      </defs>
      <g transform="translate(36.703125 198.096717)scale(0.12 -0.12)">
       <use xlink:href="#ArialMT-48"/>
       <use x="55.615234" xlink:href="#ArialMT-46"/>
       <use x="83.398438" xlink:href="#ArialMT-48"/>
       <use x="139.013672" xlink:href="#ArialMT-54"/>
      </g>
     </g>
    </g>
    <g id="ytick_5">
     <g id="line2d_32">
      <path clip-path="url(#pf1c14b4a2c)" d="M 63.55625 164.560412 
L 441.72 164.560412 
" style="fill:none;stroke:#b2b2b2;stroke-dasharray:1.85,0.8;stroke-dashoffset:0;stroke-width:0.5;"/>
     </g>
     <g id="line2d_33">
      <g>
       <use style="stroke:#000000;stroke-width:0.8;" x="63.55625" xlink:href="#m15edfca550" y="164.560412"/>
      </g>
     </g>
     <g id="text_15">
      <!-- 0.08 -->
      <defs>
       <path d="M 17.671875 38.8125 
Q 12.203125 40.828125 9.5625 44.53125 
Q 6.9375 48.25 6.9375 53.421875 
Q 6.9375 61.234375 12.546875 66.546875 
Q 18.171875 71.875 27.484375 71.875 
Q 36.859375 71.875 42.578125 66.421875 
Q 48.296875 60.984375 48.296875 53.171875 
Q 48.296875 48.1875 45.671875 44.5 
Q 43.0625 40.828125 37.75 38.8125 
Q 44.34375 36.671875 47.78125 31.875 
Q 51.21875 27.09375 51.21875 20.453125 
Q 51.21875 11.28125 44.71875 5.03125 
Q 38.234375 -1.21875 27.640625 -1.21875 
Q 17.046875 -1.21875 10.546875 5.046875 
Q 4.046875 11.328125 4.046875 20.703125 
Q 4.046875 27.6875 7.59375 32.390625 
Q 11.140625 37.109375 17.671875 38.8125 
z
M 15.921875 53.71875 
Q 15.921875 48.640625 19.1875 45.40625 
Q 22.46875 42.1875 27.6875 42.1875 
Q 32.765625 42.1875 36.015625 45.375 
Q 39.265625 48.578125 39.265625 53.21875 
Q 39.265625 58.0625 35.90625 61.359375 
Q 32.5625 64.65625 27.59375 64.65625 
Q 22.5625 64.65625 19.234375 61.421875 
Q 15.921875 58.203125 15.921875 53.71875 
z
M 13.09375 20.65625 
Q 13.09375 16.890625 14.875 13.375 
Q 16.65625 9.859375 20.171875 7.921875 
Q 23.6875 6 27.734375 6 
Q 34.03125 6 38.125 10.046875 
Q 42.234375 14.109375 42.234375 20.359375 
Q 42.234375 26.703125 38.015625 30.859375 
Q 33.796875 35.015625 27.4375 35.015625 
Q 21.234375 35.015625 17.15625 30.90625 
Q 13.09375 26.8125 13.09375 20.65625 
z
" id="ArialMT-56"/>
      </defs>
      <g transform="translate(36.703125 168.8551)scale(0.12 -0.12)">
       <use xlink:href="#ArialMT-48"/>
       <use x="55.615234" xlink:href="#ArialMT-46"/>
       <use x="83.398438" xlink:href="#ArialMT-48"/>
       <use x="139.013672" xlink:href="#ArialMT-56"/>
      </g>
     </g>
    </g>
    <g id="ytick_6">
     <g id="line2d_34">
      <path clip-path="url(#pf1c14b4a2c)" d="M 63.55625 135.318795 
L 441.72 135.318795 
" style="fill:none;stroke:#b2b2b2;stroke-dasharray:1.85,0.8;stroke-dashoffset:0;stroke-width:0.5;"/>
     </g>
     <g id="line2d_35">
      <g>
       <use style="stroke:#000000;stroke-width:0.8;" x="63.55625" xlink:href="#m15edfca550" y="135.318795"/>
      </g>
     </g>
     <g id="text_16">
      <!-- 0.10 -->
      <g transform="translate(36.703125 139.613482)scale(0.12 -0.12)">
       <use xlink:href="#ArialMT-48"/>
       <use x="55.615234" xlink:href="#ArialMT-46"/>
       <use x="83.398438" xlink:href="#ArialMT-49"/>
       <use x="139.013672" xlink:href="#ArialMT-48"/>
      </g>
     </g>
    </g>
    <g id="ytick_7">
     <g id="line2d_36">
      <path clip-path="url(#pf1c14b4a2c)" d="M 63.55625 106.077177 
L 441.72 106.077177 
" style="fill:none;stroke:#b2b2b2;stroke-dasharray:1.85,0.8;stroke-dashoffset:0;stroke-width:0.5;"/>
     </g>
     <g id="line2d_37">
      <g>
       <use style="stroke:#000000;stroke-width:0.8;" x="63.55625" xlink:href="#m15edfca550" y="106.077177"/>
      </g>
     </g>
     <g id="text_17">
      <!-- 0.12 -->
      <g transform="translate(36.703125 110.371865)scale(0.12 -0.12)">
       <use xlink:href="#ArialMT-48"/>
       <use x="55.615234" xlink:href="#ArialMT-46"/>
       <use x="83.398438" xlink:href="#ArialMT-49"/>
       <use x="139.013672" xlink:href="#ArialMT-50"/>
      </g>
     </g>
    </g>
    <g id="ytick_8">
     <g id="line2d_38">
      <path clip-path="url(#pf1c14b4a2c)" d="M 63.55625 76.83556 
L 441.72 76.83556 
" style="fill:none;stroke:#b2b2b2;stroke-dasharray:1.85,0.8;stroke-dashoffset:0;stroke-width:0.5;"/>
     </g>
     <g id="line2d_39">
      <g>
       <use style="stroke:#000000;stroke-width:0.8;" x="63.55625" xlink:href="#m15edfca550" y="76.83556"/>
      </g>
     </g>
     <g id="text_18">
      <!-- 0.14 -->
      <g transform="translate(36.703125 81.130247)scale(0.12 -0.12)">
       <use xlink:href="#ArialMT-48"/>
       <use x="55.615234" xlink:href="#ArialMT-46"/>
       <use x="83.398438" xlink:href="#ArialMT-49"/>
       <use x="139.013672" xlink:href="#ArialMT-52"/>
      </g>
     </g>
    </g>
    <g id="ytick_9">
     <g id="line2d_40">
      <path clip-path="url(#pf1c14b4a2c)" d="M 63.55625 47.593942 
L 441.72 47.593942 
" style="fill:none;stroke:#b2b2b2;stroke-dasharray:1.85,0.8;stroke-dashoffset:0;stroke-width:0.5;"/>
     </g>
     <g id="line2d_41">
      <g>
       <use style="stroke:#000000;stroke-width:0.8;" x="63.55625" xlink:href="#m15edfca550" y="47.593942"/>
      </g>
     </g>
     <g id="text_19">
      <!-- 0.16 -->
      <g transform="translate(36.703125 51.88863)scale(0.12 -0.12)">
       <use xlink:href="#ArialMT-48"/>
       <use x="55.615234" xlink:href="#ArialMT-46"/>
       <use x="83.398438" xlink:href="#ArialMT-49"/>
       <use x="139.013672" xlink:href="#ArialMT-54"/>
      </g>
     </g>
    </g>
    <g id="ytick_10">
     <g id="line2d_42">
      <defs>
       <path d="M 0 0 
L 2 0 
" id="mbe0722891f" style="stroke:#000000;stroke-width:0.6;"/>
      </defs>
      <g>
       <use style="stroke:#000000;stroke-width:0.6;" x="63.55625" xlink:href="#mbe0722891f" y="266.906074"/>
      </g>
     </g>
    </g>
    <g id="ytick_11">
     <g id="line2d_43">
      <g>
       <use style="stroke:#000000;stroke-width:0.6;" x="63.55625" xlink:href="#mbe0722891f" y="237.664456"/>
      </g>
     </g>
    </g>
    <g id="ytick_12">
     <g id="line2d_44">
      <g>
       <use style="stroke:#000000;stroke-width:0.6;" x="63.55625" xlink:href="#mbe0722891f" y="208.422839"/>
      </g>
     </g>
    </g>
    <g id="ytick_13">
     <g id="line2d_45">
      <g>
       <use style="stroke:#000000;stroke-width:0.6;" x="63.55625" xlink:href="#mbe0722891f" y="179.181221"/>
      </g>
     </g>
    </g>
    <g id="ytick_14">
     <g id="line2d_46">
      <g>
       <use style="stroke:#000000;stroke-width:0.6;" x="63.55625" xlink:href="#mbe0722891f" y="149.939604"/>
      </g>
     </g>
    </g>
    <g id="ytick_15">
     <g id="line2d_47">
      <g>
       <use style="stroke:#000000;stroke-width:0.6;" x="63.55625" xlink:href="#mbe0722891f" y="120.697986"/>
      </g>
     </g>
    </g>
    <g id="ytick_16">
     <g id="line2d_48">
      <g>
       <use style="stroke:#000000;stroke-width:0.6;" x="63.55625" xlink:href="#mbe0722891f" y="91.456369"/>
      </g>
     </g>
    </g>
    <g id="ytick_17">
     <g id="line2d_49">
      <g>
       <use style="stroke:#000000;stroke-width:0.6;" x="63.55625" xlink:href="#mbe0722891f" y="62.214751"/>
      </g>
     </g>
    </g>
    <g id="ytick_18">
     <g id="line2d_50">
      <g>
       <use style="stroke:#000000;stroke-width:0.6;" x="63.55625" xlink:href="#mbe0722891f" y="32.973134"/>
      </g>
     </g>
    </g>
    <g id="text_20">
     <!-- Cross section (b) -->
     <defs>
      <path d="M 58.796875 25.09375 
L 68.265625 22.703125 
Q 65.28125 11.03125 57.546875 4.90625 
Q 49.8125 -1.21875 38.625 -1.21875 
Q 27.046875 -1.21875 19.796875 3.484375 
Q 12.546875 8.203125 8.765625 17.140625 
Q 4.984375 26.078125 4.984375 36.328125 
Q 4.984375 47.515625 9.25 55.828125 
Q 13.53125 64.15625 21.40625 68.46875 
Q 29.296875 72.796875 38.765625 72.796875 
Q 49.515625 72.796875 56.828125 67.328125 
Q 64.15625 61.859375 67.046875 51.953125 
L 57.71875 49.75 
Q 55.21875 57.5625 50.484375 61.125 
Q 45.75 64.703125 38.578125 64.703125 
Q 30.328125 64.703125 24.78125 60.734375 
Q 19.234375 56.78125 16.984375 50.109375 
Q 14.75 43.453125 14.75 36.375 
Q 14.75 27.25 17.40625 20.4375 
Q 20.0625 13.625 25.671875 10.25 
Q 31.296875 6.890625 37.84375 6.890625 
Q 45.796875 6.890625 51.3125 11.46875 
Q 56.84375 16.0625 58.796875 25.09375 
z
" id="ArialMT-67"/>
      <path d="M 3.328125 25.921875 
Q 3.328125 40.328125 11.328125 47.265625 
Q 18.015625 53.03125 27.640625 53.03125 
Q 38.328125 53.03125 45.109375 46.015625 
Q 51.90625 39.015625 51.90625 26.65625 
Q 51.90625 16.65625 48.90625 10.90625 
Q 45.90625 5.171875 40.15625 2 
Q 34.421875 -1.171875 27.640625 -1.171875 
Q 16.75 -1.171875 10.03125 5.8125 
Q 3.328125 12.796875 3.328125 25.921875 
z
M 12.359375 25.921875 
Q 12.359375 15.96875 16.703125 11.015625 
Q 21.046875 6.0625 27.640625 6.0625 
Q 34.1875 6.0625 38.53125 11.03125 
Q 42.875 16.015625 42.875 26.21875 
Q 42.875 35.84375 38.5 40.796875 
Q 34.125 45.75 27.640625 45.75 
Q 21.046875 45.75 16.703125 40.8125 
Q 12.359375 35.890625 12.359375 25.921875 
z
" id="ArialMT-111"/>
      <path d="M 3.078125 15.484375 
L 11.765625 16.84375 
Q 12.5 11.625 15.84375 8.84375 
Q 19.1875 6.0625 25.203125 6.0625 
Q 31.25 6.0625 34.171875 8.515625 
Q 37.109375 10.984375 37.109375 14.3125 
Q 37.109375 17.28125 34.515625 19 
Q 32.71875 20.171875 25.53125 21.96875 
Q 15.875 24.421875 12.140625 26.203125 
Q 8.40625 27.984375 6.46875 31.125 
Q 4.546875 34.28125 4.546875 38.09375 
Q 4.546875 41.546875 6.125 44.5 
Q 7.71875 47.46875 10.453125 49.421875 
Q 12.5 50.921875 16.03125 51.96875 
Q 19.578125 53.03125 23.640625 53.03125 
Q 29.734375 53.03125 34.34375 51.265625 
Q 38.96875 49.515625 41.15625 46.5 
Q 43.359375 43.5 44.1875 38.484375 
L 35.59375 37.3125 
Q 35.015625 41.3125 32.203125 43.546875 
Q 29.390625 45.796875 24.265625 45.796875 
Q 18.21875 45.796875 15.625 43.796875 
Q 13.03125 41.796875 13.03125 39.109375 
Q 13.03125 37.40625 14.109375 36.03125 
Q 15.1875 34.625 17.484375 33.6875 
Q 18.796875 33.203125 25.25 31.453125 
Q 34.578125 28.953125 38.25 27.359375 
Q 41.9375 25.78125 44.03125 22.75 
Q 46.140625 19.734375 46.140625 15.234375 
Q 46.140625 10.84375 43.578125 6.953125 
Q 41.015625 3.078125 36.171875 0.953125 
Q 31.34375 -1.171875 25.25 -1.171875 
Q 15.140625 -1.171875 9.84375 3.03125 
Q 4.546875 7.234375 3.078125 15.484375 
z
" id="ArialMT-115"/>
      <path d="M 40.4375 19 
L 49.078125 17.875 
Q 47.65625 8.9375 41.8125 3.875 
Q 35.984375 -1.171875 27.484375 -1.171875 
Q 16.84375 -1.171875 10.375 5.78125 
Q 3.90625 12.75 3.90625 25.734375 
Q 3.90625 34.125 6.6875 40.421875 
Q 9.46875 46.734375 15.15625 49.875 
Q 20.84375 53.03125 27.546875 53.03125 
Q 35.984375 53.03125 41.359375 48.75 
Q 46.734375 44.484375 48.25 36.625 
L 39.703125 35.296875 
Q 38.484375 40.53125 35.375 43.15625 
Q 32.28125 45.796875 27.875 45.796875 
Q 21.234375 45.796875 17.078125 41.03125 
Q 12.9375 36.28125 12.9375 25.984375 
Q 12.9375 15.53125 16.9375 10.796875 
Q 20.953125 6.0625 27.390625 6.0625 
Q 32.5625 6.0625 36.03125 9.234375 
Q 39.5 12.40625 40.4375 19 
z
" id="ArialMT-99"/>
      <path d="M 25.78125 7.859375 
L 27.046875 0.09375 
Q 23.34375 -0.6875 20.40625 -0.6875 
Q 15.625 -0.6875 12.984375 0.828125 
Q 10.359375 2.34375 9.28125 4.8125 
Q 8.203125 7.28125 8.203125 15.1875 
L 8.203125 45.015625 
L 1.765625 45.015625 
L 1.765625 51.859375 
L 8.203125 51.859375 
L 8.203125 64.703125 
L 16.9375 69.96875 
L 16.9375 51.859375 
L 25.78125 51.859375 
L 25.78125 45.015625 
L 16.9375 45.015625 
L 16.9375 14.703125 
Q 16.9375 10.9375 17.40625 9.859375 
Q 17.875 8.796875 18.921875 8.15625 
Q 19.96875 7.515625 21.921875 7.515625 
Q 23.390625 7.515625 25.78125 7.859375 
z
" id="ArialMT-116"/>
      <path d="M 6.640625 61.46875 
L 6.640625 71.578125 
L 15.4375 71.578125 
L 15.4375 61.46875 
z
M 6.640625 0 
L 6.640625 51.859375 
L 15.4375 51.859375 
L 15.4375 0 
z
" id="ArialMT-105"/>
      <path d="M 14.703125 0 
L 6.546875 0 
L 6.546875 71.578125 
L 15.328125 71.578125 
L 15.328125 46.046875 
Q 20.90625 53.03125 29.546875 53.03125 
Q 34.328125 53.03125 38.59375 51.09375 
Q 42.875 49.171875 45.625 45.671875 
Q 48.390625 42.1875 49.953125 37.25 
Q 51.515625 32.328125 51.515625 26.703125 
Q 51.515625 13.375 44.921875 6.09375 
Q 38.328125 -1.171875 29.109375 -1.171875 
Q 19.921875 -1.171875 14.703125 6.5 
z
M 14.59375 26.3125 
Q 14.59375 17 17.140625 12.84375 
Q 21.296875 6.0625 28.375 6.0625 
Q 34.125 6.0625 38.328125 11.0625 
Q 42.53125 16.0625 42.53125 25.984375 
Q 42.53125 36.140625 38.5 40.96875 
Q 34.46875 45.796875 28.765625 45.796875 
Q 23 45.796875 18.796875 40.796875 
Q 14.59375 35.796875 14.59375 26.3125 
z
" id="ArialMT-98"/>
     </defs>
     <g transform="translate(19.1775 207.418)rotate(-90)scale(0.12 -0.12)">
      <use xlink:href="#ArialMT-67"/>
      <use x="72.216797" xlink:href="#ArialMT-114"/>
      <use x="105.517578" xlink:href="#ArialMT-111"/>
      <use x="161.132812" xlink:href="#ArialMT-115"/>
      <use x="211.132812" xlink:href="#ArialMT-115"/>
      <use x="261.132812" xlink:href="#ArialMT-32"/>
      <use x="288.916016" xlink:href="#ArialMT-115"/>
      <use x="338.916016" xlink:href="#ArialMT-101"/>
      <use x="394.53125" xlink:href="#ArialMT-99"/>
      <use x="444.53125" xlink:href="#ArialMT-116"/>
      <use x="472.314453" xlink:href="#ArialMT-105"/>
      <use x="494.53125" xlink:href="#ArialMT-111"/>
      <use x="550.146484" xlink:href="#ArialMT-110"/>
      <use x="605.761719" xlink:href="#ArialMT-32"/>
      <use x="633.544922" xlink:href="#ArialMT-40"/>
      <use x="666.845703" xlink:href="#ArialMT-98"/>
      <use x="722.460938" xlink:href="#ArialMT-41"/>
     </g>
    </g>
   </g>
   <g id="line2d_51">
    <defs>
     <path d="M 0 3 
C 0.795609 3 1.55874 2.683901 2.12132 2.12132 
C 2.683901 1.55874 3 0.795609 3 0 
C 3 -0.795609 2.683901 -1.55874 2.12132 -2.12132 
C 1.55874 -2.683901 0.795609 -3 0 -3 
C -0.795609 -3 -1.55874 -2.683901 -2.12132 -2.12132 
C -2.683901 -1.55874 -3 -0.795609 -3 0 
C -3 0.795609 -2.683901 1.55874 -2.12132 2.12132 
C -1.55874 2.683901 -0.795609 3 0 3 
z
" id="m3bab4e4645" style="stroke:#0000ff;stroke-opacity:0.5;"/>
    </defs>
    <g clip-path="url(#pf1c14b4a2c)">
     <use style="fill:#0000ff;fill-opacity:0.5;stroke:#0000ff;stroke-opacity:0.5;" x="153.559223" xlink:href="#m3bab4e4645" y="265.151577"/>
     <use style="fill:#0000ff;fill-opacity:0.5;stroke:#0000ff;stroke-opacity:0.5;" x="156.476486" xlink:href="#m3bab4e4645" y="265.005369"/>
     <use style="fill:#0000ff;fill-opacity:0.5;stroke:#0000ff;stroke-opacity:0.5;" x="159.393749" xlink:href="#m3bab4e4645" y="261.934999"/>
     <use style="fill:#0000ff;fill-opacity:0.5;stroke:#0000ff;stroke-opacity:0.5;" x="162.311012" xlink:href="#m3bab4e4645" y="249.507311"/>
     <use style="fill:#0000ff;fill-opacity:0.5;stroke:#0000ff;stroke-opacity:0.5;" x="165.228275" xlink:href="#m3bab4e4645" y="246.58315"/>
     <use style="fill:#0000ff;fill-opacity:0.5;stroke:#0000ff;stroke-opacity:0.5;" x="168.145539" xlink:href="#m3bab4e4645" y="246.58315"/>
     <use style="fill:#0000ff;fill-opacity:0.5;stroke:#0000ff;stroke-opacity:0.5;" x="171.062802" xlink:href="#m3bab4e4645" y="247.021774"/>
     <use style="fill:#0000ff;fill-opacity:0.5;stroke:#0000ff;stroke-opacity:0.5;" x="173.980065" xlink:href="#m3bab4e4645" y="244.24382"/>
     <use style="fill:#0000ff;fill-opacity:0.5;stroke:#0000ff;stroke-opacity:0.5;" x="177.005375" xlink:href="#m3bab4e4645" y="228.745763"/>
     <use style="fill:#0000ff;fill-opacity:0.5;stroke:#0000ff;stroke-opacity:0.5;" x="179.922638" xlink:href="#m3bab4e4645" y="242.927947"/>
     <use style="fill:#0000ff;fill-opacity:0.5;stroke:#0000ff;stroke-opacity:0.5;" x="182.839901" xlink:href="#m3bab4e4645" y="228.160931"/>
     <use style="fill:#0000ff;fill-opacity:0.5;stroke:#0000ff;stroke-opacity:0.5;" x="185.757165" xlink:href="#m3bab4e4645" y="216.610492"/>
     <use style="fill:#0000ff;fill-opacity:0.5;stroke:#0000ff;stroke-opacity:0.5;" x="188.674428" xlink:href="#m3bab4e4645" y="206.81455"/>
     <use style="fill:#0000ff;fill-opacity:0.5;stroke:#0000ff;stroke-opacity:0.5;" x="191.591691" xlink:href="#m3bab4e4645" y="193.509614"/>
     <use style="fill:#0000ff;fill-opacity:0.5;stroke:#0000ff;stroke-opacity:0.5;" x="194.508954" xlink:href="#m3bab4e4645" y="172.309441"/>
     <use style="fill:#0000ff;fill-opacity:0.5;stroke:#0000ff;stroke-opacity:0.5;" x="197.426218" xlink:href="#m3bab4e4645" y="158.858297"/>
     <use style="fill:#0000ff;fill-opacity:0.5;stroke:#0000ff;stroke-opacity:0.5;" x="200.343481" xlink:href="#m3bab4e4645" y="147.307858"/>
     <use style="fill:#0000ff;fill-opacity:0.5;stroke:#0000ff;stroke-opacity:0.5;" x="203.260744" xlink:href="#m3bab4e4645" y="131.517385"/>
     <use style="fill:#0000ff;fill-opacity:0.5;stroke:#0000ff;stroke-opacity:0.5;" x="206.286054" xlink:href="#m3bab4e4645" y="115.873119"/>
     <use style="fill:#0000ff;fill-opacity:0.5;stroke:#0000ff;stroke-opacity:0.5;" x="209.203317" xlink:href="#m3bab4e4645" y="98.328149"/>
     <use style="fill:#0000ff;fill-opacity:0.5;stroke:#0000ff;stroke-opacity:0.5;" x="212.12058" xlink:href="#m3bab4e4645" y="95.842611"/>
     <use style="fill:#0000ff;fill-opacity:0.5;stroke:#0000ff;stroke-opacity:0.5;" x="215.037844" xlink:href="#m3bab4e4645" y="74.642439"/>
     <use style="fill:#0000ff;fill-opacity:0.5;stroke:#0000ff;stroke-opacity:0.5;" x="217.955107" xlink:href="#m3bab4e4645" y="42.622867"/>
     <use style="fill:#0000ff;fill-opacity:0.5;stroke:#0000ff;stroke-opacity:0.5;" x="220.87237" xlink:href="#m3bab4e4645" y="58.851965"/>
     <use style="fill:#0000ff;fill-opacity:0.5;stroke:#0000ff;stroke-opacity:0.5;" x="223.789633" xlink:href="#m3bab4e4645" y="66.162369"/>
     <use style="fill:#0000ff;fill-opacity:0.5;stroke:#0000ff;stroke-opacity:0.5;" x="226.706896" xlink:href="#m3bab4e4645" y="91.017744"/>
     <use style="fill:#0000ff;fill-opacity:0.5;stroke:#0000ff;stroke-opacity:0.5;" x="229.62416" xlink:href="#m3bab4e4645" y="103.884056"/>
     <use style="fill:#0000ff;fill-opacity:0.5;stroke:#0000ff;stroke-opacity:0.5;" x="232.541423" xlink:href="#m3bab4e4645" y="130.932552"/>
     <use style="fill:#0000ff;fill-opacity:0.5;stroke:#0000ff;stroke-opacity:0.5;" x="235.566733" xlink:href="#m3bab4e4645" y="139.120205"/>
     <use style="fill:#0000ff;fill-opacity:0.5;stroke:#0000ff;stroke-opacity:0.5;" x="238.483996" xlink:href="#m3bab4e4645" y="162.805915"/>
     <use style="fill:#0000ff;fill-opacity:0.5;stroke:#0000ff;stroke-opacity:0.5;" x="241.401259" xlink:href="#m3bab4e4645" y="183.567464"/>
    </g>
   </g>
   <g id="line2d_52">
    <defs>
     <path d="M 0 3 
C 0.795609 3 1.55874 2.683901 2.12132 2.12132 
C 2.683901 1.55874 3 0.795609 3 0 
C 3 -0.795609 2.683901 -1.55874 2.12132 -2.12132 
C 1.55874 -2.683901 0.795609 -3 0 -3 
C -0.795609 -3 -1.55874 -2.683901 -2.12132 -2.12132 
C -2.683901 -1.55874 -3 -0.795609 -3 0 
C -3 0.795609 -2.683901 1.55874 -2.12132 2.12132 
C -1.55874 2.683901 -0.795609 3 0 3 
z
" id="m83b65b7860" style="stroke:#ff0000;stroke-opacity:0.5;"/>
    </defs>
    <g clip-path="url(#pf1c14b4a2c)">
     <use style="fill:#ff0000;fill-opacity:0.5;stroke:#ff0000;stroke-opacity:0.5;" x="258.040464" xlink:href="#m83b65b7860" y="204.024297"/>
     <use style="fill:#ff0000;fill-opacity:0.5;stroke:#ff0000;stroke-opacity:0.5;" x="265.90627" xlink:href="#m83b65b7860" y="218.723512"/>
     <use style="fill:#ff0000;fill-opacity:0.5;stroke:#ff0000;stroke-opacity:0.5;" x="273.772076" xlink:href="#m83b65b7860" y="230.63486"/>
     <use style="fill:#ff0000;fill-opacity:0.5;stroke:#ff0000;stroke-opacity:0.5;" x="281.637882" xlink:href="#m83b65b7860" y="240.287091"/>
     <use style="fill:#ff0000;fill-opacity:0.5;stroke:#ff0000;stroke-opacity:0.5;" x="289.503688" xlink:href="#m83b65b7860" y="248.10867"/>
     <use style="fill:#ff0000;fill-opacity:0.5;stroke:#ff0000;stroke-opacity:0.5;" x="297.369494" xlink:href="#m83b65b7860" y="254.4468"/>
     <use style="fill:#ff0000;fill-opacity:0.5;stroke:#ff0000;stroke-opacity:0.5;" x="305.2353" xlink:href="#m83b65b7860" y="259.582835"/>
     <use style="fill:#ff0000;fill-opacity:0.5;stroke:#ff0000;stroke-opacity:0.5;" x="313.101106" xlink:href="#m83b65b7860" y="263.744764"/>
     <use style="fill:#ff0000;fill-opacity:0.5;stroke:#ff0000;stroke-opacity:0.5;" x="320.966912" xlink:href="#m83b65b7860" y="267.117338"/>
     <use style="fill:#ff0000;fill-opacity:0.5;stroke:#ff0000;stroke-opacity:0.5;" x="328.832718" xlink:href="#m83b65b7860" y="269.850266"/>
     <use style="fill:#ff0000;fill-opacity:0.5;stroke:#ff0000;stroke-opacity:0.5;" x="336.698524" xlink:href="#m83b65b7860" y="272.064865"/>
     <use style="fill:#ff0000;fill-opacity:0.5;stroke:#ff0000;stroke-opacity:0.5;" x="344.56433" xlink:href="#m83b65b7860" y="273.85944"/>
     <use style="fill:#ff0000;fill-opacity:0.5;stroke:#ff0000;stroke-opacity:0.5;" x="352.430136" xlink:href="#m83b65b7860" y="275.313655"/>
     <use style="fill:#ff0000;fill-opacity:0.5;stroke:#ff0000;stroke-opacity:0.5;" x="360.295942" xlink:href="#m83b65b7860" y="276.492062"/>
     <use style="fill:#ff0000;fill-opacity:0.5;stroke:#ff0000;stroke-opacity:0.5;" x="368.161748" xlink:href="#m83b65b7860" y="277.446971"/>
     <use style="fill:#ff0000;fill-opacity:0.5;stroke:#ff0000;stroke-opacity:0.5;" x="376.027554" xlink:href="#m83b65b7860" y="278.220771"/>
     <use style="fill:#ff0000;fill-opacity:0.5;stroke:#ff0000;stroke-opacity:0.5;" x="383.89336" xlink:href="#m83b65b7860" y="278.847811"/>
     <use style="fill:#ff0000;fill-opacity:0.5;stroke:#ff0000;stroke-opacity:0.5;" x="391.759166" xlink:href="#m83b65b7860" y="279.355926"/>
     <use style="fill:#ff0000;fill-opacity:0.5;stroke:#ff0000;stroke-opacity:0.5;" x="399.624972" xlink:href="#m83b65b7860" y="279.767672"/>
     <use style="fill:#ff0000;fill-opacity:0.5;stroke:#ff0000;stroke-opacity:0.5;" x="407.490778" xlink:href="#m83b65b7860" y="280.101326"/>
     <use style="fill:#ff0000;fill-opacity:0.5;stroke:#ff0000;stroke-opacity:0.5;" x="415.356584" xlink:href="#m83b65b7860" y="280.371698"/>
     <use style="fill:#ff0000;fill-opacity:0.5;stroke:#ff0000;stroke-opacity:0.5;" x="423.22239" xlink:href="#m83b65b7860" y="280.590792"/>
     <use style="fill:#ff0000;fill-opacity:0.5;stroke:#ff0000;stroke-opacity:0.5;" x="431.088196" xlink:href="#m83b65b7860" y="280.768331"/>
     <use style="fill:#ff0000;fill-opacity:0.5;stroke:#ff0000;stroke-opacity:0.5;" x="438.954002" xlink:href="#m83b65b7860" y="280.912199"/>
     <use style="fill:#ff0000;fill-opacity:0.5;stroke:#ff0000;stroke-opacity:0.5;" x="446.819808" xlink:href="#m83b65b7860" y="281.02878"/>
     <use style="fill:#ff0000;fill-opacity:0.5;stroke:#ff0000;stroke-opacity:0.5;" x="454.685614" xlink:href="#m83b65b7860" y="281.123251"/>
     <use style="fill:#ff0000;fill-opacity:0.5;stroke:#ff0000;stroke-opacity:0.5;" x="462.55142" xlink:href="#m83b65b7860" y="281.199804"/>
     <use style="fill:#ff0000;fill-opacity:0.5;stroke:#ff0000;stroke-opacity:0.5;" x="470.417226" xlink:href="#m83b65b7860" y="281.261838"/>
     <use style="fill:#ff0000;fill-opacity:0.5;stroke:#ff0000;stroke-opacity:0.5;" x="478.283032" xlink:href="#m83b65b7860" y="281.312107"/>
     <use style="fill:#ff0000;fill-opacity:0.5;stroke:#ff0000;stroke-opacity:0.5;" x="486.148838" xlink:href="#m83b65b7860" y="281.352841"/>
     <use style="fill:#ff0000;fill-opacity:0.5;stroke:#ff0000;stroke-opacity:0.5;" x="494.014644" xlink:href="#m83b65b7860" y="281.38585"/>
     <use style="fill:#ff0000;fill-opacity:0.5;stroke:#ff0000;stroke-opacity:0.5;" x="501.88045" xlink:href="#m83b65b7860" y="281.412599"/>
     <use style="fill:#ff0000;fill-opacity:0.5;stroke:#ff0000;stroke-opacity:0.5;" x="509.746256" xlink:href="#m83b65b7860" y="281.434274"/>
     <use style="fill:#ff0000;fill-opacity:0.5;stroke:#ff0000;stroke-opacity:0.5;" x="517.612062" xlink:href="#m83b65b7860" y="281.451838"/>
     <use style="fill:#ff0000;fill-opacity:0.5;stroke:#ff0000;stroke-opacity:0.5;" x="525.477868" xlink:href="#m83b65b7860" y="281.466071"/>
     <use style="fill:#ff0000;fill-opacity:0.5;stroke:#ff0000;stroke-opacity:0.5;" x="533.343674" xlink:href="#m83b65b7860" y="281.477605"/>
     <use style="fill:#ff0000;fill-opacity:0.5;stroke:#ff0000;stroke-opacity:0.5;" x="541.20948" xlink:href="#m83b65b7860" y="281.486951"/>
     <use style="fill:#ff0000;fill-opacity:0.5;stroke:#ff0000;stroke-opacity:0.5;" x="549.075286" xlink:href="#m83b65b7860" y="281.494524"/>
     <use style="fill:#ff0000;fill-opacity:0.5;stroke:#ff0000;stroke-opacity:0.5;" x="556.941092" xlink:href="#m83b65b7860" y="281.500661"/>
     <use style="fill:#ff0000;fill-opacity:0.5;stroke:#ff0000;stroke-opacity:0.5;" x="564.806898" xlink:href="#m83b65b7860" y="281.505634"/>
     <use style="fill:#ff0000;fill-opacity:0.5;stroke:#ff0000;stroke-opacity:0.5;" x="572.672704" xlink:href="#m83b65b7860" y="281.509664"/>
     <use style="fill:#ff0000;fill-opacity:0.5;stroke:#ff0000;stroke-opacity:0.5;" x="580.53851" xlink:href="#m83b65b7860" y="281.51293"/>
     <use style="fill:#ff0000;fill-opacity:0.5;stroke:#ff0000;stroke-opacity:0.5;" x="588.404316" xlink:href="#m83b65b7860" y="281.515576"/>
     <use style="fill:#ff0000;fill-opacity:0.5;stroke:#ff0000;stroke-opacity:0.5;" x="596.270122" xlink:href="#m83b65b7860" y="281.517721"/>
     <use style="fill:#ff0000;fill-opacity:0.5;stroke:#ff0000;stroke-opacity:0.5;" x="604.135928" xlink:href="#m83b65b7860" y="281.519458"/>
     <use style="fill:#ff0000;fill-opacity:0.5;stroke:#ff0000;stroke-opacity:0.5;" x="612.001734" xlink:href="#m83b65b7860" y="281.520866"/>
     <use style="fill:#ff0000;fill-opacity:0.5;stroke:#ff0000;stroke-opacity:0.5;" x="619.86754" xlink:href="#m83b65b7860" y="281.522007"/>
     <use style="fill:#ff0000;fill-opacity:0.5;stroke:#ff0000;stroke-opacity:0.5;" x="627.733346" xlink:href="#m83b65b7860" y="281.522932"/>
     <use style="fill:#ff0000;fill-opacity:0.5;stroke:#ff0000;stroke-opacity:0.5;" x="635.599152" xlink:href="#m83b65b7860" y="281.523681"/>
     <use style="fill:#ff0000;fill-opacity:0.5;stroke:#ff0000;stroke-opacity:0.5;" x="643.464958" xlink:href="#m83b65b7860" y="281.524288"/>
     <use style="fill:#ff0000;fill-opacity:0.5;stroke:#ff0000;stroke-opacity:0.5;" x="651.330764" xlink:href="#m83b65b7860" y="281.52478"/>
     <use style="fill:#ff0000;fill-opacity:0.5;stroke:#ff0000;stroke-opacity:0.5;" x="659.19657" xlink:href="#m83b65b7860" y="281.525179"/>
     <use style="fill:#ff0000;fill-opacity:0.5;stroke:#ff0000;stroke-opacity:0.5;" x="667.062376" xlink:href="#m83b65b7860" y="281.525502"/>
     <use style="fill:#ff0000;fill-opacity:0.5;stroke:#ff0000;stroke-opacity:0.5;" x="674.928182" xlink:href="#m83b65b7860" y="281.525764"/>
     <use style="fill:#ff0000;fill-opacity:0.5;stroke:#ff0000;stroke-opacity:0.5;" x="682.793988" xlink:href="#m83b65b7860" y="281.525976"/>
     <use style="fill:#ff0000;fill-opacity:0.5;stroke:#ff0000;stroke-opacity:0.5;" x="690.659794" xlink:href="#m83b65b7860" y="281.526148"/>
     <use style="fill:#ff0000;fill-opacity:0.5;stroke:#ff0000;stroke-opacity:0.5;" x="698.5256" xlink:href="#m83b65b7860" y="281.526287"/>
     <use style="fill:#ff0000;fill-opacity:0.5;stroke:#ff0000;stroke-opacity:0.5;" x="706.391406" xlink:href="#m83b65b7860" y="281.5264"/>
     <use style="fill:#ff0000;fill-opacity:0.5;stroke:#ff0000;stroke-opacity:0.5;" x="714.257212" xlink:href="#m83b65b7860" y="281.526492"/>
     <use style="fill:#ff0000;fill-opacity:0.5;stroke:#ff0000;stroke-opacity:0.5;" x="722.123018" xlink:href="#m83b65b7860" y="281.526566"/>
     <use style="fill:#ff0000;fill-opacity:0.5;stroke:#ff0000;stroke-opacity:0.5;" x="729.988824" xlink:href="#m83b65b7860" y="281.526626"/>
     <use style="fill:#ff0000;fill-opacity:0.5;stroke:#ff0000;stroke-opacity:0.5;" x="737.85463" xlink:href="#m83b65b7860" y="281.526675"/>
     <use style="fill:#ff0000;fill-opacity:0.5;stroke:#ff0000;stroke-opacity:0.5;" x="745.720436" xlink:href="#m83b65b7860" y="281.526714"/>
     <use style="fill:#ff0000;fill-opacity:0.5;stroke:#ff0000;stroke-opacity:0.5;" x="753.586242" xlink:href="#m83b65b7860" y="281.526746"/>
     <use style="fill:#ff0000;fill-opacity:0.5;stroke:#ff0000;stroke-opacity:0.5;" x="761.452048" xlink:href="#m83b65b7860" y="281.526772"/>
     <use style="fill:#ff0000;fill-opacity:0.5;stroke:#ff0000;stroke-opacity:0.5;" x="769.317854" xlink:href="#m83b65b7860" y="281.526793"/>
     <use style="fill:#ff0000;fill-opacity:0.5;stroke:#ff0000;stroke-opacity:0.5;" x="777.18366" xlink:href="#m83b65b7860" y="281.52681"/>
     <use style="fill:#ff0000;fill-opacity:0.5;stroke:#ff0000;stroke-opacity:0.5;" x="785.049466" xlink:href="#m83b65b7860" y="281.526824"/>
     <use style="fill:#ff0000;fill-opacity:0.5;stroke:#ff0000;stroke-opacity:0.5;" x="792.915272" xlink:href="#m83b65b7860" y="281.526835"/>
     <use style="fill:#ff0000;fill-opacity:0.5;stroke:#ff0000;stroke-opacity:0.5;" x="800.781078" xlink:href="#m83b65b7860" y="281.526844"/>
     <use style="fill:#ff0000;fill-opacity:0.5;stroke:#ff0000;stroke-opacity:0.5;" x="808.646884" xlink:href="#m83b65b7860" y="281.526851"/>
     <use style="fill:#ff0000;fill-opacity:0.5;stroke:#ff0000;stroke-opacity:0.5;" x="816.51269" xlink:href="#m83b65b7860" y="281.526857"/>
     <use style="fill:#ff0000;fill-opacity:0.5;stroke:#ff0000;stroke-opacity:0.5;" x="824.378496" xlink:href="#m83b65b7860" y="281.526862"/>
     <use style="fill:#ff0000;fill-opacity:0.5;stroke:#ff0000;stroke-opacity:0.5;" x="832.244302" xlink:href="#m83b65b7860" y="281.526866"/>
     <use style="fill:#ff0000;fill-opacity:0.5;stroke:#ff0000;stroke-opacity:0.5;" x="840.110108" xlink:href="#m83b65b7860" y="281.526869"/>
     <use style="fill:#ff0000;fill-opacity:0.5;stroke:#ff0000;stroke-opacity:0.5;" x="847.975914" xlink:href="#m83b65b7860" y="281.526872"/>
     <use style="fill:#ff0000;fill-opacity:0.5;stroke:#ff0000;stroke-opacity:0.5;" x="855.84172" xlink:href="#m83b65b7860" y="281.526874"/>
     <use style="fill:#ff0000;fill-opacity:0.5;stroke:#ff0000;stroke-opacity:0.5;" x="863.707526" xlink:href="#m83b65b7860" y="281.526875"/>
     <use style="fill:#ff0000;fill-opacity:0.5;stroke:#ff0000;stroke-opacity:0.5;" x="871.573332" xlink:href="#m83b65b7860" y="281.526877"/>
     <use style="fill:#ff0000;fill-opacity:0.5;stroke:#ff0000;stroke-opacity:0.5;" x="879.439138" xlink:href="#m83b65b7860" y="281.526878"/>
     <use style="fill:#ff0000;fill-opacity:0.5;stroke:#ff0000;stroke-opacity:0.5;" x="887.304944" xlink:href="#m83b65b7860" y="281.526879"/>
     <use style="fill:#ff0000;fill-opacity:0.5;stroke:#ff0000;stroke-opacity:0.5;" x="895.17075" xlink:href="#m83b65b7860" y="281.526879"/>
     <use style="fill:#ff0000;fill-opacity:0.5;stroke:#ff0000;stroke-opacity:0.5;" x="903.036556" xlink:href="#m83b65b7860" y="281.52688"/>
     <use style="fill:#ff0000;fill-opacity:0.5;stroke:#ff0000;stroke-opacity:0.5;" x="910.902362" xlink:href="#m83b65b7860" y="281.526881"/>
     <use style="fill:#ff0000;fill-opacity:0.5;stroke:#ff0000;stroke-opacity:0.5;" x="918.768168" xlink:href="#m83b65b7860" y="281.526881"/>
     <use style="fill:#ff0000;fill-opacity:0.5;stroke:#ff0000;stroke-opacity:0.5;" x="926.633974" xlink:href="#m83b65b7860" y="281.526881"/>
     <use style="fill:#ff0000;fill-opacity:0.5;stroke:#ff0000;stroke-opacity:0.5;" x="934.49978" xlink:href="#m83b65b7860" y="281.526881"/>
     <use style="fill:#ff0000;fill-opacity:0.5;stroke:#ff0000;stroke-opacity:0.5;" x="942.365586" xlink:href="#m83b65b7860" y="281.526882"/>
     <use style="fill:#ff0000;fill-opacity:0.5;stroke:#ff0000;stroke-opacity:0.5;" x="950.231392" xlink:href="#m83b65b7860" y="281.526882"/>
     <use style="fill:#ff0000;fill-opacity:0.5;stroke:#ff0000;stroke-opacity:0.5;" x="958.097198" xlink:href="#m83b65b7860" y="281.526882"/>
     <use style="fill:#ff0000;fill-opacity:0.5;stroke:#ff0000;stroke-opacity:0.5;" x="965.963004" xlink:href="#m83b65b7860" y="281.526882"/>
     <use style="fill:#ff0000;fill-opacity:0.5;stroke:#ff0000;stroke-opacity:0.5;" x="973.82881" xlink:href="#m83b65b7860" y="281.526882"/>
     <use style="fill:#ff0000;fill-opacity:0.5;stroke:#ff0000;stroke-opacity:0.5;" x="981.694616" xlink:href="#m83b65b7860" y="281.526882"/>
     <use style="fill:#ff0000;fill-opacity:0.5;stroke:#ff0000;stroke-opacity:0.5;" x="989.560422" xlink:href="#m83b65b7860" y="281.526882"/>
     <use style="fill:#ff0000;fill-opacity:0.5;stroke:#ff0000;stroke-opacity:0.5;" x="997.426228" xlink:href="#m83b65b7860" y="281.526882"/>
     <use style="fill:#ff0000;fill-opacity:0.5;stroke:#ff0000;stroke-opacity:0.5;" x="1005.292034" xlink:href="#m83b65b7860" y="281.526882"/>
     <use style="fill:#ff0000;fill-opacity:0.5;stroke:#ff0000;stroke-opacity:0.5;" x="1013.15784" xlink:href="#m83b65b7860" y="281.526882"/>
     <use style="fill:#ff0000;fill-opacity:0.5;stroke:#ff0000;stroke-opacity:0.5;" x="1021.023646" xlink:href="#m83b65b7860" y="281.526882"/>
     <use style="fill:#ff0000;fill-opacity:0.5;stroke:#ff0000;stroke-opacity:0.5;" x="1028.889452" xlink:href="#m83b65b7860" y="281.526882"/>
     <use style="fill:#ff0000;fill-opacity:0.5;stroke:#ff0000;stroke-opacity:0.5;" x="1036.755258" xlink:href="#m83b65b7860" y="281.526883"/>
     <use style="fill:#ff0000;fill-opacity:0.5;stroke:#ff0000;stroke-opacity:0.5;" x="1044.621064" xlink:href="#m83b65b7860" y="281.526883"/>
     <use style="fill:#ff0000;fill-opacity:0.5;stroke:#ff0000;stroke-opacity:0.5;" x="1052.48687" xlink:href="#m83b65b7860" y="281.526883"/>
     <use style="fill:#ff0000;fill-opacity:0.5;stroke:#ff0000;stroke-opacity:0.5;" x="1060.352676" xlink:href="#m83b65b7860" y="281.526883"/>
     <use style="fill:#ff0000;fill-opacity:0.5;stroke:#ff0000;stroke-opacity:0.5;" x="1068.218482" xlink:href="#m83b65b7860" y="281.526883"/>
     <use style="fill:#ff0000;fill-opacity:0.5;stroke:#ff0000;stroke-opacity:0.5;" x="1076.084288" xlink:href="#m83b65b7860" y="281.526883"/>
     <use style="fill:#ff0000;fill-opacity:0.5;stroke:#ff0000;stroke-opacity:0.5;" x="1083.950094" xlink:href="#m83b65b7860" y="281.526883"/>
     <use style="fill:#ff0000;fill-opacity:0.5;stroke:#ff0000;stroke-opacity:0.5;" x="1091.8159" xlink:href="#m83b65b7860" y="281.526883"/>
     <use style="fill:#ff0000;fill-opacity:0.5;stroke:#ff0000;stroke-opacity:0.5;" x="1099.681706" xlink:href="#m83b65b7860" y="281.526883"/>
     <use style="fill:#ff0000;fill-opacity:0.5;stroke:#ff0000;stroke-opacity:0.5;" x="1107.547512" xlink:href="#m83b65b7860" y="281.526883"/>
     <use style="fill:#ff0000;fill-opacity:0.5;stroke:#ff0000;stroke-opacity:0.5;" x="1115.413318" xlink:href="#m83b65b7860" y="281.526883"/>
     <use style="fill:#ff0000;fill-opacity:0.5;stroke:#ff0000;stroke-opacity:0.5;" x="1123.279124" xlink:href="#m83b65b7860" y="281.526883"/>
     <use style="fill:#ff0000;fill-opacity:0.5;stroke:#ff0000;stroke-opacity:0.5;" x="1131.14493" xlink:href="#m83b65b7860" y="281.526883"/>
     <use style="fill:#ff0000;fill-opacity:0.5;stroke:#ff0000;stroke-opacity:0.5;" x="1139.010736" xlink:href="#m83b65b7860" y="281.526883"/>
     <use style="fill:#ff0000;fill-opacity:0.5;stroke:#ff0000;stroke-opacity:0.5;" x="1146.876542" xlink:href="#m83b65b7860" y="281.526883"/>
     <use style="fill:#ff0000;fill-opacity:0.5;stroke:#ff0000;stroke-opacity:0.5;" x="1154.742348" xlink:href="#m83b65b7860" y="281.526883"/>
     <use style="fill:#ff0000;fill-opacity:0.5;stroke:#ff0000;stroke-opacity:0.5;" x="1162.608154" xlink:href="#m83b65b7860" y="281.526883"/>
     <use style="fill:#ff0000;fill-opacity:0.5;stroke:#ff0000;stroke-opacity:0.5;" x="1170.47396" xlink:href="#m83b65b7860" y="281.526883"/>
     <use style="fill:#ff0000;fill-opacity:0.5;stroke:#ff0000;stroke-opacity:0.5;" x="1178.339766" xlink:href="#m83b65b7860" y="281.526883"/>
     <use style="fill:#ff0000;fill-opacity:0.5;stroke:#ff0000;stroke-opacity:0.5;" x="1186.205572" xlink:href="#m83b65b7860" y="281.526883"/>
     <use style="fill:#ff0000;fill-opacity:0.5;stroke:#ff0000;stroke-opacity:0.5;" x="1194.071378" xlink:href="#m83b65b7860" y="281.526883"/>
     <use style="fill:#ff0000;fill-opacity:0.5;stroke:#ff0000;stroke-opacity:0.5;" x="1201.937184" xlink:href="#m83b65b7860" y="281.526883"/>
     <use style="fill:#ff0000;fill-opacity:0.5;stroke:#ff0000;stroke-opacity:0.5;" x="1209.80299" xlink:href="#m83b65b7860" y="281.526883"/>
     <use style="fill:#ff0000;fill-opacity:0.5;stroke:#ff0000;stroke-opacity:0.5;" x="1217.668796" xlink:href="#m83b65b7860" y="281.526883"/>
     <use style="fill:#ff0000;fill-opacity:0.5;stroke:#ff0000;stroke-opacity:0.5;" x="1225.534602" xlink:href="#m83b65b7860" y="281.526883"/>
     <use style="fill:#ff0000;fill-opacity:0.5;stroke:#ff0000;stroke-opacity:0.5;" x="1233.400408" xlink:href="#m83b65b7860" y="281.526883"/>
     <use style="fill:#ff0000;fill-opacity:0.5;stroke:#ff0000;stroke-opacity:0.5;" x="1241.266214" xlink:href="#m83b65b7860" y="281.526883"/>
     <use style="fill:#ff0000;fill-opacity:0.5;stroke:#ff0000;stroke-opacity:0.5;" x="1249.13202" xlink:href="#m83b65b7860" y="281.526883"/>
     <use style="fill:#ff0000;fill-opacity:0.5;stroke:#ff0000;stroke-opacity:0.5;" x="1256.997826" xlink:href="#m83b65b7860" y="281.526883"/>
     <use style="fill:#ff0000;fill-opacity:0.5;stroke:#ff0000;stroke-opacity:0.5;" x="1264.863632" xlink:href="#m83b65b7860" y="281.526883"/>
     <use style="fill:#ff0000;fill-opacity:0.5;stroke:#ff0000;stroke-opacity:0.5;" x="1272.729438" xlink:href="#m83b65b7860" y="281.526883"/>
     <use style="fill:#ff0000;fill-opacity:0.5;stroke:#ff0000;stroke-opacity:0.5;" x="1280.595244" xlink:href="#m83b65b7860" y="281.526883"/>
     <use style="fill:#ff0000;fill-opacity:0.5;stroke:#ff0000;stroke-opacity:0.5;" x="1288.46105" xlink:href="#m83b65b7860" y="281.526883"/>
     <use style="fill:#ff0000;fill-opacity:0.5;stroke:#ff0000;stroke-opacity:0.5;" x="1296.326856" xlink:href="#m83b65b7860" y="281.526883"/>
     <use style="fill:#ff0000;fill-opacity:0.5;stroke:#ff0000;stroke-opacity:0.5;" x="1304.192662" xlink:href="#m83b65b7860" y="281.526883"/>
     <use style="fill:#ff0000;fill-opacity:0.5;stroke:#ff0000;stroke-opacity:0.5;" x="1312.058468" xlink:href="#m83b65b7860" y="281.526883"/>
     <use style="fill:#ff0000;fill-opacity:0.5;stroke:#ff0000;stroke-opacity:0.5;" x="1319.924274" xlink:href="#m83b65b7860" y="281.526883"/>
     <use style="fill:#ff0000;fill-opacity:0.5;stroke:#ff0000;stroke-opacity:0.5;" x="1327.79008" xlink:href="#m83b65b7860" y="281.526883"/>
     <use style="fill:#ff0000;fill-opacity:0.5;stroke:#ff0000;stroke-opacity:0.5;" x="1335.655886" xlink:href="#m83b65b7860" y="281.526883"/>
     <use style="fill:#ff0000;fill-opacity:0.5;stroke:#ff0000;stroke-opacity:0.5;" x="1343.521692" xlink:href="#m83b65b7860" y="281.526883"/>
     <use style="fill:#ff0000;fill-opacity:0.5;stroke:#ff0000;stroke-opacity:0.5;" x="1351.387498" xlink:href="#m83b65b7860" y="281.526883"/>
     <use style="fill:#ff0000;fill-opacity:0.5;stroke:#ff0000;stroke-opacity:0.5;" x="1359.253304" xlink:href="#m83b65b7860" y="281.526883"/>
     <use style="fill:#ff0000;fill-opacity:0.5;stroke:#ff0000;stroke-opacity:0.5;" x="1367.11911" xlink:href="#m83b65b7860" y="281.526883"/>
     <use style="fill:#ff0000;fill-opacity:0.5;stroke:#ff0000;stroke-opacity:0.5;" x="1374.984916" xlink:href="#m83b65b7860" y="281.526883"/>
     <use style="fill:#ff0000;fill-opacity:0.5;stroke:#ff0000;stroke-opacity:0.5;" x="1382.850722" xlink:href="#m83b65b7860" y="281.526883"/>
     <use style="fill:#ff0000;fill-opacity:0.5;stroke:#ff0000;stroke-opacity:0.5;" x="1390.716528" xlink:href="#m83b65b7860" y="281.526883"/>
     <use style="fill:#ff0000;fill-opacity:0.5;stroke:#ff0000;stroke-opacity:0.5;" x="1398.582334" xlink:href="#m83b65b7860" y="281.526883"/>
     <use style="fill:#ff0000;fill-opacity:0.5;stroke:#ff0000;stroke-opacity:0.5;" x="1406.44814" xlink:href="#m83b65b7860" y="281.526883"/>
     <use style="fill:#ff0000;fill-opacity:0.5;stroke:#ff0000;stroke-opacity:0.5;" x="1414.313946" xlink:href="#m83b65b7860" y="281.526883"/>
     <use style="fill:#ff0000;fill-opacity:0.5;stroke:#ff0000;stroke-opacity:0.5;" x="1422.179752" xlink:href="#m83b65b7860" y="281.526883"/>
     <use style="fill:#ff0000;fill-opacity:0.5;stroke:#ff0000;stroke-opacity:0.5;" x="1430.045558" xlink:href="#m83b65b7860" y="281.526883"/>
     <use style="fill:#ff0000;fill-opacity:0.5;stroke:#ff0000;stroke-opacity:0.5;" x="1437.911364" xlink:href="#m83b65b7860" y="281.526883"/>
     <use style="fill:#ff0000;fill-opacity:0.5;stroke:#ff0000;stroke-opacity:0.5;" x="1445.77717" xlink:href="#m83b65b7860" y="281.526883"/>
     <use style="fill:#ff0000;fill-opacity:0.5;stroke:#ff0000;stroke-opacity:0.5;" x="1453.642976" xlink:href="#m83b65b7860" y="281.526883"/>
     <use style="fill:#ff0000;fill-opacity:0.5;stroke:#ff0000;stroke-opacity:0.5;" x="1461.508782" xlink:href="#m83b65b7860" y="281.526883"/>
     <use style="fill:#ff0000;fill-opacity:0.5;stroke:#ff0000;stroke-opacity:0.5;" x="1469.374588" xlink:href="#m83b65b7860" y="281.526883"/>
     <use style="fill:#ff0000;fill-opacity:0.5;stroke:#ff0000;stroke-opacity:0.5;" x="1477.240394" xlink:href="#m83b65b7860" y="281.526883"/>
     <use style="fill:#ff0000;fill-opacity:0.5;stroke:#ff0000;stroke-opacity:0.5;" x="1485.1062" xlink:href="#m83b65b7860" y="281.526883"/>
     <use style="fill:#ff0000;fill-opacity:0.5;stroke:#ff0000;stroke-opacity:0.5;" x="1492.972006" xlink:href="#m83b65b7860" y="281.526883"/>
     <use style="fill:#ff0000;fill-opacity:0.5;stroke:#ff0000;stroke-opacity:0.5;" x="1500.837812" xlink:href="#m83b65b7860" y="281.526883"/>
     <use style="fill:#ff0000;fill-opacity:0.5;stroke:#ff0000;stroke-opacity:0.5;" x="1508.703618" xlink:href="#m83b65b7860" y="281.526883"/>
     <use style="fill:#ff0000;fill-opacity:0.5;stroke:#ff0000;stroke-opacity:0.5;" x="1516.569424" xlink:href="#m83b65b7860" y="281.526883"/>
     <use style="fill:#ff0000;fill-opacity:0.5;stroke:#ff0000;stroke-opacity:0.5;" x="1524.43523" xlink:href="#m83b65b7860" y="281.526883"/>
     <use style="fill:#ff0000;fill-opacity:0.5;stroke:#ff0000;stroke-opacity:0.5;" x="1532.301036" xlink:href="#m83b65b7860" y="281.526883"/>
     <use style="fill:#ff0000;fill-opacity:0.5;stroke:#ff0000;stroke-opacity:0.5;" x="1540.166842" xlink:href="#m83b65b7860" y="281.526883"/>
     <use style="fill:#ff0000;fill-opacity:0.5;stroke:#ff0000;stroke-opacity:0.5;" x="1548.032648" xlink:href="#m83b65b7860" y="281.526883"/>
     <use style="fill:#ff0000;fill-opacity:0.5;stroke:#ff0000;stroke-opacity:0.5;" x="1555.898454" xlink:href="#m83b65b7860" y="281.526883"/>
     <use style="fill:#ff0000;fill-opacity:0.5;stroke:#ff0000;stroke-opacity:0.5;" x="1563.76426" xlink:href="#m83b65b7860" y="281.526883"/>
     <use style="fill:#ff0000;fill-opacity:0.5;stroke:#ff0000;stroke-opacity:0.5;" x="1571.630066" xlink:href="#m83b65b7860" y="281.526883"/>
     <use style="fill:#ff0000;fill-opacity:0.5;stroke:#ff0000;stroke-opacity:0.5;" x="1579.495872" xlink:href="#m83b65b7860" y="281.526883"/>
     <use style="fill:#ff0000;fill-opacity:0.5;stroke:#ff0000;stroke-opacity:0.5;" x="1587.361678" xlink:href="#m83b65b7860" y="281.526883"/>
     <use style="fill:#ff0000;fill-opacity:0.5;stroke:#ff0000;stroke-opacity:0.5;" x="1595.227484" xlink:href="#m83b65b7860" y="281.526883"/>
     <use style="fill:#ff0000;fill-opacity:0.5;stroke:#ff0000;stroke-opacity:0.5;" x="1603.09329" xlink:href="#m83b65b7860" y="281.526883"/>
     <use style="fill:#ff0000;fill-opacity:0.5;stroke:#ff0000;stroke-opacity:0.5;" x="1610.959096" xlink:href="#m83b65b7860" y="281.526883"/>
     <use style="fill:#ff0000;fill-opacity:0.5;stroke:#ff0000;stroke-opacity:0.5;" x="1618.824902" xlink:href="#m83b65b7860" y="281.526883"/>
     <use style="fill:#ff0000;fill-opacity:0.5;stroke:#ff0000;stroke-opacity:0.5;" x="1626.690708" xlink:href="#m83b65b7860" y="281.526883"/>
     <use style="fill:#ff0000;fill-opacity:0.5;stroke:#ff0000;stroke-opacity:0.5;" x="1634.556514" xlink:href="#m83b65b7860" y="281.526883"/>
     <use style="fill:#ff0000;fill-opacity:0.5;stroke:#ff0000;stroke-opacity:0.5;" x="1642.42232" xlink:href="#m83b65b7860" y="281.526883"/>
     <use style="fill:#ff0000;fill-opacity:0.5;stroke:#ff0000;stroke-opacity:0.5;" x="1650.288126" xlink:href="#m83b65b7860" y="281.526883"/>
     <use style="fill:#ff0000;fill-opacity:0.5;stroke:#ff0000;stroke-opacity:0.5;" x="1658.153932" xlink:href="#m83b65b7860" y="281.526883"/>
     <use style="fill:#ff0000;fill-opacity:0.5;stroke:#ff0000;stroke-opacity:0.5;" x="1666.019738" xlink:href="#m83b65b7860" y="281.526883"/>
     <use style="fill:#ff0000;fill-opacity:0.5;stroke:#ff0000;stroke-opacity:0.5;" x="1673.885544" xlink:href="#m83b65b7860" y="281.526883"/>
     <use style="fill:#ff0000;fill-opacity:0.5;stroke:#ff0000;stroke-opacity:0.5;" x="1681.75135" xlink:href="#m83b65b7860" y="281.526883"/>
     <use style="fill:#ff0000;fill-opacity:0.5;stroke:#ff0000;stroke-opacity:0.5;" x="1689.617156" xlink:href="#m83b65b7860" y="281.526883"/>
     <use style="fill:#ff0000;fill-opacity:0.5;stroke:#ff0000;stroke-opacity:0.5;" x="1697.482962" xlink:href="#m83b65b7860" y="281.526883"/>
     <use style="fill:#ff0000;fill-opacity:0.5;stroke:#ff0000;stroke-opacity:0.5;" x="1705.348768" xlink:href="#m83b65b7860" y="281.526883"/>
     <use style="fill:#ff0000;fill-opacity:0.5;stroke:#ff0000;stroke-opacity:0.5;" x="1713.214574" xlink:href="#m83b65b7860" y="281.526883"/>
     <use style="fill:#ff0000;fill-opacity:0.5;stroke:#ff0000;stroke-opacity:0.5;" x="1721.08038" xlink:href="#m83b65b7860" y="281.526883"/>
     <use style="fill:#ff0000;fill-opacity:0.5;stroke:#ff0000;stroke-opacity:0.5;" x="1728.946186" xlink:href="#m83b65b7860" y="281.526883"/>
     <use style="fill:#ff0000;fill-opacity:0.5;stroke:#ff0000;stroke-opacity:0.5;" x="1736.811992" xlink:href="#m83b65b7860" y="281.526883"/>
     <use style="fill:#ff0000;fill-opacity:0.5;stroke:#ff0000;stroke-opacity:0.5;" x="1744.677798" xlink:href="#m83b65b7860" y="281.526883"/>
     <use style="fill:#ff0000;fill-opacity:0.5;stroke:#ff0000;stroke-opacity:0.5;" x="1752.543604" xlink:href="#m83b65b7860" y="281.526883"/>
     <use style="fill:#ff0000;fill-opacity:0.5;stroke:#ff0000;stroke-opacity:0.5;" x="1760.40941" xlink:href="#m83b65b7860" y="281.526883"/>
     <use style="fill:#ff0000;fill-opacity:0.5;stroke:#ff0000;stroke-opacity:0.5;" x="1768.275216" xlink:href="#m83b65b7860" y="281.526883"/>
     <use style="fill:#ff0000;fill-opacity:0.5;stroke:#ff0000;stroke-opacity:0.5;" x="1776.141022" xlink:href="#m83b65b7860" y="281.526883"/>
     <use style="fill:#ff0000;fill-opacity:0.5;stroke:#ff0000;stroke-opacity:0.5;" x="1784.006828" xlink:href="#m83b65b7860" y="281.526883"/>
     <use style="fill:#ff0000;fill-opacity:0.5;stroke:#ff0000;stroke-opacity:0.5;" x="1791.872634" xlink:href="#m83b65b7860" y="281.526883"/>
     <use style="fill:#ff0000;fill-opacity:0.5;stroke:#ff0000;stroke-opacity:0.5;" x="1799.73844" xlink:href="#m83b65b7860" y="281.526883"/>
     <use style="fill:#ff0000;fill-opacity:0.5;stroke:#ff0000;stroke-opacity:0.5;" x="1807.604246" xlink:href="#m83b65b7860" y="281.526883"/>
     <use style="fill:#ff0000;fill-opacity:0.5;stroke:#ff0000;stroke-opacity:0.5;" x="1815.470052" xlink:href="#m83b65b7860" y="281.526883"/>
     <use style="fill:#ff0000;fill-opacity:0.5;stroke:#ff0000;stroke-opacity:0.5;" x="1823.335858" xlink:href="#m83b65b7860" y="281.526883"/>
     <use style="fill:#ff0000;fill-opacity:0.5;stroke:#ff0000;stroke-opacity:0.5;" x="1831.201664" xlink:href="#m83b65b7860" y="281.526883"/>
     <use style="fill:#ff0000;fill-opacity:0.5;stroke:#ff0000;stroke-opacity:0.5;" x="1839.06747" xlink:href="#m83b65b7860" y="281.526883"/>
     <use style="fill:#ff0000;fill-opacity:0.5;stroke:#ff0000;stroke-opacity:0.5;" x="1846.933276" xlink:href="#m83b65b7860" y="281.526883"/>
     <use style="fill:#ff0000;fill-opacity:0.5;stroke:#ff0000;stroke-opacity:0.5;" x="1854.799082" xlink:href="#m83b65b7860" y="281.526883"/>
     <use style="fill:#ff0000;fill-opacity:0.5;stroke:#ff0000;stroke-opacity:0.5;" x="1862.664888" xlink:href="#m83b65b7860" y="281.526883"/>
     <use style="fill:#ff0000;fill-opacity:0.5;stroke:#ff0000;stroke-opacity:0.5;" x="1870.530694" xlink:href="#m83b65b7860" y="281.526883"/>
     <use style="fill:#ff0000;fill-opacity:0.5;stroke:#ff0000;stroke-opacity:0.5;" x="1878.3965" xlink:href="#m83b65b7860" y="281.526883"/>
     <use style="fill:#ff0000;fill-opacity:0.5;stroke:#ff0000;stroke-opacity:0.5;" x="1886.262306" xlink:href="#m83b65b7860" y="281.526883"/>
     <use style="fill:#ff0000;fill-opacity:0.5;stroke:#ff0000;stroke-opacity:0.5;" x="1894.128112" xlink:href="#m83b65b7860" y="281.526883"/>
     <use style="fill:#ff0000;fill-opacity:0.5;stroke:#ff0000;stroke-opacity:0.5;" x="1901.993918" xlink:href="#m83b65b7860" y="281.526883"/>
     <use style="fill:#ff0000;fill-opacity:0.5;stroke:#ff0000;stroke-opacity:0.5;" x="1909.859724" xlink:href="#m83b65b7860" y="281.526883"/>
     <use style="fill:#ff0000;fill-opacity:0.5;stroke:#ff0000;stroke-opacity:0.5;" x="1917.72553" xlink:href="#m83b65b7860" y="281.526883"/>
     <use style="fill:#ff0000;fill-opacity:0.5;stroke:#ff0000;stroke-opacity:0.5;" x="1925.591336" xlink:href="#m83b65b7860" y="281.526883"/>
     <use style="fill:#ff0000;fill-opacity:0.5;stroke:#ff0000;stroke-opacity:0.5;" x="1933.457142" xlink:href="#m83b65b7860" y="281.526883"/>
     <use style="fill:#ff0000;fill-opacity:0.5;stroke:#ff0000;stroke-opacity:0.5;" x="1941.322948" xlink:href="#m83b65b7860" y="281.526883"/>
     <use style="fill:#ff0000;fill-opacity:0.5;stroke:#ff0000;stroke-opacity:0.5;" x="1949.188754" xlink:href="#m83b65b7860" y="281.526883"/>
     <use style="fill:#ff0000;fill-opacity:0.5;stroke:#ff0000;stroke-opacity:0.5;" x="1957.05456" xlink:href="#m83b65b7860" y="281.526883"/>
     <use style="fill:#ff0000;fill-opacity:0.5;stroke:#ff0000;stroke-opacity:0.5;" x="1964.920366" xlink:href="#m83b65b7860" y="281.526883"/>
     <use style="fill:#ff0000;fill-opacity:0.5;stroke:#ff0000;stroke-opacity:0.5;" x="1972.786172" xlink:href="#m83b65b7860" y="281.526883"/>
     <use style="fill:#ff0000;fill-opacity:0.5;stroke:#ff0000;stroke-opacity:0.5;" x="1980.651978" xlink:href="#m83b65b7860" y="281.526883"/>
     <use style="fill:#ff0000;fill-opacity:0.5;stroke:#ff0000;stroke-opacity:0.5;" x="1988.517784" xlink:href="#m83b65b7860" y="281.526883"/>
     <use style="fill:#ff0000;fill-opacity:0.5;stroke:#ff0000;stroke-opacity:0.5;" x="1996.38359" xlink:href="#m83b65b7860" y="281.526883"/>
     <use style="fill:#ff0000;fill-opacity:0.5;stroke:#ff0000;stroke-opacity:0.5;" x="2004.249396" xlink:href="#m83b65b7860" y="281.526883"/>
     <use style="fill:#ff0000;fill-opacity:0.5;stroke:#ff0000;stroke-opacity:0.5;" x="2012.115202" xlink:href="#m83b65b7860" y="281.526883"/>
     <use style="fill:#ff0000;fill-opacity:0.5;stroke:#ff0000;stroke-opacity:0.5;" x="2019.981008" xlink:href="#m83b65b7860" y="281.526883"/>
     <use style="fill:#ff0000;fill-opacity:0.5;stroke:#ff0000;stroke-opacity:0.5;" x="2027.846814" xlink:href="#m83b65b7860" y="281.526883"/>
     <use style="fill:#ff0000;fill-opacity:0.5;stroke:#ff0000;stroke-opacity:0.5;" x="2035.71262" xlink:href="#m83b65b7860" y="281.526883"/>
     <use style="fill:#ff0000;fill-opacity:0.5;stroke:#ff0000;stroke-opacity:0.5;" x="2043.578426" xlink:href="#m83b65b7860" y="281.526883"/>
     <use style="fill:#ff0000;fill-opacity:0.5;stroke:#ff0000;stroke-opacity:0.5;" x="2051.444232" xlink:href="#m83b65b7860" y="281.526883"/>
     <use style="fill:#ff0000;fill-opacity:0.5;stroke:#ff0000;stroke-opacity:0.5;" x="2059.310038" xlink:href="#m83b65b7860" y="281.526883"/>
     <use style="fill:#ff0000;fill-opacity:0.5;stroke:#ff0000;stroke-opacity:0.5;" x="2067.175844" xlink:href="#m83b65b7860" y="281.526883"/>
     <use style="fill:#ff0000;fill-opacity:0.5;stroke:#ff0000;stroke-opacity:0.5;" x="2075.04165" xlink:href="#m83b65b7860" y="281.526883"/>
     <use style="fill:#ff0000;fill-opacity:0.5;stroke:#ff0000;stroke-opacity:0.5;" x="2082.907456" xlink:href="#m83b65b7860" y="281.526883"/>
     <use style="fill:#ff0000;fill-opacity:0.5;stroke:#ff0000;stroke-opacity:0.5;" x="2090.773262" xlink:href="#m83b65b7860" y="281.526883"/>
     <use style="fill:#ff0000;fill-opacity:0.5;stroke:#ff0000;stroke-opacity:0.5;" x="2098.639068" xlink:href="#m83b65b7860" y="281.526883"/>
     <use style="fill:#ff0000;fill-opacity:0.5;stroke:#ff0000;stroke-opacity:0.5;" x="2106.504874" xlink:href="#m83b65b7860" y="281.526883"/>
     <use style="fill:#ff0000;fill-opacity:0.5;stroke:#ff0000;stroke-opacity:0.5;" x="2114.37068" xlink:href="#m83b65b7860" y="281.526883"/>
     <use style="fill:#ff0000;fill-opacity:0.5;stroke:#ff0000;stroke-opacity:0.5;" x="2122.236486" xlink:href="#m83b65b7860" y="281.526883"/>
     <use style="fill:#ff0000;fill-opacity:0.5;stroke:#ff0000;stroke-opacity:0.5;" x="2130.102292" xlink:href="#m83b65b7860" y="281.526883"/>
     <use style="fill:#ff0000;fill-opacity:0.5;stroke:#ff0000;stroke-opacity:0.5;" x="2137.968098" xlink:href="#m83b65b7860" y="281.526883"/>
     <use style="fill:#ff0000;fill-opacity:0.5;stroke:#ff0000;stroke-opacity:0.5;" x="2145.833904" xlink:href="#m83b65b7860" y="281.526883"/>
     <use style="fill:#ff0000;fill-opacity:0.5;stroke:#ff0000;stroke-opacity:0.5;" x="2153.69971" xlink:href="#m83b65b7860" y="281.526883"/>
     <use style="fill:#ff0000;fill-opacity:0.5;stroke:#ff0000;stroke-opacity:0.5;" x="2161.565516" xlink:href="#m83b65b7860" y="281.526883"/>
     <use style="fill:#ff0000;fill-opacity:0.5;stroke:#ff0000;stroke-opacity:0.5;" x="2169.431322" xlink:href="#m83b65b7860" y="281.526883"/>
     <use style="fill:#ff0000;fill-opacity:0.5;stroke:#ff0000;stroke-opacity:0.5;" x="2177.297128" xlink:href="#m83b65b7860" y="281.526883"/>
     <use style="fill:#ff0000;fill-opacity:0.5;stroke:#ff0000;stroke-opacity:0.5;" x="2185.162934" xlink:href="#m83b65b7860" y="281.526883"/>
     <use style="fill:#ff0000;fill-opacity:0.5;stroke:#ff0000;stroke-opacity:0.5;" x="2193.02874" xlink:href="#m83b65b7860" y="281.526883"/>
     <use style="fill:#ff0000;fill-opacity:0.5;stroke:#ff0000;stroke-opacity:0.5;" x="2200.894546" xlink:href="#m83b65b7860" y="281.526883"/>
     <use style="fill:#ff0000;fill-opacity:0.5;stroke:#ff0000;stroke-opacity:0.5;" x="2208.760352" xlink:href="#m83b65b7860" y="281.526883"/>
     <use style="fill:#ff0000;fill-opacity:0.5;stroke:#ff0000;stroke-opacity:0.5;" x="2216.626158" xlink:href="#m83b65b7860" y="281.526883"/>
     <use style="fill:#ff0000;fill-opacity:0.5;stroke:#ff0000;stroke-opacity:0.5;" x="2224.491964" xlink:href="#m83b65b7860" y="281.526883"/>
    </g>
   </g>
   <g id="patch_3">
    <path d="M 63.55625 293.472083 
L 63.55625 30.677667 
" style="fill:none;stroke:#bcbcbc;stroke-linecap:square;stroke-linejoin:miter;stroke-width:0.8;"/>
   </g>
   <g id="patch_4">
    <path d="M 441.72 293.472083 
L 441.72 30.677667 
" style="fill:none;stroke:#bcbcbc;stroke-linecap:square;stroke-linejoin:miter;stroke-width:0.8;"/>
   </g>
   <g id="patch_5">
    <path d="M 63.55625 293.472083 
L 441.72 293.472083 
" style="fill:none;stroke:#bcbcbc;stroke-linecap:square;stroke-linejoin:miter;stroke-width:0.8;"/>
   </g>
   <g id="patch_6">
    <path d="M 63.55625 30.677667 
L 441.72 30.677667 
" style="fill:none;stroke:#bcbcbc;stroke-linecap:square;stroke-linejoin:miter;stroke-width:0.8;"/>
   </g>
   <g id="text_21">
    <!-- $^{100}$Mo($\gamma$,n)$^{99}$Mo -->
    <defs>
     <path d="M 9.28125 0 
L 9.28125 3.515625 
Q 21.78125 3.515625 21.78125 6.6875 
L 21.78125 59.1875 
Q 16.609375 56.6875 8.6875 56.6875 
L 8.6875 60.203125 
Q 20.953125 60.203125 27.203125 66.609375 
L 28.609375 66.609375 
Q 28.953125 66.609375 29.265625 66.328125 
Q 29.59375 66.0625 29.59375 65.71875 
L 29.59375 6.6875 
Q 29.59375 3.515625 42.09375 3.515625 
L 42.09375 0 
z
" id="Cmr10-49"/>
     <path d="M 25 -2.203125 
Q 12.75 -2.203125 8.328125 7.875 
Q 3.90625 17.96875 3.90625 31.890625 
Q 3.90625 40.578125 5.484375 48.234375 
Q 7.078125 55.90625 11.78125 61.25 
Q 16.5 66.609375 25 66.609375 
Q 31.59375 66.609375 35.78125 63.375 
Q 39.984375 60.15625 42.1875 55.046875 
Q 44.390625 49.953125 45.1875 44.109375 
Q 46 38.28125 46 31.890625 
Q 46 23.296875 44.40625 15.796875 
Q 42.828125 8.296875 38.1875 3.046875 
Q 33.546875 -2.203125 25 -2.203125 
z
M 25 0.390625 
Q 30.5625 0.390625 33.296875 6.09375 
Q 36.03125 11.8125 36.671875 18.75 
Q 37.3125 25.6875 37.3125 33.5 
Q 37.3125 41.015625 36.671875 47.359375 
Q 36.03125 53.71875 33.3125 58.859375 
Q 30.609375 64.015625 25 64.015625 
Q 19.34375 64.015625 16.609375 58.828125 
Q 13.875 53.65625 13.234375 47.328125 
Q 12.59375 41.015625 12.59375 33.5 
Q 12.59375 27.9375 12.859375 23 
Q 13.140625 18.0625 14.3125 12.8125 
Q 15.484375 7.5625 18.09375 3.96875 
Q 20.703125 0.390625 25 0.390625 
z
" id="Cmr10-48"/>
     <path d="M 7.421875 0 
L 7.421875 71.578125 
L 21.6875 71.578125 
L 38.625 20.90625 
Q 40.96875 13.8125 42.046875 10.296875 
Q 43.265625 14.203125 45.84375 21.78125 
L 62.984375 71.578125 
L 75.734375 71.578125 
L 75.734375 0 
L 66.609375 0 
L 66.609375 59.90625 
L 45.796875 0 
L 37.25 0 
L 16.546875 60.9375 
L 16.546875 0 
z
" id="ArialMT-77"/>
     <path d="M 29.5 -19.578125 
Q 29.5 -17.328125 30.5 -13.03125 
Q 31.5 -8.734375 32.9375 -3.875 
Q 34.375 0.984375 35.40625 4.109375 
Q 35.796875 9.078125 35.796875 11.625 
Q 35.796875 18.0625 34.515625 23.609375 
Q 33.25 29.15625 29.734375 32.890625 
Q 26.21875 36.625 19.921875 36.625 
Q 16.609375 36.625 13.3125 35.203125 
Q 10.015625 33.796875 7.640625 31.25 
Q 5.28125 28.71875 4.390625 25.484375 
Q 4.203125 24.90625 3.609375 24.90625 
L 2.390625 24.90625 
Q 1.609375 24.90625 1.609375 25.78125 
L 1.609375 26.125 
Q 2.734375 30.609375 5.59375 34.78125 
Q 8.453125 38.96875 12.578125 41.578125 
Q 16.703125 44.1875 21.296875 44.1875 
Q 25.984375 44.1875 29.390625 41.015625 
Q 32.8125 37.84375 34.859375 32.953125 
Q 36.921875 28.078125 37.8125 23.09375 
Q 38.71875 18.109375 38.71875 13.71875 
Q 43.75 27.390625 50 39.59375 
L 51.515625 42.828125 
Q 51.8125 43.109375 52.203125 43.109375 
L 53.421875 43.109375 
Q 54.203125 43.109375 54.203125 42.1875 
Q 54.203125 42 54 41.609375 
L 52.484375 38.484375 
Q 48.140625 29.828125 44.5 20.9375 
Q 40.875 12.0625 38.28125 3.8125 
Q 37.890625 0.4375 36.78125 -5.421875 
Q 35.6875 -11.28125 34.125 -16.328125 
Q 32.5625 -21.390625 31 -21.578125 
Q 29.5 -21.578125 29.5 -19.578125 
z
" id="Cmmi10-176"/>
     <path d="M 8.890625 0 
L 8.890625 10.015625 
L 18.890625 10.015625 
L 18.890625 0 
Q 18.890625 -5.515625 16.9375 -8.90625 
Q 14.984375 -12.3125 10.75 -14.15625 
L 8.296875 -10.40625 
Q 11.078125 -9.1875 12.390625 -6.8125 
Q 13.71875 -4.4375 13.875 0 
z
" id="ArialMT-44"/>
     <path d="M 11.28125 4.203125 
Q 14.015625 0.984375 20.796875 0.984375 
Q 24.609375 0.984375 27.90625 3.5625 
Q 31.203125 6.15625 33.015625 9.90625 
Q 35.109375 14.15625 35.6875 18.96875 
Q 36.28125 23.78125 36.28125 30.90625 
Q 34.578125 26.859375 31.375 24.265625 
Q 28.171875 21.6875 24.03125 21.6875 
Q 18.21875 21.6875 13.640625 24.828125 
Q 9.078125 27.984375 6.640625 33.125 
Q 4.203125 38.28125 4.203125 44.09375 
Q 4.203125 50.09375 6.9375 55.296875 
Q 9.671875 60.5 14.5 63.546875 
Q 19.34375 66.609375 25.484375 66.609375 
Q 31.546875 66.609375 35.625 63.3125 
Q 39.703125 60.015625 41.84375 54.8125 
Q 44 49.609375 44.84375 43.796875 
Q 45.703125 37.984375 45.703125 32.328125 
Q 45.703125 24.609375 42.875 16.578125 
Q 40.046875 8.546875 34.40625 3.171875 
Q 28.765625 -2.203125 20.796875 -2.203125 
Q 14.890625 -2.203125 10.78125 0.578125 
Q 6.6875 3.375 6.6875 8.984375 
Q 6.6875 11.03125 8.078125 12.421875 
Q 9.46875 13.8125 11.53125 13.8125 
Q 13.53125 13.8125 14.921875 12.421875 
Q 16.3125 11.03125 16.3125 8.984375 
Q 16.3125 7.03125 14.890625 5.609375 
Q 13.484375 4.203125 11.53125 4.203125 
z
M 24.421875 24.3125 
Q 28.515625 24.3125 31.125 27.0625 
Q 33.734375 29.828125 34.90625 33.921875 
Q 36.078125 38.03125 36.078125 42.09375 
L 36.078125 44 
L 36.078125 44.390625 
Q 36.078125 51.90625 33.875 57.8125 
Q 31.6875 63.71875 25.484375 63.71875 
Q 21.53125 63.71875 19.0625 61.984375 
Q 16.609375 60.25 15.4375 57.375 
Q 14.265625 54.5 13.9375 51.21875 
Q 13.625 47.953125 13.625 44.09375 
Q 13.625 38.421875 14.15625 34.421875 
Q 14.703125 30.421875 17.09375 27.359375 
Q 19.484375 24.3125 24.421875 24.3125 
z
" id="Cmr10-57"/>
    </defs>
    <g transform="translate(203.894125 24.677667)scale(0.144 -0.144)">
     <use transform="translate(4.464141 38.373438)scale(0.7)" xlink:href="#Cmr10-49"/>
     <use transform="translate(39.464141 38.373438)scale(0.7)" xlink:href="#Cmr10-48"/>
     <use transform="translate(74.464141 38.373438)scale(0.7)" xlink:href="#Cmr10-48"/>
     <use transform="translate(115.841484 0.109375)" xlink:href="#ArialMT-77"/>
     <use transform="translate(199.142266 0.109375)" xlink:href="#ArialMT-111"/>
     <use transform="translate(254.7575 0.109375)" xlink:href="#ArialMT-40"/>
     <use transform="translate(288.058281 0.109375)" xlink:href="#Cmmi10-176"/>
     <use transform="translate(339.767266 0.109375)" xlink:href="#ArialMT-44"/>
     <use transform="translate(367.550469 0.109375)" xlink:href="#ArialMT-110"/>
     <use transform="translate(423.165703 0.109375)" xlink:href="#ArialMT-41"/>
     <use transform="translate(460.930625 38.373438)scale(0.7)" xlink:href="#Cmr10-57"/>
     <use transform="translate(495.930625 38.373438)scale(0.7)" xlink:href="#Cmr10-57"/>
     <use transform="translate(537.307969 0.109375)" xlink:href="#ArialMT-77"/>
     <use transform="translate(620.60875 0.109375)" xlink:href="#ArialMT-111"/>
    </g>
   </g>
   <g id="legend_1">
    <g id="patch_7">
     <path d="M 346.57625 66.968292 
L 434.72 66.968292 
Q 436.72 66.968292 436.72 64.968292 
L 436.72 37.677667 
Q 436.72 35.677667 434.72 35.677667 
L 346.57625 35.677667 
Q 344.57625 35.677667 344.57625 37.677667 
L 344.57625 64.968292 
Q 344.57625 66.968292 346.57625 66.968292 
z
" style="fill:#eeeeee;opacity:0.8;stroke:#cccccc;stroke-linejoin:miter;stroke-width:0.5;"/>
    </g>
    <g id="line2d_53"/>
    <g id="line2d_54">
     <g>
      <use style="fill:#0000ff;fill-opacity:0.5;stroke:#0000ff;stroke-opacity:0.5;" x="358.57625" xlink:href="#m3bab4e4645" y="43.335479"/>
     </g>
    </g>
    <g id="text_22">
     <!-- Beil 1974 -->
     <defs>
      <path d="M 7.328125 0 
L 7.328125 71.578125 
L 34.1875 71.578125 
Q 42.390625 71.578125 47.34375 69.40625 
Q 52.296875 67.234375 55.09375 62.71875 
Q 57.90625 58.203125 57.90625 53.265625 
Q 57.90625 48.6875 55.421875 44.625 
Q 52.9375 40.578125 47.90625 38.09375 
Q 54.390625 36.1875 57.875 31.59375 
Q 61.375 27 61.375 20.75 
Q 61.375 15.71875 59.25 11.390625 
Q 57.125 7.078125 54 4.734375 
Q 50.875 2.390625 46.15625 1.1875 
Q 41.453125 0 34.625 0 
z
M 16.796875 41.5 
L 32.28125 41.5 
Q 38.578125 41.5 41.3125 42.328125 
Q 44.921875 43.40625 46.75 45.890625 
Q 48.578125 48.390625 48.578125 52.15625 
Q 48.578125 55.71875 46.875 58.421875 
Q 45.171875 61.140625 41.984375 62.140625 
Q 38.8125 63.140625 31.109375 63.140625 
L 16.796875 63.140625 
z
M 16.796875 8.453125 
L 34.625 8.453125 
Q 39.203125 8.453125 41.0625 8.796875 
Q 44.34375 9.375 46.53125 10.734375 
Q 48.734375 12.109375 50.140625 14.71875 
Q 51.5625 17.328125 51.5625 20.75 
Q 51.5625 24.75 49.515625 27.703125 
Q 47.46875 30.671875 43.828125 31.859375 
Q 40.1875 33.0625 33.34375 33.0625 
L 16.796875 33.0625 
z
" id="ArialMT-66"/>
      <path d="M 6.390625 0 
L 6.390625 71.578125 
L 15.1875 71.578125 
L 15.1875 0 
z
" id="ArialMT-108"/>
      <path d="M 5.46875 16.546875 
L 13.921875 17.328125 
Q 14.984375 11.375 18.015625 8.6875 
Q 21.046875 6 25.78125 6 
Q 29.828125 6 32.875 7.859375 
Q 35.9375 9.71875 37.890625 12.8125 
Q 39.84375 15.921875 41.15625 21.1875 
Q 42.484375 26.46875 42.484375 31.9375 
Q 42.484375 32.515625 42.4375 33.6875 
Q 39.796875 29.5 35.234375 26.875 
Q 30.671875 24.265625 25.34375 24.265625 
Q 16.453125 24.265625 10.296875 30.703125 
Q 4.15625 37.15625 4.15625 47.703125 
Q 4.15625 58.59375 10.578125 65.234375 
Q 17 71.875 26.65625 71.875 
Q 33.640625 71.875 39.421875 68.109375 
Q 45.21875 64.359375 48.21875 57.390625 
Q 51.21875 50.4375 51.21875 37.25 
Q 51.21875 23.53125 48.234375 15.40625 
Q 45.265625 7.28125 39.375 3.03125 
Q 33.5 -1.21875 25.59375 -1.21875 
Q 17.1875 -1.21875 11.859375 3.4375 
Q 6.546875 8.109375 5.46875 16.546875 
z
M 41.453125 48.140625 
Q 41.453125 55.71875 37.421875 60.15625 
Q 33.40625 64.59375 27.734375 64.59375 
Q 21.875 64.59375 17.53125 59.8125 
Q 13.1875 55.03125 13.1875 47.40625 
Q 13.1875 40.578125 17.3125 36.296875 
Q 21.4375 32.03125 27.484375 32.03125 
Q 33.59375 32.03125 37.515625 36.296875 
Q 41.453125 40.578125 41.453125 48.140625 
z
" id="ArialMT-57"/>
     </defs>
     <g transform="translate(376.57625 46.835479)scale(0.1 -0.1)">
      <use xlink:href="#ArialMT-66"/>
      <use x="66.699219" xlink:href="#ArialMT-101"/>
      <use x="122.314453" xlink:href="#ArialMT-105"/>
      <use x="144.53125" xlink:href="#ArialMT-108"/>
      <use x="166.748047" xlink:href="#ArialMT-32"/>
      <use x="194.53125" xlink:href="#ArialMT-49"/>
      <use x="250.146484" xlink:href="#ArialMT-57"/>
      <use x="305.761719" xlink:href="#ArialMT-55"/>
      <use x="361.376953" xlink:href="#ArialMT-52"/>
     </g>
    </g>
    <g id="line2d_55"/>
    <g id="line2d_56">
     <g>
      <use style="fill:#ff0000;fill-opacity:0.5;stroke:#ff0000;stroke-opacity:0.5;" x="358.57625" xlink:href="#m83b65b7860" y="57.480792"/>
     </g>
    </g>
    <g id="text_23">
     <!-- Extrapolated -->
     <defs>
      <path d="M 0.734375 0 
L 19.671875 26.953125 
L 2.15625 51.859375 
L 13.140625 51.859375 
L 21.09375 39.703125 
Q 23.34375 36.234375 24.703125 33.890625 
Q 26.859375 37.109375 28.65625 39.59375 
L 37.40625 51.859375 
L 47.90625 51.859375 
L 29.984375 27.4375 
L 49.265625 0 
L 38.484375 0 
L 27.828125 16.109375 
L 25 20.453125 
L 11.375 0 
z
" id="ArialMT-120"/>
      <path d="M 40.4375 6.390625 
Q 35.546875 2.25 31.03125 0.53125 
Q 26.515625 -1.171875 21.34375 -1.171875 
Q 12.796875 -1.171875 8.203125 3 
Q 3.609375 7.171875 3.609375 13.671875 
Q 3.609375 17.484375 5.34375 20.625 
Q 7.078125 23.78125 9.890625 25.6875 
Q 12.703125 27.59375 16.21875 28.5625 
Q 18.796875 29.25 24.03125 29.890625 
Q 34.671875 31.15625 39.703125 32.90625 
Q 39.75 34.71875 39.75 35.203125 
Q 39.75 40.578125 37.25 42.78125 
Q 33.890625 45.75 27.25 45.75 
Q 21.046875 45.75 18.09375 43.578125 
Q 15.140625 41.40625 13.71875 35.890625 
L 5.125 37.0625 
Q 6.296875 42.578125 8.984375 45.96875 
Q 11.671875 49.359375 16.75 51.1875 
Q 21.828125 53.03125 28.515625 53.03125 
Q 35.15625 53.03125 39.296875 51.46875 
Q 43.453125 49.90625 45.40625 47.53125 
Q 47.359375 45.171875 48.140625 41.546875 
Q 48.578125 39.3125 48.578125 33.453125 
L 48.578125 21.734375 
Q 48.578125 9.46875 49.140625 6.21875 
Q 49.703125 2.984375 51.375 0 
L 42.1875 0 
Q 40.828125 2.734375 40.4375 6.390625 
z
M 39.703125 26.03125 
Q 34.90625 24.078125 25.34375 22.703125 
Q 19.921875 21.921875 17.671875 20.9375 
Q 15.4375 19.96875 14.203125 18.09375 
Q 12.984375 16.21875 12.984375 13.921875 
Q 12.984375 10.40625 15.640625 8.0625 
Q 18.3125 5.71875 23.4375 5.71875 
Q 28.515625 5.71875 32.46875 7.9375 
Q 36.421875 10.15625 38.28125 14.015625 
Q 39.703125 17 39.703125 22.796875 
z
" id="ArialMT-97"/>
      <path d="M 6.59375 -19.875 
L 6.59375 51.859375 
L 14.59375 51.859375 
L 14.59375 45.125 
Q 17.4375 49.078125 21 51.046875 
Q 24.5625 53.03125 29.640625 53.03125 
Q 36.28125 53.03125 41.359375 49.609375 
Q 46.4375 46.1875 49.015625 39.953125 
Q 51.609375 33.734375 51.609375 26.3125 
Q 51.609375 18.359375 48.75 11.984375 
Q 45.90625 5.609375 40.453125 2.21875 
Q 35.015625 -1.171875 29 -1.171875 
Q 24.609375 -1.171875 21.109375 0.6875 
Q 17.625 2.546875 15.375 5.375 
L 15.375 -19.875 
z
M 14.546875 25.640625 
Q 14.546875 15.625 18.59375 10.84375 
Q 22.65625 6.0625 28.421875 6.0625 
Q 34.28125 6.0625 38.453125 11.015625 
Q 42.625 15.96875 42.625 26.375 
Q 42.625 36.28125 38.546875 41.203125 
Q 34.46875 46.140625 28.8125 46.140625 
Q 23.1875 46.140625 18.859375 40.890625 
Q 14.546875 35.640625 14.546875 25.640625 
z
" id="ArialMT-112"/>
      <path d="M 40.234375 0 
L 40.234375 6.546875 
Q 35.296875 -1.171875 25.734375 -1.171875 
Q 19.53125 -1.171875 14.328125 2.25 
Q 9.125 5.671875 6.265625 11.796875 
Q 3.421875 17.921875 3.421875 25.875 
Q 3.421875 33.640625 6 39.96875 
Q 8.59375 46.296875 13.765625 49.65625 
Q 18.953125 53.03125 25.34375 53.03125 
Q 30.03125 53.03125 33.6875 51.046875 
Q 37.359375 49.078125 39.65625 45.90625 
L 39.65625 71.578125 
L 48.390625 71.578125 
L 48.390625 0 
z
M 12.453125 25.875 
Q 12.453125 15.921875 16.640625 10.984375 
Q 20.84375 6.0625 26.5625 6.0625 
Q 32.328125 6.0625 36.34375 10.765625 
Q 40.375 15.484375 40.375 25.140625 
Q 40.375 35.796875 36.265625 40.765625 
Q 32.171875 45.75 26.171875 45.75 
Q 20.3125 45.75 16.375 40.96875 
Q 12.453125 36.1875 12.453125 25.875 
z
" id="ArialMT-100"/>
     </defs>
     <g transform="translate(376.57625 60.980792)scale(0.1 -0.1)">
      <use xlink:href="#ArialMT-69"/>
      <use x="66.699219" xlink:href="#ArialMT-120"/>
      <use x="116.699219" xlink:href="#ArialMT-116"/>
      <use x="144.482422" xlink:href="#ArialMT-114"/>
      <use x="177.783203" xlink:href="#ArialMT-97"/>
      <use x="233.398438" xlink:href="#ArialMT-112"/>
      <use x="289.013672" xlink:href="#ArialMT-111"/>
      <use x="344.628906" xlink:href="#ArialMT-108"/>
      <use x="366.845703" xlink:href="#ArialMT-97"/>
      <use x="422.460938" xlink:href="#ArialMT-116"/>
      <use x="450.244141" xlink:href="#ArialMT-101"/>
      <use x="505.859375" xlink:href="#ArialMT-100"/>
     </g>
    </g>
   </g>
  </g>
 </g>
 <defs>
  <clipPath id="pf1c14b4a2c">
   <rect height="262.794417" width="378.16375" x="63.55625" y="30.677667"/>
  </clipPath>
 </defs>
</svg>
