<?xml version="1.0" encoding="utf-8" standalone="no"?>
<!DOCTYPE svg PUBLIC "-//W3C//DTD SVG 1.1//EN"
  "http://www.w3.org/Graphics/SVG/1.1/DTD/svg11.dtd">
<!-- Created with matplotlib (https://matplotlib.org/) -->
<svg height="344.16pt" version="1.1" viewBox="0 0 460.8 344.16" width="460.8pt" xmlns="http://www.w3.org/2000/svg" xmlns:xlink="http://www.w3.org/1999/xlink">
 <defs>
  <style type="text/css">
*{stroke-linecap:butt;stroke-linejoin:round;}
  </style>
 </defs>
 <g id="figure_1">
  <g id="patch_1">
   <path d="M 0 344.16 
L 460.8 344.16 
L 460.8 0 
L 0 0 
z
" style="fill:#ffffff;"/>
  </g>
  <g id="axes_1">
   <g id="patch_2">
    <path d="M 56.89625 293.472083 
L 441.72 293.472083 
L 441.72 30.677667 
L 56.89625 30.677667 
z
" style="fill:#eeeeee;"/>
   </g>
   <g id="matplotlib.axis_1">
    <g id="xtick_1">
     <g id="line2d_1">
      <path clip-path="url(#p71a776d8ee)" d="M 56.89625 293.472083 
L 56.89625 30.677667 
" style="fill:none;stroke:#b2b2b2;stroke-dasharray:1.85,0.8;stroke-dashoffset:0;stroke-width:0.5;"/>
     </g>
     <g id="line2d_2">
      <defs>
       <path d="M 0 0 
L 0 -5 
" id="m63de838a3f" style="stroke:#000000;stroke-width:0.8;"/>
      </defs>
      <g>
       <use style="stroke:#000000;stroke-width:0.8;" x="56.89625" xlink:href="#m63de838a3f" y="293.472083"/>
      </g>
     </g>
     <g id="text_1">
      <!-- 0.0 -->
      <defs>
       <path d="M 4.15625 35.296875 
Q 4.15625 48 6.765625 55.734375 
Q 9.375 63.484375 14.515625 67.671875 
Q 19.671875 71.875 27.484375 71.875 
Q 33.25 71.875 37.59375 69.546875 
Q 41.9375 67.234375 44.765625 62.859375 
Q 47.609375 58.5 49.21875 52.21875 
Q 50.828125 45.953125 50.828125 35.296875 
Q 50.828125 22.703125 48.234375 14.96875 
Q 45.65625 7.234375 40.5 3 
Q 35.359375 -1.21875 27.484375 -1.21875 
Q 17.140625 -1.21875 11.234375 6.203125 
Q 4.15625 15.140625 4.15625 35.296875 
z
M 13.1875 35.296875 
Q 13.1875 17.671875 17.3125 11.828125 
Q 21.4375 6 27.484375 6 
Q 33.546875 6 37.671875 11.859375 
Q 41.796875 17.71875 41.796875 35.296875 
Q 41.796875 52.984375 37.671875 58.78125 
Q 33.546875 64.59375 27.390625 64.59375 
Q 21.34375 64.59375 17.71875 59.46875 
Q 13.1875 52.9375 13.1875 35.296875 
z
" id="ArialMT-48"/>
       <path d="M 9.078125 0 
L 9.078125 10.015625 
L 19.09375 10.015625 
L 19.09375 0 
z
" id="ArialMT-46"/>
      </defs>
      <g transform="translate(48.55625 305.561458)scale(0.12 -0.12)">
       <use xlink:href="#ArialMT-48"/>
       <use x="55.615234" xlink:href="#ArialMT-46"/>
       <use x="83.398438" xlink:href="#ArialMT-48"/>
      </g>
     </g>
    </g>
    <g id="xtick_2">
     <g id="line2d_3">
      <path clip-path="url(#p71a776d8ee)" d="M 111.871071 293.472083 
L 111.871071 30.677667 
" style="fill:none;stroke:#b2b2b2;stroke-dasharray:1.85,0.8;stroke-dashoffset:0;stroke-width:0.5;"/>
     </g>
     <g id="line2d_4">
      <g>
       <use style="stroke:#000000;stroke-width:0.8;" x="111.871071" xlink:href="#m63de838a3f" y="293.472083"/>
      </g>
     </g>
     <g id="text_2">
      <!-- 0.5 -->
      <defs>
       <path d="M 4.15625 18.75 
L 13.375 19.53125 
Q 14.40625 12.796875 18.140625 9.390625 
Q 21.875 6 27.15625 6 
Q 33.5 6 37.890625 10.78125 
Q 42.28125 15.578125 42.28125 23.484375 
Q 42.28125 31 38.0625 35.34375 
Q 33.84375 39.703125 27 39.703125 
Q 22.75 39.703125 19.328125 37.765625 
Q 15.921875 35.84375 13.96875 32.765625 
L 5.71875 33.84375 
L 12.640625 70.609375 
L 48.25 70.609375 
L 48.25 62.203125 
L 19.671875 62.203125 
L 15.828125 42.96875 
Q 22.265625 47.46875 29.34375 47.46875 
Q 38.71875 47.46875 45.15625 40.96875 
Q 51.609375 34.46875 51.609375 24.265625 
Q 51.609375 14.546875 45.953125 7.46875 
Q 39.0625 -1.21875 27.15625 -1.21875 
Q 17.390625 -1.21875 11.203125 4.25 
Q 5.03125 9.71875 4.15625 18.75 
z
" id="ArialMT-53"/>
      </defs>
      <g transform="translate(103.531071 305.561458)scale(0.12 -0.12)">
       <use xlink:href="#ArialMT-48"/>
       <use x="55.615234" xlink:href="#ArialMT-46"/>
       <use x="83.398438" xlink:href="#ArialMT-53"/>
      </g>
     </g>
    </g>
    <g id="xtick_3">
     <g id="line2d_5">
      <path clip-path="url(#p71a776d8ee)" d="M 166.845893 293.472083 
L 166.845893 30.677667 
" style="fill:none;stroke:#b2b2b2;stroke-dasharray:1.85,0.8;stroke-dashoffset:0;stroke-width:0.5;"/>
     </g>
     <g id="line2d_6">
      <g>
       <use style="stroke:#000000;stroke-width:0.8;" x="166.845893" xlink:href="#m63de838a3f" y="293.472083"/>
      </g>
     </g>
     <g id="text_3">
      <!-- 1.0 -->
      <defs>
       <path d="M 37.25 0 
L 28.46875 0 
L 28.46875 56 
Q 25.296875 52.984375 20.140625 49.953125 
Q 14.984375 46.921875 10.890625 45.40625 
L 10.890625 53.90625 
Q 18.265625 57.375 23.78125 62.296875 
Q 29.296875 67.234375 31.59375 71.875 
L 37.25 71.875 
z
" id="ArialMT-49"/>
      </defs>
      <g transform="translate(158.505893 305.561458)scale(0.12 -0.12)">
       <use xlink:href="#ArialMT-49"/>
       <use x="55.615234" xlink:href="#ArialMT-46"/>
       <use x="83.398438" xlink:href="#ArialMT-48"/>
      </g>
     </g>
    </g>
    <g id="xtick_4">
     <g id="line2d_7">
      <path clip-path="url(#p71a776d8ee)" d="M 221.820714 293.472083 
L 221.820714 30.677667 
" style="fill:none;stroke:#b2b2b2;stroke-dasharray:1.85,0.8;stroke-dashoffset:0;stroke-width:0.5;"/>
     </g>
     <g id="line2d_8">
      <g>
       <use style="stroke:#000000;stroke-width:0.8;" x="221.820714" xlink:href="#m63de838a3f" y="293.472083"/>
      </g>
     </g>
     <g id="text_4">
      <!-- 1.5 -->
      <g transform="translate(213.480714 305.561458)scale(0.12 -0.12)">
       <use xlink:href="#ArialMT-49"/>
       <use x="55.615234" xlink:href="#ArialMT-46"/>
       <use x="83.398438" xlink:href="#ArialMT-53"/>
      </g>
     </g>
    </g>
    <g id="xtick_5">
     <g id="line2d_9">
      <path clip-path="url(#p71a776d8ee)" d="M 276.795536 293.472083 
L 276.795536 30.677667 
" style="fill:none;stroke:#b2b2b2;stroke-dasharray:1.85,0.8;stroke-dashoffset:0;stroke-width:0.5;"/>
     </g>
     <g id="line2d_10">
      <g>
       <use style="stroke:#000000;stroke-width:0.8;" x="276.795536" xlink:href="#m63de838a3f" y="293.472083"/>
      </g>
     </g>
     <g id="text_5">
      <!-- 2.0 -->
      <defs>
       <path d="M 50.34375 8.453125 
L 50.34375 0 
L 3.03125 0 
Q 2.9375 3.171875 4.046875 6.109375 
Q 5.859375 10.9375 9.828125 15.625 
Q 13.8125 20.3125 21.34375 26.46875 
Q 33.015625 36.03125 37.109375 41.625 
Q 41.21875 47.21875 41.21875 52.203125 
Q 41.21875 57.421875 37.46875 61 
Q 33.734375 64.59375 27.734375 64.59375 
Q 21.390625 64.59375 17.578125 60.78125 
Q 13.765625 56.984375 13.71875 50.25 
L 4.6875 51.171875 
Q 5.609375 61.28125 11.65625 66.578125 
Q 17.71875 71.875 27.9375 71.875 
Q 38.234375 71.875 44.234375 66.15625 
Q 50.25 60.453125 50.25 52 
Q 50.25 47.703125 48.484375 43.546875 
Q 46.734375 39.40625 42.65625 34.8125 
Q 38.578125 30.21875 29.109375 22.21875 
Q 21.1875 15.578125 18.9375 13.203125 
Q 16.703125 10.84375 15.234375 8.453125 
z
" id="ArialMT-50"/>
      </defs>
      <g transform="translate(268.455536 305.561458)scale(0.12 -0.12)">
       <use xlink:href="#ArialMT-50"/>
       <use x="55.615234" xlink:href="#ArialMT-46"/>
       <use x="83.398438" xlink:href="#ArialMT-48"/>
      </g>
     </g>
    </g>
    <g id="xtick_6">
     <g id="line2d_11">
      <path clip-path="url(#p71a776d8ee)" d="M 331.770357 293.472083 
L 331.770357 30.677667 
" style="fill:none;stroke:#b2b2b2;stroke-dasharray:1.85,0.8;stroke-dashoffset:0;stroke-width:0.5;"/>
     </g>
     <g id="line2d_12">
      <g>
       <use style="stroke:#000000;stroke-width:0.8;" x="331.770357" xlink:href="#m63de838a3f" y="293.472083"/>
      </g>
     </g>
     <g id="text_6">
      <!-- 2.5 -->
      <g transform="translate(323.430357 305.561458)scale(0.12 -0.12)">
       <use xlink:href="#ArialMT-50"/>
       <use x="55.615234" xlink:href="#ArialMT-46"/>
       <use x="83.398438" xlink:href="#ArialMT-53"/>
      </g>
     </g>
    </g>
    <g id="xtick_7">
     <g id="line2d_13">
      <path clip-path="url(#p71a776d8ee)" d="M 386.745179 293.472083 
L 386.745179 30.677667 
" style="fill:none;stroke:#b2b2b2;stroke-dasharray:1.85,0.8;stroke-dashoffset:0;stroke-width:0.5;"/>
     </g>
     <g id="line2d_14">
      <g>
       <use style="stroke:#000000;stroke-width:0.8;" x="386.745179" xlink:href="#m63de838a3f" y="293.472083"/>
      </g>
     </g>
     <g id="text_7">
      <!-- 3.0 -->
      <defs>
       <path d="M 4.203125 18.890625 
L 12.984375 20.0625 
Q 14.5 12.59375 18.140625 9.296875 
Q 21.78125 6 27 6 
Q 33.203125 6 37.46875 10.296875 
Q 41.75 14.59375 41.75 20.953125 
Q 41.75 27 37.796875 30.921875 
Q 33.84375 34.859375 27.734375 34.859375 
Q 25.25 34.859375 21.53125 33.890625 
L 22.515625 41.609375 
Q 23.390625 41.5 23.921875 41.5 
Q 29.546875 41.5 34.03125 44.421875 
Q 38.53125 47.359375 38.53125 53.46875 
Q 38.53125 58.296875 35.25 61.46875 
Q 31.984375 64.65625 26.8125 64.65625 
Q 21.6875 64.65625 18.265625 61.421875 
Q 14.84375 58.203125 13.875 51.765625 
L 5.078125 53.328125 
Q 6.6875 62.15625 12.390625 67.015625 
Q 18.109375 71.875 26.609375 71.875 
Q 32.46875 71.875 37.390625 69.359375 
Q 42.328125 66.84375 44.9375 62.5 
Q 47.5625 58.15625 47.5625 53.265625 
Q 47.5625 48.640625 45.0625 44.828125 
Q 42.578125 41.015625 37.703125 38.765625 
Q 44.046875 37.3125 47.5625 32.6875 
Q 51.078125 28.078125 51.078125 21.140625 
Q 51.078125 11.765625 44.234375 5.25 
Q 37.40625 -1.265625 26.953125 -1.265625 
Q 17.53125 -1.265625 11.296875 4.34375 
Q 5.078125 9.96875 4.203125 18.890625 
z
" id="ArialMT-51"/>
      </defs>
      <g transform="translate(378.405179 305.561458)scale(0.12 -0.12)">
       <use xlink:href="#ArialMT-51"/>
       <use x="55.615234" xlink:href="#ArialMT-46"/>
       <use x="83.398438" xlink:href="#ArialMT-48"/>
      </g>
     </g>
    </g>
    <g id="xtick_8">
     <g id="line2d_15">
      <path clip-path="url(#p71a776d8ee)" d="M 441.72 293.472083 
L 441.72 30.677667 
" style="fill:none;stroke:#b2b2b2;stroke-dasharray:1.85,0.8;stroke-dashoffset:0;stroke-width:0.5;"/>
     </g>
     <g id="line2d_16">
      <g>
       <use style="stroke:#000000;stroke-width:0.8;" x="441.72" xlink:href="#m63de838a3f" y="293.472083"/>
      </g>
     </g>
     <g id="text_8">
      <!-- 3.5 -->
      <g transform="translate(433.38 305.561458)scale(0.12 -0.12)">
       <use xlink:href="#ArialMT-51"/>
       <use x="55.615234" xlink:href="#ArialMT-46"/>
       <use x="83.398438" xlink:href="#ArialMT-53"/>
      </g>
     </g>
    </g>
    <g id="xtick_9">
     <g id="line2d_17">
      <defs>
       <path d="M 0 0 
L 0 -2 
" id="m58f96759ef" style="stroke:#000000;stroke-width:0.6;"/>
      </defs>
      <g>
       <use style="stroke:#000000;stroke-width:0.6;" x="84.383661" xlink:href="#m58f96759ef" y="293.472083"/>
      </g>
     </g>
    </g>
    <g id="xtick_10">
     <g id="line2d_18">
      <g>
       <use style="stroke:#000000;stroke-width:0.6;" x="139.358482" xlink:href="#m58f96759ef" y="293.472083"/>
      </g>
     </g>
    </g>
    <g id="xtick_11">
     <g id="line2d_19">
      <g>
       <use style="stroke:#000000;stroke-width:0.6;" x="194.333304" xlink:href="#m58f96759ef" y="293.472083"/>
      </g>
     </g>
    </g>
    <g id="xtick_12">
     <g id="line2d_20">
      <g>
       <use style="stroke:#000000;stroke-width:0.6;" x="249.308125" xlink:href="#m58f96759ef" y="293.472083"/>
      </g>
     </g>
    </g>
    <g id="xtick_13">
     <g id="line2d_21">
      <g>
       <use style="stroke:#000000;stroke-width:0.6;" x="304.282946" xlink:href="#m58f96759ef" y="293.472083"/>
      </g>
     </g>
    </g>
    <g id="xtick_14">
     <g id="line2d_22">
      <g>
       <use style="stroke:#000000;stroke-width:0.6;" x="359.257768" xlink:href="#m58f96759ef" y="293.472083"/>
      </g>
     </g>
    </g>
    <g id="xtick_15">
     <g id="line2d_23">
      <g>
       <use style="stroke:#000000;stroke-width:0.6;" x="414.232589" xlink:href="#m58f96759ef" y="293.472083"/>
      </g>
     </g>
    </g>
    <g id="text_9">
     <!-- Energy (eV) -->
     <defs>
      <path d="M 7.90625 0 
L 7.90625 71.578125 
L 59.671875 71.578125 
L 59.671875 63.140625 
L 17.390625 63.140625 
L 17.390625 41.21875 
L 56.984375 41.21875 
L 56.984375 32.8125 
L 17.390625 32.8125 
L 17.390625 8.453125 
L 61.328125 8.453125 
L 61.328125 0 
z
" id="ArialMT-69"/>
      <path d="M 6.59375 0 
L 6.59375 51.859375 
L 14.5 51.859375 
L 14.5 44.484375 
Q 20.21875 53.03125 31 53.03125 
Q 35.6875 53.03125 39.625 51.34375 
Q 43.5625 49.65625 45.515625 46.921875 
Q 47.46875 44.1875 48.25 40.4375 
Q 48.734375 37.984375 48.734375 31.890625 
L 48.734375 0 
L 39.9375 0 
L 39.9375 31.546875 
Q 39.9375 36.921875 38.90625 39.578125 
Q 37.890625 42.234375 35.28125 43.8125 
Q 32.671875 45.40625 29.15625 45.40625 
Q 23.53125 45.40625 19.453125 41.84375 
Q 15.375 38.28125 15.375 28.328125 
L 15.375 0 
z
" id="ArialMT-110"/>
      <path d="M 42.09375 16.703125 
L 51.171875 15.578125 
Q 49.03125 7.625 43.21875 3.21875 
Q 37.40625 -1.171875 28.375 -1.171875 
Q 17 -1.171875 10.328125 5.828125 
Q 3.65625 12.84375 3.65625 25.484375 
Q 3.65625 38.578125 10.390625 45.796875 
Q 17.140625 53.03125 27.875 53.03125 
Q 38.28125 53.03125 44.875 45.953125 
Q 51.46875 38.875 51.46875 26.03125 
Q 51.46875 25.25 51.421875 23.6875 
L 12.75 23.6875 
Q 13.234375 15.140625 17.578125 10.59375 
Q 21.921875 6.0625 28.421875 6.0625 
Q 33.25 6.0625 36.671875 8.59375 
Q 40.09375 11.140625 42.09375 16.703125 
z
M 13.234375 30.90625 
L 42.1875 30.90625 
Q 41.609375 37.453125 38.875 40.71875 
Q 34.671875 45.796875 27.984375 45.796875 
Q 21.921875 45.796875 17.796875 41.75 
Q 13.671875 37.703125 13.234375 30.90625 
z
" id="ArialMT-101"/>
      <path d="M 6.5 0 
L 6.5 51.859375 
L 14.40625 51.859375 
L 14.40625 44 
Q 17.4375 49.515625 20 51.265625 
Q 22.5625 53.03125 25.640625 53.03125 
Q 30.078125 53.03125 34.671875 50.203125 
L 31.640625 42.046875 
Q 28.421875 43.953125 25.203125 43.953125 
Q 22.3125 43.953125 20.015625 42.21875 
Q 17.71875 40.484375 16.75 37.40625 
Q 15.28125 32.71875 15.28125 27.15625 
L 15.28125 0 
z
" id="ArialMT-114"/>
      <path d="M 4.984375 -4.296875 
L 13.53125 -5.5625 
Q 14.0625 -9.515625 16.5 -11.328125 
Q 19.78125 -13.765625 25.4375 -13.765625 
Q 31.546875 -13.765625 34.859375 -11.328125 
Q 38.1875 -8.890625 39.359375 -4.5 
Q 40.046875 -1.8125 39.984375 6.78125 
Q 34.234375 0 25.640625 0 
Q 14.9375 0 9.078125 7.71875 
Q 3.21875 15.4375 3.21875 26.21875 
Q 3.21875 33.640625 5.90625 39.90625 
Q 8.59375 46.1875 13.6875 49.609375 
Q 18.796875 53.03125 25.6875 53.03125 
Q 34.859375 53.03125 40.828125 45.609375 
L 40.828125 51.859375 
L 48.921875 51.859375 
L 48.921875 7.03125 
Q 48.921875 -5.078125 46.453125 -10.125 
Q 44 -15.1875 38.640625 -18.109375 
Q 33.296875 -21.046875 25.484375 -21.046875 
Q 16.21875 -21.046875 10.5 -16.875 
Q 4.78125 -12.703125 4.984375 -4.296875 
z
M 12.25 26.859375 
Q 12.25 16.65625 16.296875 11.96875 
Q 20.359375 7.28125 26.46875 7.28125 
Q 32.515625 7.28125 36.609375 11.9375 
Q 40.71875 16.609375 40.71875 26.5625 
Q 40.71875 36.078125 36.5 40.90625 
Q 32.28125 45.75 26.3125 45.75 
Q 20.453125 45.75 16.34375 40.984375 
Q 12.25 36.234375 12.25 26.859375 
z
" id="ArialMT-103"/>
      <path d="M 6.203125 -19.96875 
L 5.21875 -11.71875 
Q 8.109375 -12.5 10.25 -12.5 
Q 13.1875 -12.5 14.9375 -11.515625 
Q 16.703125 -10.546875 17.828125 -8.796875 
Q 18.65625 -7.46875 20.515625 -2.25 
Q 20.75 -1.515625 21.296875 -0.09375 
L 1.609375 51.859375 
L 11.078125 51.859375 
L 21.875 21.828125 
Q 23.96875 16.109375 25.640625 9.8125 
Q 27.15625 15.875 29.25 21.625 
L 40.328125 51.859375 
L 49.125 51.859375 
L 29.390625 -0.875 
Q 26.21875 -9.421875 24.46875 -12.640625 
Q 22.125 -17 19.09375 -19.015625 
Q 16.0625 -21.046875 11.859375 -21.046875 
Q 9.328125 -21.046875 6.203125 -19.96875 
z
" id="ArialMT-121"/>
      <path id="ArialMT-32"/>
      <path d="M 23.390625 -21.046875 
Q 16.109375 -11.859375 11.078125 0.4375 
Q 6.0625 12.75 6.0625 25.921875 
Q 6.0625 37.546875 9.8125 48.1875 
Q 14.203125 60.546875 23.390625 72.796875 
L 29.6875 72.796875 
Q 23.78125 62.640625 21.875 58.296875 
Q 18.890625 51.5625 17.1875 44.234375 
Q 15.09375 35.109375 15.09375 25.875 
Q 15.09375 2.390625 29.6875 -21.046875 
z
" id="ArialMT-40"/>
      <path d="M 28.171875 0 
L 0.4375 71.578125 
L 10.6875 71.578125 
L 29.296875 19.578125 
Q 31.546875 13.328125 33.0625 7.859375 
Q 34.71875 13.71875 36.921875 19.578125 
L 56.25 71.578125 
L 65.921875 71.578125 
L 37.890625 0 
z
" id="ArialMT-86"/>
      <path d="M 12.359375 -21.046875 
L 6.0625 -21.046875 
Q 20.65625 2.390625 20.65625 25.875 
Q 20.65625 35.0625 18.5625 44.09375 
Q 16.890625 51.421875 13.921875 58.15625 
Q 12.015625 62.546875 6.0625 72.796875 
L 12.359375 72.796875 
Q 21.53125 60.546875 25.921875 48.1875 
Q 29.6875 37.546875 29.6875 25.921875 
Q 29.6875 12.75 24.625 0.4375 
Q 19.578125 -11.859375 12.359375 -21.046875 
z
" id="ArialMT-41"/>
     </defs>
     <g transform="translate(217.297188 331.682083)scale(0.12 -0.12)">
      <use xlink:href="#ArialMT-69"/>
      <use x="66.699219" xlink:href="#ArialMT-110"/>
      <use x="122.314453" xlink:href="#ArialMT-101"/>
      <use x="177.929688" xlink:href="#ArialMT-114"/>
      <use x="211.230469" xlink:href="#ArialMT-103"/>
      <use x="266.845703" xlink:href="#ArialMT-121"/>
      <use x="316.845703" xlink:href="#ArialMT-32"/>
      <use x="344.628906" xlink:href="#ArialMT-40"/>
      <use x="377.929688" xlink:href="#ArialMT-101"/>
      <use x="433.544922" xlink:href="#ArialMT-86"/>
      <use x="500.244141" xlink:href="#ArialMT-41"/>
     </g>
    </g>
    <g id="text_10">
     <!-- 1e7 -->
     <defs>
      <path d="M 4.734375 62.203125 
L 4.734375 70.65625 
L 51.078125 70.65625 
L 51.078125 63.8125 
Q 44.234375 56.546875 37.515625 44.484375 
Q 30.8125 32.421875 27.15625 19.671875 
Q 24.515625 10.6875 23.78125 0 
L 14.75 0 
Q 14.890625 8.453125 18.0625 20.40625 
Q 21.234375 32.375 27.171875 43.484375 
Q 33.109375 54.59375 39.796875 62.203125 
z
" id="ArialMT-55"/>
     </defs>
     <g transform="translate(425.037188 318.104271)scale(0.1 -0.1)">
      <use xlink:href="#ArialMT-49"/>
      <use x="55.615234" xlink:href="#ArialMT-101"/>
      <use x="111.230469" xlink:href="#ArialMT-55"/>
     </g>
    </g>
   </g>
   <g id="matplotlib.axis_2">
    <g id="ytick_1">
     <g id="line2d_24">
      <path clip-path="url(#p71a776d8ee)" d="M 56.89625 281.526883 
L 441.72 281.526883 
" style="fill:none;stroke:#b2b2b2;stroke-dasharray:1.85,0.8;stroke-dashoffset:0;stroke-width:0.5;"/>
     </g>
     <g id="line2d_25">
      <defs>
       <path d="M 0 0 
L 5 0 
" id="md84916df0d" style="stroke:#000000;stroke-width:0.8;"/>
      </defs>
      <g>
       <use style="stroke:#000000;stroke-width:0.8;" x="56.89625" xlink:href="#md84916df0d" y="281.526883"/>
      </g>
     </g>
     <g id="text_11">
      <!-- 0.0 -->
      <g transform="translate(36.71625 285.82157)scale(0.12 -0.12)">
       <use xlink:href="#ArialMT-48"/>
       <use x="55.615234" xlink:href="#ArialMT-46"/>
       <use x="83.398438" xlink:href="#ArialMT-48"/>
      </g>
     </g>
    </g>
    <g id="ytick_2">
     <g id="line2d_26">
      <path clip-path="url(#p71a776d8ee)" d="M 56.89625 233.180426 
L 441.72 233.180426 
" style="fill:none;stroke:#b2b2b2;stroke-dasharray:1.85,0.8;stroke-dashoffset:0;stroke-width:0.5;"/>
     </g>
     <g id="line2d_27">
      <g>
       <use style="stroke:#000000;stroke-width:0.8;" x="56.89625" xlink:href="#md84916df0d" y="233.180426"/>
      </g>
     </g>
     <g id="text_12">
      <!-- 0.1 -->
      <g transform="translate(36.71625 237.475113)scale(0.12 -0.12)">
       <use xlink:href="#ArialMT-48"/>
       <use x="55.615234" xlink:href="#ArialMT-46"/>
       <use x="83.398438" xlink:href="#ArialMT-49"/>
      </g>
     </g>
    </g>
    <g id="ytick_3">
     <g id="line2d_28">
      <path clip-path="url(#p71a776d8ee)" d="M 56.89625 184.833969 
L 441.72 184.833969 
" style="fill:none;stroke:#b2b2b2;stroke-dasharray:1.85,0.8;stroke-dashoffset:0;stroke-width:0.5;"/>
     </g>
     <g id="line2d_29">
      <g>
       <use style="stroke:#000000;stroke-width:0.8;" x="56.89625" xlink:href="#md84916df0d" y="184.833969"/>
      </g>
     </g>
     <g id="text_13">
      <!-- 0.2 -->
      <g transform="translate(36.71625 189.128657)scale(0.12 -0.12)">
       <use xlink:href="#ArialMT-48"/>
       <use x="55.615234" xlink:href="#ArialMT-46"/>
       <use x="83.398438" xlink:href="#ArialMT-50"/>
      </g>
     </g>
    </g>
    <g id="ytick_4">
     <g id="line2d_30">
      <path clip-path="url(#p71a776d8ee)" d="M 56.89625 136.487513 
L 441.72 136.487513 
" style="fill:none;stroke:#b2b2b2;stroke-dasharray:1.85,0.8;stroke-dashoffset:0;stroke-width:0.5;"/>
     </g>
     <g id="line2d_31">
      <g>
       <use style="stroke:#000000;stroke-width:0.8;" x="56.89625" xlink:href="#md84916df0d" y="136.487513"/>
      </g>
     </g>
     <g id="text_14">
      <!-- 0.3 -->
      <g transform="translate(36.71625 140.7822)scale(0.12 -0.12)">
       <use xlink:href="#ArialMT-48"/>
       <use x="55.615234" xlink:href="#ArialMT-46"/>
       <use x="83.398438" xlink:href="#ArialMT-51"/>
      </g>
     </g>
    </g>
    <g id="ytick_5">
     <g id="line2d_32">
      <path clip-path="url(#p71a776d8ee)" d="M 56.89625 88.141056 
L 441.72 88.141056 
" style="fill:none;stroke:#b2b2b2;stroke-dasharray:1.85,0.8;stroke-dashoffset:0;stroke-width:0.5;"/>
     </g>
     <g id="line2d_33">
      <g>
       <use style="stroke:#000000;stroke-width:0.8;" x="56.89625" xlink:href="#md84916df0d" y="88.141056"/>
      </g>
     </g>
     <g id="text_15">
      <!-- 0.4 -->
      <defs>
       <path d="M 32.328125 0 
L 32.328125 17.140625 
L 1.265625 17.140625 
L 1.265625 25.203125 
L 33.9375 71.578125 
L 41.109375 71.578125 
L 41.109375 25.203125 
L 50.78125 25.203125 
L 50.78125 17.140625 
L 41.109375 17.140625 
L 41.109375 0 
z
M 32.328125 25.203125 
L 32.328125 57.46875 
L 9.90625 25.203125 
z
" id="ArialMT-52"/>
      </defs>
      <g transform="translate(36.71625 92.435744)scale(0.12 -0.12)">
       <use xlink:href="#ArialMT-48"/>
       <use x="55.615234" xlink:href="#ArialMT-46"/>
       <use x="83.398438" xlink:href="#ArialMT-52"/>
      </g>
     </g>
    </g>
    <g id="ytick_6">
     <g id="line2d_34">
      <path clip-path="url(#p71a776d8ee)" d="M 56.89625 39.7946 
L 441.72 39.7946 
" style="fill:none;stroke:#b2b2b2;stroke-dasharray:1.85,0.8;stroke-dashoffset:0;stroke-width:0.5;"/>
     </g>
     <g id="line2d_35">
      <g>
       <use style="stroke:#000000;stroke-width:0.8;" x="56.89625" xlink:href="#md84916df0d" y="39.7946"/>
      </g>
     </g>
     <g id="text_16">
      <!-- 0.5 -->
      <g transform="translate(36.71625 44.089287)scale(0.12 -0.12)">
       <use xlink:href="#ArialMT-48"/>
       <use x="55.615234" xlink:href="#ArialMT-46"/>
       <use x="83.398438" xlink:href="#ArialMT-53"/>
      </g>
     </g>
    </g>
    <g id="ytick_7">
     <g id="line2d_36">
      <defs>
       <path d="M 0 0 
L 2 0 
" id="m6e174c6235" style="stroke:#000000;stroke-width:0.6;"/>
      </defs>
      <g>
       <use style="stroke:#000000;stroke-width:0.6;" x="56.89625" xlink:href="#m6e174c6235" y="257.353654"/>
      </g>
     </g>
    </g>
    <g id="ytick_8">
     <g id="line2d_37">
      <g>
       <use style="stroke:#000000;stroke-width:0.6;" x="56.89625" xlink:href="#m6e174c6235" y="209.007198"/>
      </g>
     </g>
    </g>
    <g id="ytick_9">
     <g id="line2d_38">
      <g>
       <use style="stroke:#000000;stroke-width:0.6;" x="56.89625" xlink:href="#m6e174c6235" y="160.660741"/>
      </g>
     </g>
    </g>
    <g id="ytick_10">
     <g id="line2d_39">
      <g>
       <use style="stroke:#000000;stroke-width:0.6;" x="56.89625" xlink:href="#m6e174c6235" y="112.314285"/>
      </g>
     </g>
    </g>
    <g id="ytick_11">
     <g id="line2d_40">
      <g>
       <use style="stroke:#000000;stroke-width:0.6;" x="56.89625" xlink:href="#m6e174c6235" y="63.967828"/>
      </g>
     </g>
    </g>
    <g id="text_17">
     <!-- Cross section (b) -->
     <defs>
      <path d="M 58.796875 25.09375 
L 68.265625 22.703125 
Q 65.28125 11.03125 57.546875 4.90625 
Q 49.8125 -1.21875 38.625 -1.21875 
Q 27.046875 -1.21875 19.796875 3.484375 
Q 12.546875 8.203125 8.765625 17.140625 
Q 4.984375 26.078125 4.984375 36.328125 
Q 4.984375 47.515625 9.25 55.828125 
Q 13.53125 64.15625 21.40625 68.46875 
Q 29.296875 72.796875 38.765625 72.796875 
Q 49.515625 72.796875 56.828125 67.328125 
Q 64.15625 61.859375 67.046875 51.953125 
L 57.71875 49.75 
Q 55.21875 57.5625 50.484375 61.125 
Q 45.75 64.703125 38.578125 64.703125 
Q 30.328125 64.703125 24.78125 60.734375 
Q 19.234375 56.78125 16.984375 50.109375 
Q 14.75 43.453125 14.75 36.375 
Q 14.75 27.25 17.40625 20.4375 
Q 20.0625 13.625 25.671875 10.25 
Q 31.296875 6.890625 37.84375 6.890625 
Q 45.796875 6.890625 51.3125 11.46875 
Q 56.84375 16.0625 58.796875 25.09375 
z
" id="ArialMT-67"/>
      <path d="M 3.328125 25.921875 
Q 3.328125 40.328125 11.328125 47.265625 
Q 18.015625 53.03125 27.640625 53.03125 
Q 38.328125 53.03125 45.109375 46.015625 
Q 51.90625 39.015625 51.90625 26.65625 
Q 51.90625 16.65625 48.90625 10.90625 
Q 45.90625 5.171875 40.15625 2 
Q 34.421875 -1.171875 27.640625 -1.171875 
Q 16.75 -1.171875 10.03125 5.8125 
Q 3.328125 12.796875 3.328125 25.921875 
z
M 12.359375 25.921875 
Q 12.359375 15.96875 16.703125 11.015625 
Q 21.046875 6.0625 27.640625 6.0625 
Q 34.1875 6.0625 38.53125 11.03125 
Q 42.875 16.015625 42.875 26.21875 
Q 42.875 35.84375 38.5 40.796875 
Q 34.125 45.75 27.640625 45.75 
Q 21.046875 45.75 16.703125 40.8125 
Q 12.359375 35.890625 12.359375 25.921875 
z
" id="ArialMT-111"/>
      <path d="M 3.078125 15.484375 
L 11.765625 16.84375 
Q 12.5 11.625 15.84375 8.84375 
Q 19.1875 6.0625 25.203125 6.0625 
Q 31.25 6.0625 34.171875 8.515625 
Q 37.109375 10.984375 37.109375 14.3125 
Q 37.109375 17.28125 34.515625 19 
Q 32.71875 20.171875 25.53125 21.96875 
Q 15.875 24.421875 12.140625 26.203125 
Q 8.40625 27.984375 6.46875 31.125 
Q 4.546875 34.28125 4.546875 38.09375 
Q 4.546875 41.546875 6.125 44.5 
Q 7.71875 47.46875 10.453125 49.421875 
Q 12.5 50.921875 16.03125 51.96875 
Q 19.578125 53.03125 23.640625 53.03125 
Q 29.734375 53.03125 34.34375 51.265625 
Q 38.96875 49.515625 41.15625 46.5 
Q 43.359375 43.5 44.1875 38.484375 
L 35.59375 37.3125 
Q 35.015625 41.3125 32.203125 43.546875 
Q 29.390625 45.796875 24.265625 45.796875 
Q 18.21875 45.796875 15.625 43.796875 
Q 13.03125 41.796875 13.03125 39.109375 
Q 13.03125 37.40625 14.109375 36.03125 
Q 15.1875 34.625 17.484375 33.6875 
Q 18.796875 33.203125 25.25 31.453125 
Q 34.578125 28.953125 38.25 27.359375 
Q 41.9375 25.78125 44.03125 22.75 
Q 46.140625 19.734375 46.140625 15.234375 
Q 46.140625 10.84375 43.578125 6.953125 
Q 41.015625 3.078125 36.171875 0.953125 
Q 31.34375 -1.171875 25.25 -1.171875 
Q 15.140625 -1.171875 9.84375 3.03125 
Q 4.546875 7.234375 3.078125 15.484375 
z
" id="ArialMT-115"/>
      <path d="M 40.4375 19 
L 49.078125 17.875 
Q 47.65625 8.9375 41.8125 3.875 
Q 35.984375 -1.171875 27.484375 -1.171875 
Q 16.84375 -1.171875 10.375 5.78125 
Q 3.90625 12.75 3.90625 25.734375 
Q 3.90625 34.125 6.6875 40.421875 
Q 9.46875 46.734375 15.15625 49.875 
Q 20.84375 53.03125 27.546875 53.03125 
Q 35.984375 53.03125 41.359375 48.75 
Q 46.734375 44.484375 48.25 36.625 
L 39.703125 35.296875 
Q 38.484375 40.53125 35.375 43.15625 
Q 32.28125 45.796875 27.875 45.796875 
Q 21.234375 45.796875 17.078125 41.03125 
Q 12.9375 36.28125 12.9375 25.984375 
Q 12.9375 15.53125 16.9375 10.796875 
Q 20.953125 6.0625 27.390625 6.0625 
Q 32.5625 6.0625 36.03125 9.234375 
Q 39.5 12.40625 40.4375 19 
z
" id="ArialMT-99"/>
      <path d="M 25.78125 7.859375 
L 27.046875 0.09375 
Q 23.34375 -0.6875 20.40625 -0.6875 
Q 15.625 -0.6875 12.984375 0.828125 
Q 10.359375 2.34375 9.28125 4.8125 
Q 8.203125 7.28125 8.203125 15.1875 
L 8.203125 45.015625 
L 1.765625 45.015625 
L 1.765625 51.859375 
L 8.203125 51.859375 
L 8.203125 64.703125 
L 16.9375 69.96875 
L 16.9375 51.859375 
L 25.78125 51.859375 
L 25.78125 45.015625 
L 16.9375 45.015625 
L 16.9375 14.703125 
Q 16.9375 10.9375 17.40625 9.859375 
Q 17.875 8.796875 18.921875 8.15625 
Q 19.96875 7.515625 21.921875 7.515625 
Q 23.390625 7.515625 25.78125 7.859375 
z
" id="ArialMT-116"/>
      <path d="M 6.640625 61.46875 
L 6.640625 71.578125 
L 15.4375 71.578125 
L 15.4375 61.46875 
z
M 6.640625 0 
L 6.640625 51.859375 
L 15.4375 51.859375 
L 15.4375 0 
z
" id="ArialMT-105"/>
      <path d="M 14.703125 0 
L 6.546875 0 
L 6.546875 71.578125 
L 15.328125 71.578125 
L 15.328125 46.046875 
Q 20.90625 53.03125 29.546875 53.03125 
Q 34.328125 53.03125 38.59375 51.09375 
Q 42.875 49.171875 45.625 45.671875 
Q 48.390625 42.1875 49.953125 37.25 
Q 51.515625 32.328125 51.515625 26.703125 
Q 51.515625 13.375 44.921875 6.09375 
Q 38.328125 -1.171875 29.109375 -1.171875 
Q 19.921875 -1.171875 14.703125 6.5 
z
M 14.59375 26.3125 
Q 14.59375 17 17.140625 12.84375 
Q 21.296875 6.0625 28.375 6.0625 
Q 34.125 6.0625 38.328125 11.0625 
Q 42.53125 16.0625 42.53125 25.984375 
Q 42.53125 36.140625 38.5 40.96875 
Q 34.46875 45.796875 28.765625 45.796875 
Q 23 45.796875 18.796875 40.796875 
Q 14.59375 35.796875 14.59375 26.3125 
z
" id="ArialMT-98"/>
     </defs>
     <g transform="translate(19.190625 207.418)rotate(-90)scale(0.12 -0.12)">
      <use xlink:href="#ArialMT-67"/>
      <use x="72.216797" xlink:href="#ArialMT-114"/>
      <use x="105.517578" xlink:href="#ArialMT-111"/>
      <use x="161.132812" xlink:href="#ArialMT-115"/>
      <use x="211.132812" xlink:href="#ArialMT-115"/>
      <use x="261.132812" xlink:href="#ArialMT-32"/>
      <use x="288.916016" xlink:href="#ArialMT-115"/>
      <use x="338.916016" xlink:href="#ArialMT-101"/>
      <use x="394.53125" xlink:href="#ArialMT-99"/>
      <use x="444.53125" xlink:href="#ArialMT-116"/>
      <use x="472.314453" xlink:href="#ArialMT-105"/>
      <use x="494.53125" xlink:href="#ArialMT-111"/>
      <use x="550.146484" xlink:href="#ArialMT-110"/>
      <use x="605.761719" xlink:href="#ArialMT-32"/>
      <use x="633.544922" xlink:href="#ArialMT-40"/>
      <use x="666.845703" xlink:href="#ArialMT-98"/>
      <use x="722.460938" xlink:href="#ArialMT-41"/>
     </g>
    </g>
   </g>
   <g id="line2d_41">
    <defs>
     <path d="M -3 3 
L 3 3 
L 3 -3 
L -3 -3 
z
" id="m327e9e067d" style="stroke:#008000;stroke-linejoin:miter;stroke-opacity:0.5;"/>
    </defs>
    <g clip-path="url(#p71a776d8ee)">
     <use style="fill:#008000;fill-opacity:0.5;stroke:#008000;stroke-linejoin:miter;stroke-opacity:0.5;" x="189.594474" xlink:href="#m327e9e067d" y="127.669119"/>
     <use style="fill:#008000;fill-opacity:0.5;stroke:#008000;stroke-linejoin:miter;stroke-opacity:0.5;" x="194.861062" xlink:href="#m327e9e067d" y="88.63419"/>
     <use style="fill:#008000;fill-opacity:0.5;stroke:#008000;stroke-linejoin:miter;stroke-opacity:0.5;" x="200.116655" xlink:href="#m327e9e067d" y="56.382269"/>
     <use style="fill:#008000;fill-opacity:0.5;stroke:#008000;stroke-linejoin:miter;stroke-opacity:0.5;" x="205.372248" xlink:href="#m327e9e067d" y="42.622867"/>
     <use style="fill:#008000;fill-opacity:0.5;stroke:#008000;stroke-linejoin:miter;stroke-opacity:0.5;" x="210.627841" xlink:href="#m327e9e067d" y="50.116568"/>
     <use style="fill:#008000;fill-opacity:0.5;stroke:#008000;stroke-linejoin:miter;stroke-opacity:0.5;" x="215.883434" xlink:href="#m327e9e067d" y="56.135702"/>
     <use style="fill:#008000;fill-opacity:0.5;stroke:#008000;stroke-linejoin:miter;stroke-opacity:0.5;" x="221.139027" xlink:href="#m327e9e067d" y="85.598033"/>
     <use style="fill:#008000;fill-opacity:0.5;stroke:#008000;stroke-linejoin:miter;stroke-opacity:0.5;" x="226.394619" xlink:href="#m327e9e067d" y="123.158395"/>
     <use style="fill:#008000;fill-opacity:0.5;stroke:#008000;stroke-linejoin:miter;stroke-opacity:0.5;" x="231.661207" xlink:href="#m327e9e067d" y="160.133765"/>
     <use style="fill:#008000;fill-opacity:0.5;stroke:#008000;stroke-linejoin:miter;stroke-opacity:0.5;" x="236.9168" xlink:href="#m327e9e067d" y="212.473639"/>
     <use style="fill:#008000;fill-opacity:0.5;stroke:#008000;stroke-linejoin:miter;stroke-opacity:0.5;" x="242.172393" xlink:href="#m327e9e067d" y="237.275371"/>
    </g>
   </g>
   <g id="line2d_42">
    <defs>
     <path d="M -3 3 
L 3 3 
L 3 -3 
L -3 -3 
z
" id="m58e4be4a0a" style="stroke:#ff0000;stroke-linejoin:miter;stroke-opacity:0.5;"/>
    </defs>
    <g clip-path="url(#p71a776d8ee)">
     <use style="fill:#ff0000;fill-opacity:0.5;stroke:#ff0000;stroke-linejoin:miter;stroke-opacity:0.5;" x="243.810643" xlink:href="#m58e4be4a0a" y="245.647209"/>
     <use style="fill:#ff0000;fill-opacity:0.5;stroke:#ff0000;stroke-linejoin:miter;stroke-opacity:0.5;" x="251.858957" xlink:href="#m58e4be4a0a" y="265.463111"/>
     <use style="fill:#ff0000;fill-opacity:0.5;stroke:#ff0000;stroke-linejoin:miter;stroke-opacity:0.5;" x="259.907271" xlink:href="#m58e4be4a0a" y="274.334934"/>
     <use style="fill:#ff0000;fill-opacity:0.5;stroke:#ff0000;stroke-linejoin:miter;stroke-opacity:0.5;" x="267.955584" xlink:href="#m58e4be4a0a" y="278.306959"/>
     <use style="fill:#ff0000;fill-opacity:0.5;stroke:#ff0000;stroke-linejoin:miter;stroke-opacity:0.5;" x="276.003898" xlink:href="#m58e4be4a0a" y="280.085283"/>
     <use style="fill:#ff0000;fill-opacity:0.5;stroke:#ff0000;stroke-linejoin:miter;stroke-opacity:0.5;" x="284.052212" xlink:href="#m58e4be4a0a" y="280.881461"/>
     <use style="fill:#ff0000;fill-opacity:0.5;stroke:#ff0000;stroke-linejoin:miter;stroke-opacity:0.5;" x="292.100526" xlink:href="#m58e4be4a0a" y="281.237919"/>
     <use style="fill:#ff0000;fill-opacity:0.5;stroke:#ff0000;stroke-linejoin:miter;stroke-opacity:0.5;" x="300.14884" xlink:href="#m58e4be4a0a" y="281.39751"/>
     <use style="fill:#ff0000;fill-opacity:0.5;stroke:#ff0000;stroke-linejoin:miter;stroke-opacity:0.5;" x="308.197154" xlink:href="#m58e4be4a0a" y="281.468961"/>
     <use style="fill:#ff0000;fill-opacity:0.5;stroke:#ff0000;stroke-linejoin:miter;stroke-opacity:0.5;" x="316.245468" xlink:href="#m58e4be4a0a" y="281.50095"/>
     <use style="fill:#ff0000;fill-opacity:0.5;stroke:#ff0000;stroke-linejoin:miter;stroke-opacity:0.5;" x="324.293781" xlink:href="#m58e4be4a0a" y="281.515272"/>
     <use style="fill:#ff0000;fill-opacity:0.5;stroke:#ff0000;stroke-linejoin:miter;stroke-opacity:0.5;" x="332.342095" xlink:href="#m58e4be4a0a" y="281.521685"/>
     <use style="fill:#ff0000;fill-opacity:0.5;stroke:#ff0000;stroke-linejoin:miter;stroke-opacity:0.5;" x="340.390409" xlink:href="#m58e4be4a0a" y="281.524555"/>
     <use style="fill:#ff0000;fill-opacity:0.5;stroke:#ff0000;stroke-linejoin:miter;stroke-opacity:0.5;" x="348.438723" xlink:href="#m58e4be4a0a" y="281.525841"/>
     <use style="fill:#ff0000;fill-opacity:0.5;stroke:#ff0000;stroke-linejoin:miter;stroke-opacity:0.5;" x="356.487037" xlink:href="#m58e4be4a0a" y="281.526416"/>
     <use style="fill:#ff0000;fill-opacity:0.5;stroke:#ff0000;stroke-linejoin:miter;stroke-opacity:0.5;" x="364.535351" xlink:href="#m58e4be4a0a" y="281.526674"/>
     <use style="fill:#ff0000;fill-opacity:0.5;stroke:#ff0000;stroke-linejoin:miter;stroke-opacity:0.5;" x="372.583665" xlink:href="#m58e4be4a0a" y="281.526789"/>
     <use style="fill:#ff0000;fill-opacity:0.5;stroke:#ff0000;stroke-linejoin:miter;stroke-opacity:0.5;" x="380.631978" xlink:href="#m58e4be4a0a" y="281.526841"/>
     <use style="fill:#ff0000;fill-opacity:0.5;stroke:#ff0000;stroke-linejoin:miter;stroke-opacity:0.5;" x="388.680292" xlink:href="#m58e4be4a0a" y="281.526864"/>
     <use style="fill:#ff0000;fill-opacity:0.5;stroke:#ff0000;stroke-linejoin:miter;stroke-opacity:0.5;" x="396.728606" xlink:href="#m58e4be4a0a" y="281.526874"/>
     <use style="fill:#ff0000;fill-opacity:0.5;stroke:#ff0000;stroke-linejoin:miter;stroke-opacity:0.5;" x="404.77692" xlink:href="#m58e4be4a0a" y="281.526879"/>
     <use style="fill:#ff0000;fill-opacity:0.5;stroke:#ff0000;stroke-linejoin:miter;stroke-opacity:0.5;" x="412.825234" xlink:href="#m58e4be4a0a" y="281.526881"/>
     <use style="fill:#ff0000;fill-opacity:0.5;stroke:#ff0000;stroke-linejoin:miter;stroke-opacity:0.5;" x="420.873548" xlink:href="#m58e4be4a0a" y="281.526882"/>
     <use style="fill:#ff0000;fill-opacity:0.5;stroke:#ff0000;stroke-linejoin:miter;stroke-opacity:0.5;" x="428.921862" xlink:href="#m58e4be4a0a" y="281.526882"/>
     <use style="fill:#ff0000;fill-opacity:0.5;stroke:#ff0000;stroke-linejoin:miter;stroke-opacity:0.5;" x="436.970175" xlink:href="#m58e4be4a0a" y="281.526882"/>
     <use style="fill:#ff0000;fill-opacity:0.5;stroke:#ff0000;stroke-linejoin:miter;stroke-opacity:0.5;" x="445.018489" xlink:href="#m58e4be4a0a" y="281.526883"/>
     <use style="fill:#ff0000;fill-opacity:0.5;stroke:#ff0000;stroke-linejoin:miter;stroke-opacity:0.5;" x="453.066803" xlink:href="#m58e4be4a0a" y="281.526883"/>
     <use style="fill:#ff0000;fill-opacity:0.5;stroke:#ff0000;stroke-linejoin:miter;stroke-opacity:0.5;" x="461.115117" xlink:href="#m58e4be4a0a" y="281.526883"/>
     <use style="fill:#ff0000;fill-opacity:0.5;stroke:#ff0000;stroke-linejoin:miter;stroke-opacity:0.5;" x="469.163431" xlink:href="#m58e4be4a0a" y="281.526883"/>
     <use style="fill:#ff0000;fill-opacity:0.5;stroke:#ff0000;stroke-linejoin:miter;stroke-opacity:0.5;" x="477.211745" xlink:href="#m58e4be4a0a" y="281.526883"/>
     <use style="fill:#ff0000;fill-opacity:0.5;stroke:#ff0000;stroke-linejoin:miter;stroke-opacity:0.5;" x="485.260059" xlink:href="#m58e4be4a0a" y="281.526883"/>
     <use style="fill:#ff0000;fill-opacity:0.5;stroke:#ff0000;stroke-linejoin:miter;stroke-opacity:0.5;" x="493.308372" xlink:href="#m58e4be4a0a" y="281.526883"/>
     <use style="fill:#ff0000;fill-opacity:0.5;stroke:#ff0000;stroke-linejoin:miter;stroke-opacity:0.5;" x="501.356686" xlink:href="#m58e4be4a0a" y="281.526883"/>
     <use style="fill:#ff0000;fill-opacity:0.5;stroke:#ff0000;stroke-linejoin:miter;stroke-opacity:0.5;" x="509.405" xlink:href="#m58e4be4a0a" y="281.526883"/>
     <use style="fill:#ff0000;fill-opacity:0.5;stroke:#ff0000;stroke-linejoin:miter;stroke-opacity:0.5;" x="517.453314" xlink:href="#m58e4be4a0a" y="281.526883"/>
     <use style="fill:#ff0000;fill-opacity:0.5;stroke:#ff0000;stroke-linejoin:miter;stroke-opacity:0.5;" x="525.501628" xlink:href="#m58e4be4a0a" y="281.526883"/>
     <use style="fill:#ff0000;fill-opacity:0.5;stroke:#ff0000;stroke-linejoin:miter;stroke-opacity:0.5;" x="533.549942" xlink:href="#m58e4be4a0a" y="281.526883"/>
     <use style="fill:#ff0000;fill-opacity:0.5;stroke:#ff0000;stroke-linejoin:miter;stroke-opacity:0.5;" x="541.598256" xlink:href="#m58e4be4a0a" y="281.526883"/>
     <use style="fill:#ff0000;fill-opacity:0.5;stroke:#ff0000;stroke-linejoin:miter;stroke-opacity:0.5;" x="549.646569" xlink:href="#m58e4be4a0a" y="281.526883"/>
     <use style="fill:#ff0000;fill-opacity:0.5;stroke:#ff0000;stroke-linejoin:miter;stroke-opacity:0.5;" x="557.694883" xlink:href="#m58e4be4a0a" y="281.526883"/>
     <use style="fill:#ff0000;fill-opacity:0.5;stroke:#ff0000;stroke-linejoin:miter;stroke-opacity:0.5;" x="565.743197" xlink:href="#m58e4be4a0a" y="281.526883"/>
     <use style="fill:#ff0000;fill-opacity:0.5;stroke:#ff0000;stroke-linejoin:miter;stroke-opacity:0.5;" x="573.791511" xlink:href="#m58e4be4a0a" y="281.526883"/>
     <use style="fill:#ff0000;fill-opacity:0.5;stroke:#ff0000;stroke-linejoin:miter;stroke-opacity:0.5;" x="581.839825" xlink:href="#m58e4be4a0a" y="281.526883"/>
     <use style="fill:#ff0000;fill-opacity:0.5;stroke:#ff0000;stroke-linejoin:miter;stroke-opacity:0.5;" x="589.888139" xlink:href="#m58e4be4a0a" y="281.526883"/>
     <use style="fill:#ff0000;fill-opacity:0.5;stroke:#ff0000;stroke-linejoin:miter;stroke-opacity:0.5;" x="597.936453" xlink:href="#m58e4be4a0a" y="281.526883"/>
     <use style="fill:#ff0000;fill-opacity:0.5;stroke:#ff0000;stroke-linejoin:miter;stroke-opacity:0.5;" x="605.984766" xlink:href="#m58e4be4a0a" y="281.526883"/>
     <use style="fill:#ff0000;fill-opacity:0.5;stroke:#ff0000;stroke-linejoin:miter;stroke-opacity:0.5;" x="614.03308" xlink:href="#m58e4be4a0a" y="281.526883"/>
     <use style="fill:#ff0000;fill-opacity:0.5;stroke:#ff0000;stroke-linejoin:miter;stroke-opacity:0.5;" x="622.081394" xlink:href="#m58e4be4a0a" y="281.526883"/>
     <use style="fill:#ff0000;fill-opacity:0.5;stroke:#ff0000;stroke-linejoin:miter;stroke-opacity:0.5;" x="630.129708" xlink:href="#m58e4be4a0a" y="281.526883"/>
     <use style="fill:#ff0000;fill-opacity:0.5;stroke:#ff0000;stroke-linejoin:miter;stroke-opacity:0.5;" x="638.178022" xlink:href="#m58e4be4a0a" y="281.526883"/>
     <use style="fill:#ff0000;fill-opacity:0.5;stroke:#ff0000;stroke-linejoin:miter;stroke-opacity:0.5;" x="646.226336" xlink:href="#m58e4be4a0a" y="281.526883"/>
     <use style="fill:#ff0000;fill-opacity:0.5;stroke:#ff0000;stroke-linejoin:miter;stroke-opacity:0.5;" x="654.27465" xlink:href="#m58e4be4a0a" y="281.526883"/>
     <use style="fill:#ff0000;fill-opacity:0.5;stroke:#ff0000;stroke-linejoin:miter;stroke-opacity:0.5;" x="662.322963" xlink:href="#m58e4be4a0a" y="281.526883"/>
     <use style="fill:#ff0000;fill-opacity:0.5;stroke:#ff0000;stroke-linejoin:miter;stroke-opacity:0.5;" x="670.371277" xlink:href="#m58e4be4a0a" y="281.526883"/>
     <use style="fill:#ff0000;fill-opacity:0.5;stroke:#ff0000;stroke-linejoin:miter;stroke-opacity:0.5;" x="678.419591" xlink:href="#m58e4be4a0a" y="281.526883"/>
     <use style="fill:#ff0000;fill-opacity:0.5;stroke:#ff0000;stroke-linejoin:miter;stroke-opacity:0.5;" x="686.467905" xlink:href="#m58e4be4a0a" y="281.526883"/>
     <use style="fill:#ff0000;fill-opacity:0.5;stroke:#ff0000;stroke-linejoin:miter;stroke-opacity:0.5;" x="694.516219" xlink:href="#m58e4be4a0a" y="281.526883"/>
     <use style="fill:#ff0000;fill-opacity:0.5;stroke:#ff0000;stroke-linejoin:miter;stroke-opacity:0.5;" x="702.564533" xlink:href="#m58e4be4a0a" y="281.526883"/>
     <use style="fill:#ff0000;fill-opacity:0.5;stroke:#ff0000;stroke-linejoin:miter;stroke-opacity:0.5;" x="710.612847" xlink:href="#m58e4be4a0a" y="281.526883"/>
     <use style="fill:#ff0000;fill-opacity:0.5;stroke:#ff0000;stroke-linejoin:miter;stroke-opacity:0.5;" x="718.66116" xlink:href="#m58e4be4a0a" y="281.526883"/>
     <use style="fill:#ff0000;fill-opacity:0.5;stroke:#ff0000;stroke-linejoin:miter;stroke-opacity:0.5;" x="726.709474" xlink:href="#m58e4be4a0a" y="281.526883"/>
     <use style="fill:#ff0000;fill-opacity:0.5;stroke:#ff0000;stroke-linejoin:miter;stroke-opacity:0.5;" x="734.757788" xlink:href="#m58e4be4a0a" y="281.526883"/>
     <use style="fill:#ff0000;fill-opacity:0.5;stroke:#ff0000;stroke-linejoin:miter;stroke-opacity:0.5;" x="742.806102" xlink:href="#m58e4be4a0a" y="281.526883"/>
     <use style="fill:#ff0000;fill-opacity:0.5;stroke:#ff0000;stroke-linejoin:miter;stroke-opacity:0.5;" x="750.854416" xlink:href="#m58e4be4a0a" y="281.526883"/>
     <use style="fill:#ff0000;fill-opacity:0.5;stroke:#ff0000;stroke-linejoin:miter;stroke-opacity:0.5;" x="758.90273" xlink:href="#m58e4be4a0a" y="281.526883"/>
     <use style="fill:#ff0000;fill-opacity:0.5;stroke:#ff0000;stroke-linejoin:miter;stroke-opacity:0.5;" x="766.951044" xlink:href="#m58e4be4a0a" y="281.526883"/>
     <use style="fill:#ff0000;fill-opacity:0.5;stroke:#ff0000;stroke-linejoin:miter;stroke-opacity:0.5;" x="774.999357" xlink:href="#m58e4be4a0a" y="281.526883"/>
     <use style="fill:#ff0000;fill-opacity:0.5;stroke:#ff0000;stroke-linejoin:miter;stroke-opacity:0.5;" x="783.047671" xlink:href="#m58e4be4a0a" y="281.526883"/>
     <use style="fill:#ff0000;fill-opacity:0.5;stroke:#ff0000;stroke-linejoin:miter;stroke-opacity:0.5;" x="791.095985" xlink:href="#m58e4be4a0a" y="281.526883"/>
     <use style="fill:#ff0000;fill-opacity:0.5;stroke:#ff0000;stroke-linejoin:miter;stroke-opacity:0.5;" x="799.144299" xlink:href="#m58e4be4a0a" y="281.526883"/>
     <use style="fill:#ff0000;fill-opacity:0.5;stroke:#ff0000;stroke-linejoin:miter;stroke-opacity:0.5;" x="807.192613" xlink:href="#m58e4be4a0a" y="281.526883"/>
     <use style="fill:#ff0000;fill-opacity:0.5;stroke:#ff0000;stroke-linejoin:miter;stroke-opacity:0.5;" x="815.240927" xlink:href="#m58e4be4a0a" y="281.526883"/>
     <use style="fill:#ff0000;fill-opacity:0.5;stroke:#ff0000;stroke-linejoin:miter;stroke-opacity:0.5;" x="823.289241" xlink:href="#m58e4be4a0a" y="281.526883"/>
     <use style="fill:#ff0000;fill-opacity:0.5;stroke:#ff0000;stroke-linejoin:miter;stroke-opacity:0.5;" x="831.337554" xlink:href="#m58e4be4a0a" y="281.526883"/>
     <use style="fill:#ff0000;fill-opacity:0.5;stroke:#ff0000;stroke-linejoin:miter;stroke-opacity:0.5;" x="839.385868" xlink:href="#m58e4be4a0a" y="281.526883"/>
     <use style="fill:#ff0000;fill-opacity:0.5;stroke:#ff0000;stroke-linejoin:miter;stroke-opacity:0.5;" x="847.434182" xlink:href="#m58e4be4a0a" y="281.526883"/>
     <use style="fill:#ff0000;fill-opacity:0.5;stroke:#ff0000;stroke-linejoin:miter;stroke-opacity:0.5;" x="855.482496" xlink:href="#m58e4be4a0a" y="281.526883"/>
     <use style="fill:#ff0000;fill-opacity:0.5;stroke:#ff0000;stroke-linejoin:miter;stroke-opacity:0.5;" x="863.53081" xlink:href="#m58e4be4a0a" y="281.526883"/>
     <use style="fill:#ff0000;fill-opacity:0.5;stroke:#ff0000;stroke-linejoin:miter;stroke-opacity:0.5;" x="871.579124" xlink:href="#m58e4be4a0a" y="281.526883"/>
     <use style="fill:#ff0000;fill-opacity:0.5;stroke:#ff0000;stroke-linejoin:miter;stroke-opacity:0.5;" x="879.627438" xlink:href="#m58e4be4a0a" y="281.526883"/>
     <use style="fill:#ff0000;fill-opacity:0.5;stroke:#ff0000;stroke-linejoin:miter;stroke-opacity:0.5;" x="887.675751" xlink:href="#m58e4be4a0a" y="281.526883"/>
     <use style="fill:#ff0000;fill-opacity:0.5;stroke:#ff0000;stroke-linejoin:miter;stroke-opacity:0.5;" x="895.724065" xlink:href="#m58e4be4a0a" y="281.526883"/>
     <use style="fill:#ff0000;fill-opacity:0.5;stroke:#ff0000;stroke-linejoin:miter;stroke-opacity:0.5;" x="903.772379" xlink:href="#m58e4be4a0a" y="281.526883"/>
     <use style="fill:#ff0000;fill-opacity:0.5;stroke:#ff0000;stroke-linejoin:miter;stroke-opacity:0.5;" x="911.820693" xlink:href="#m58e4be4a0a" y="281.526883"/>
     <use style="fill:#ff0000;fill-opacity:0.5;stroke:#ff0000;stroke-linejoin:miter;stroke-opacity:0.5;" x="919.869007" xlink:href="#m58e4be4a0a" y="281.526883"/>
     <use style="fill:#ff0000;fill-opacity:0.5;stroke:#ff0000;stroke-linejoin:miter;stroke-opacity:0.5;" x="927.917321" xlink:href="#m58e4be4a0a" y="281.526883"/>
     <use style="fill:#ff0000;fill-opacity:0.5;stroke:#ff0000;stroke-linejoin:miter;stroke-opacity:0.5;" x="935.965635" xlink:href="#m58e4be4a0a" y="281.526883"/>
     <use style="fill:#ff0000;fill-opacity:0.5;stroke:#ff0000;stroke-linejoin:miter;stroke-opacity:0.5;" x="944.013948" xlink:href="#m58e4be4a0a" y="281.526883"/>
     <use style="fill:#ff0000;fill-opacity:0.5;stroke:#ff0000;stroke-linejoin:miter;stroke-opacity:0.5;" x="952.062262" xlink:href="#m58e4be4a0a" y="281.526883"/>
     <use style="fill:#ff0000;fill-opacity:0.5;stroke:#ff0000;stroke-linejoin:miter;stroke-opacity:0.5;" x="960.110576" xlink:href="#m58e4be4a0a" y="281.526883"/>
     <use style="fill:#ff0000;fill-opacity:0.5;stroke:#ff0000;stroke-linejoin:miter;stroke-opacity:0.5;" x="968.15889" xlink:href="#m58e4be4a0a" y="281.526883"/>
     <use style="fill:#ff0000;fill-opacity:0.5;stroke:#ff0000;stroke-linejoin:miter;stroke-opacity:0.5;" x="976.207204" xlink:href="#m58e4be4a0a" y="281.526883"/>
     <use style="fill:#ff0000;fill-opacity:0.5;stroke:#ff0000;stroke-linejoin:miter;stroke-opacity:0.5;" x="984.255518" xlink:href="#m58e4be4a0a" y="281.526883"/>
     <use style="fill:#ff0000;fill-opacity:0.5;stroke:#ff0000;stroke-linejoin:miter;stroke-opacity:0.5;" x="992.303832" xlink:href="#m58e4be4a0a" y="281.526883"/>
     <use style="fill:#ff0000;fill-opacity:0.5;stroke:#ff0000;stroke-linejoin:miter;stroke-opacity:0.5;" x="1000.352145" xlink:href="#m58e4be4a0a" y="281.526883"/>
     <use style="fill:#ff0000;fill-opacity:0.5;stroke:#ff0000;stroke-linejoin:miter;stroke-opacity:0.5;" x="1008.400459" xlink:href="#m58e4be4a0a" y="281.526883"/>
     <use style="fill:#ff0000;fill-opacity:0.5;stroke:#ff0000;stroke-linejoin:miter;stroke-opacity:0.5;" x="1016.448773" xlink:href="#m58e4be4a0a" y="281.526883"/>
     <use style="fill:#ff0000;fill-opacity:0.5;stroke:#ff0000;stroke-linejoin:miter;stroke-opacity:0.5;" x="1024.497087" xlink:href="#m58e4be4a0a" y="281.526883"/>
     <use style="fill:#ff0000;fill-opacity:0.5;stroke:#ff0000;stroke-linejoin:miter;stroke-opacity:0.5;" x="1032.545401" xlink:href="#m58e4be4a0a" y="281.526883"/>
     <use style="fill:#ff0000;fill-opacity:0.5;stroke:#ff0000;stroke-linejoin:miter;stroke-opacity:0.5;" x="1040.593715" xlink:href="#m58e4be4a0a" y="281.526883"/>
     <use style="fill:#ff0000;fill-opacity:0.5;stroke:#ff0000;stroke-linejoin:miter;stroke-opacity:0.5;" x="1048.642029" xlink:href="#m58e4be4a0a" y="281.526883"/>
     <use style="fill:#ff0000;fill-opacity:0.5;stroke:#ff0000;stroke-linejoin:miter;stroke-opacity:0.5;" x="1056.690342" xlink:href="#m58e4be4a0a" y="281.526883"/>
     <use style="fill:#ff0000;fill-opacity:0.5;stroke:#ff0000;stroke-linejoin:miter;stroke-opacity:0.5;" x="1064.738656" xlink:href="#m58e4be4a0a" y="281.526883"/>
     <use style="fill:#ff0000;fill-opacity:0.5;stroke:#ff0000;stroke-linejoin:miter;stroke-opacity:0.5;" x="1072.78697" xlink:href="#m58e4be4a0a" y="281.526883"/>
     <use style="fill:#ff0000;fill-opacity:0.5;stroke:#ff0000;stroke-linejoin:miter;stroke-opacity:0.5;" x="1080.835284" xlink:href="#m58e4be4a0a" y="281.526883"/>
     <use style="fill:#ff0000;fill-opacity:0.5;stroke:#ff0000;stroke-linejoin:miter;stroke-opacity:0.5;" x="1088.883598" xlink:href="#m58e4be4a0a" y="281.526883"/>
     <use style="fill:#ff0000;fill-opacity:0.5;stroke:#ff0000;stroke-linejoin:miter;stroke-opacity:0.5;" x="1096.931912" xlink:href="#m58e4be4a0a" y="281.526883"/>
     <use style="fill:#ff0000;fill-opacity:0.5;stroke:#ff0000;stroke-linejoin:miter;stroke-opacity:0.5;" x="1104.980226" xlink:href="#m58e4be4a0a" y="281.526883"/>
     <use style="fill:#ff0000;fill-opacity:0.5;stroke:#ff0000;stroke-linejoin:miter;stroke-opacity:0.5;" x="1113.028539" xlink:href="#m58e4be4a0a" y="281.526883"/>
     <use style="fill:#ff0000;fill-opacity:0.5;stroke:#ff0000;stroke-linejoin:miter;stroke-opacity:0.5;" x="1121.076853" xlink:href="#m58e4be4a0a" y="281.526883"/>
     <use style="fill:#ff0000;fill-opacity:0.5;stroke:#ff0000;stroke-linejoin:miter;stroke-opacity:0.5;" x="1129.125167" xlink:href="#m58e4be4a0a" y="281.526883"/>
     <use style="fill:#ff0000;fill-opacity:0.5;stroke:#ff0000;stroke-linejoin:miter;stroke-opacity:0.5;" x="1137.173481" xlink:href="#m58e4be4a0a" y="281.526883"/>
     <use style="fill:#ff0000;fill-opacity:0.5;stroke:#ff0000;stroke-linejoin:miter;stroke-opacity:0.5;" x="1145.221795" xlink:href="#m58e4be4a0a" y="281.526883"/>
     <use style="fill:#ff0000;fill-opacity:0.5;stroke:#ff0000;stroke-linejoin:miter;stroke-opacity:0.5;" x="1153.270109" xlink:href="#m58e4be4a0a" y="281.526883"/>
     <use style="fill:#ff0000;fill-opacity:0.5;stroke:#ff0000;stroke-linejoin:miter;stroke-opacity:0.5;" x="1161.318423" xlink:href="#m58e4be4a0a" y="281.526883"/>
     <use style="fill:#ff0000;fill-opacity:0.5;stroke:#ff0000;stroke-linejoin:miter;stroke-opacity:0.5;" x="1169.366736" xlink:href="#m58e4be4a0a" y="281.526883"/>
     <use style="fill:#ff0000;fill-opacity:0.5;stroke:#ff0000;stroke-linejoin:miter;stroke-opacity:0.5;" x="1177.41505" xlink:href="#m58e4be4a0a" y="281.526883"/>
     <use style="fill:#ff0000;fill-opacity:0.5;stroke:#ff0000;stroke-linejoin:miter;stroke-opacity:0.5;" x="1185.463364" xlink:href="#m58e4be4a0a" y="281.526883"/>
     <use style="fill:#ff0000;fill-opacity:0.5;stroke:#ff0000;stroke-linejoin:miter;stroke-opacity:0.5;" x="1193.511678" xlink:href="#m58e4be4a0a" y="281.526883"/>
     <use style="fill:#ff0000;fill-opacity:0.5;stroke:#ff0000;stroke-linejoin:miter;stroke-opacity:0.5;" x="1201.559992" xlink:href="#m58e4be4a0a" y="281.526883"/>
     <use style="fill:#ff0000;fill-opacity:0.5;stroke:#ff0000;stroke-linejoin:miter;stroke-opacity:0.5;" x="1209.608306" xlink:href="#m58e4be4a0a" y="281.526883"/>
     <use style="fill:#ff0000;fill-opacity:0.5;stroke:#ff0000;stroke-linejoin:miter;stroke-opacity:0.5;" x="1217.65662" xlink:href="#m58e4be4a0a" y="281.526883"/>
     <use style="fill:#ff0000;fill-opacity:0.5;stroke:#ff0000;stroke-linejoin:miter;stroke-opacity:0.5;" x="1225.704933" xlink:href="#m58e4be4a0a" y="281.526883"/>
     <use style="fill:#ff0000;fill-opacity:0.5;stroke:#ff0000;stroke-linejoin:miter;stroke-opacity:0.5;" x="1233.753247" xlink:href="#m58e4be4a0a" y="281.526883"/>
     <use style="fill:#ff0000;fill-opacity:0.5;stroke:#ff0000;stroke-linejoin:miter;stroke-opacity:0.5;" x="1241.801561" xlink:href="#m58e4be4a0a" y="281.526883"/>
     <use style="fill:#ff0000;fill-opacity:0.5;stroke:#ff0000;stroke-linejoin:miter;stroke-opacity:0.5;" x="1249.849875" xlink:href="#m58e4be4a0a" y="281.526883"/>
     <use style="fill:#ff0000;fill-opacity:0.5;stroke:#ff0000;stroke-linejoin:miter;stroke-opacity:0.5;" x="1257.898189" xlink:href="#m58e4be4a0a" y="281.526883"/>
     <use style="fill:#ff0000;fill-opacity:0.5;stroke:#ff0000;stroke-linejoin:miter;stroke-opacity:0.5;" x="1265.946503" xlink:href="#m58e4be4a0a" y="281.526883"/>
     <use style="fill:#ff0000;fill-opacity:0.5;stroke:#ff0000;stroke-linejoin:miter;stroke-opacity:0.5;" x="1273.994817" xlink:href="#m58e4be4a0a" y="281.526883"/>
     <use style="fill:#ff0000;fill-opacity:0.5;stroke:#ff0000;stroke-linejoin:miter;stroke-opacity:0.5;" x="1282.04313" xlink:href="#m58e4be4a0a" y="281.526883"/>
     <use style="fill:#ff0000;fill-opacity:0.5;stroke:#ff0000;stroke-linejoin:miter;stroke-opacity:0.5;" x="1290.091444" xlink:href="#m58e4be4a0a" y="281.526883"/>
     <use style="fill:#ff0000;fill-opacity:0.5;stroke:#ff0000;stroke-linejoin:miter;stroke-opacity:0.5;" x="1298.139758" xlink:href="#m58e4be4a0a" y="281.526883"/>
     <use style="fill:#ff0000;fill-opacity:0.5;stroke:#ff0000;stroke-linejoin:miter;stroke-opacity:0.5;" x="1306.188072" xlink:href="#m58e4be4a0a" y="281.526883"/>
     <use style="fill:#ff0000;fill-opacity:0.5;stroke:#ff0000;stroke-linejoin:miter;stroke-opacity:0.5;" x="1314.236386" xlink:href="#m58e4be4a0a" y="281.526883"/>
     <use style="fill:#ff0000;fill-opacity:0.5;stroke:#ff0000;stroke-linejoin:miter;stroke-opacity:0.5;" x="1322.2847" xlink:href="#m58e4be4a0a" y="281.526883"/>
     <use style="fill:#ff0000;fill-opacity:0.5;stroke:#ff0000;stroke-linejoin:miter;stroke-opacity:0.5;" x="1330.333014" xlink:href="#m58e4be4a0a" y="281.526883"/>
     <use style="fill:#ff0000;fill-opacity:0.5;stroke:#ff0000;stroke-linejoin:miter;stroke-opacity:0.5;" x="1338.381327" xlink:href="#m58e4be4a0a" y="281.526883"/>
     <use style="fill:#ff0000;fill-opacity:0.5;stroke:#ff0000;stroke-linejoin:miter;stroke-opacity:0.5;" x="1346.429641" xlink:href="#m58e4be4a0a" y="281.526883"/>
     <use style="fill:#ff0000;fill-opacity:0.5;stroke:#ff0000;stroke-linejoin:miter;stroke-opacity:0.5;" x="1354.477955" xlink:href="#m58e4be4a0a" y="281.526883"/>
     <use style="fill:#ff0000;fill-opacity:0.5;stroke:#ff0000;stroke-linejoin:miter;stroke-opacity:0.5;" x="1362.526269" xlink:href="#m58e4be4a0a" y="281.526883"/>
     <use style="fill:#ff0000;fill-opacity:0.5;stroke:#ff0000;stroke-linejoin:miter;stroke-opacity:0.5;" x="1370.574583" xlink:href="#m58e4be4a0a" y="281.526883"/>
     <use style="fill:#ff0000;fill-opacity:0.5;stroke:#ff0000;stroke-linejoin:miter;stroke-opacity:0.5;" x="1378.622897" xlink:href="#m58e4be4a0a" y="281.526883"/>
     <use style="fill:#ff0000;fill-opacity:0.5;stroke:#ff0000;stroke-linejoin:miter;stroke-opacity:0.5;" x="1386.671211" xlink:href="#m58e4be4a0a" y="281.526883"/>
     <use style="fill:#ff0000;fill-opacity:0.5;stroke:#ff0000;stroke-linejoin:miter;stroke-opacity:0.5;" x="1394.719524" xlink:href="#m58e4be4a0a" y="281.526883"/>
     <use style="fill:#ff0000;fill-opacity:0.5;stroke:#ff0000;stroke-linejoin:miter;stroke-opacity:0.5;" x="1402.767838" xlink:href="#m58e4be4a0a" y="281.526883"/>
     <use style="fill:#ff0000;fill-opacity:0.5;stroke:#ff0000;stroke-linejoin:miter;stroke-opacity:0.5;" x="1410.816152" xlink:href="#m58e4be4a0a" y="281.526883"/>
     <use style="fill:#ff0000;fill-opacity:0.5;stroke:#ff0000;stroke-linejoin:miter;stroke-opacity:0.5;" x="1418.864466" xlink:href="#m58e4be4a0a" y="281.526883"/>
     <use style="fill:#ff0000;fill-opacity:0.5;stroke:#ff0000;stroke-linejoin:miter;stroke-opacity:0.5;" x="1426.91278" xlink:href="#m58e4be4a0a" y="281.526883"/>
     <use style="fill:#ff0000;fill-opacity:0.5;stroke:#ff0000;stroke-linejoin:miter;stroke-opacity:0.5;" x="1434.961094" xlink:href="#m58e4be4a0a" y="281.526883"/>
     <use style="fill:#ff0000;fill-opacity:0.5;stroke:#ff0000;stroke-linejoin:miter;stroke-opacity:0.5;" x="1443.009408" xlink:href="#m58e4be4a0a" y="281.526883"/>
     <use style="fill:#ff0000;fill-opacity:0.5;stroke:#ff0000;stroke-linejoin:miter;stroke-opacity:0.5;" x="1451.057721" xlink:href="#m58e4be4a0a" y="281.526883"/>
     <use style="fill:#ff0000;fill-opacity:0.5;stroke:#ff0000;stroke-linejoin:miter;stroke-opacity:0.5;" x="1459.106035" xlink:href="#m58e4be4a0a" y="281.526883"/>
     <use style="fill:#ff0000;fill-opacity:0.5;stroke:#ff0000;stroke-linejoin:miter;stroke-opacity:0.5;" x="1467.154349" xlink:href="#m58e4be4a0a" y="281.526883"/>
     <use style="fill:#ff0000;fill-opacity:0.5;stroke:#ff0000;stroke-linejoin:miter;stroke-opacity:0.5;" x="1475.202663" xlink:href="#m58e4be4a0a" y="281.526883"/>
     <use style="fill:#ff0000;fill-opacity:0.5;stroke:#ff0000;stroke-linejoin:miter;stroke-opacity:0.5;" x="1483.250977" xlink:href="#m58e4be4a0a" y="281.526883"/>
     <use style="fill:#ff0000;fill-opacity:0.5;stroke:#ff0000;stroke-linejoin:miter;stroke-opacity:0.5;" x="1491.299291" xlink:href="#m58e4be4a0a" y="281.526883"/>
     <use style="fill:#ff0000;fill-opacity:0.5;stroke:#ff0000;stroke-linejoin:miter;stroke-opacity:0.5;" x="1499.347605" xlink:href="#m58e4be4a0a" y="281.526883"/>
     <use style="fill:#ff0000;fill-opacity:0.5;stroke:#ff0000;stroke-linejoin:miter;stroke-opacity:0.5;" x="1507.395918" xlink:href="#m58e4be4a0a" y="281.526883"/>
     <use style="fill:#ff0000;fill-opacity:0.5;stroke:#ff0000;stroke-linejoin:miter;stroke-opacity:0.5;" x="1515.444232" xlink:href="#m58e4be4a0a" y="281.526883"/>
     <use style="fill:#ff0000;fill-opacity:0.5;stroke:#ff0000;stroke-linejoin:miter;stroke-opacity:0.5;" x="1523.492546" xlink:href="#m58e4be4a0a" y="281.526883"/>
     <use style="fill:#ff0000;fill-opacity:0.5;stroke:#ff0000;stroke-linejoin:miter;stroke-opacity:0.5;" x="1531.54086" xlink:href="#m58e4be4a0a" y="281.526883"/>
     <use style="fill:#ff0000;fill-opacity:0.5;stroke:#ff0000;stroke-linejoin:miter;stroke-opacity:0.5;" x="1539.589174" xlink:href="#m58e4be4a0a" y="281.526883"/>
     <use style="fill:#ff0000;fill-opacity:0.5;stroke:#ff0000;stroke-linejoin:miter;stroke-opacity:0.5;" x="1547.637488" xlink:href="#m58e4be4a0a" y="281.526883"/>
     <use style="fill:#ff0000;fill-opacity:0.5;stroke:#ff0000;stroke-linejoin:miter;stroke-opacity:0.5;" x="1555.685802" xlink:href="#m58e4be4a0a" y="281.526883"/>
     <use style="fill:#ff0000;fill-opacity:0.5;stroke:#ff0000;stroke-linejoin:miter;stroke-opacity:0.5;" x="1563.734115" xlink:href="#m58e4be4a0a" y="281.526883"/>
     <use style="fill:#ff0000;fill-opacity:0.5;stroke:#ff0000;stroke-linejoin:miter;stroke-opacity:0.5;" x="1571.782429" xlink:href="#m58e4be4a0a" y="281.526883"/>
     <use style="fill:#ff0000;fill-opacity:0.5;stroke:#ff0000;stroke-linejoin:miter;stroke-opacity:0.5;" x="1579.830743" xlink:href="#m58e4be4a0a" y="281.526883"/>
     <use style="fill:#ff0000;fill-opacity:0.5;stroke:#ff0000;stroke-linejoin:miter;stroke-opacity:0.5;" x="1587.879057" xlink:href="#m58e4be4a0a" y="281.526883"/>
     <use style="fill:#ff0000;fill-opacity:0.5;stroke:#ff0000;stroke-linejoin:miter;stroke-opacity:0.5;" x="1595.927371" xlink:href="#m58e4be4a0a" y="281.526883"/>
     <use style="fill:#ff0000;fill-opacity:0.5;stroke:#ff0000;stroke-linejoin:miter;stroke-opacity:0.5;" x="1603.975685" xlink:href="#m58e4be4a0a" y="281.526883"/>
     <use style="fill:#ff0000;fill-opacity:0.5;stroke:#ff0000;stroke-linejoin:miter;stroke-opacity:0.5;" x="1612.023999" xlink:href="#m58e4be4a0a" y="281.526883"/>
     <use style="fill:#ff0000;fill-opacity:0.5;stroke:#ff0000;stroke-linejoin:miter;stroke-opacity:0.5;" x="1620.072312" xlink:href="#m58e4be4a0a" y="281.526883"/>
     <use style="fill:#ff0000;fill-opacity:0.5;stroke:#ff0000;stroke-linejoin:miter;stroke-opacity:0.5;" x="1628.120626" xlink:href="#m58e4be4a0a" y="281.526883"/>
     <use style="fill:#ff0000;fill-opacity:0.5;stroke:#ff0000;stroke-linejoin:miter;stroke-opacity:0.5;" x="1636.16894" xlink:href="#m58e4be4a0a" y="281.526883"/>
     <use style="fill:#ff0000;fill-opacity:0.5;stroke:#ff0000;stroke-linejoin:miter;stroke-opacity:0.5;" x="1644.217254" xlink:href="#m58e4be4a0a" y="281.526883"/>
     <use style="fill:#ff0000;fill-opacity:0.5;stroke:#ff0000;stroke-linejoin:miter;stroke-opacity:0.5;" x="1652.265568" xlink:href="#m58e4be4a0a" y="281.526883"/>
     <use style="fill:#ff0000;fill-opacity:0.5;stroke:#ff0000;stroke-linejoin:miter;stroke-opacity:0.5;" x="1660.313882" xlink:href="#m58e4be4a0a" y="281.526883"/>
     <use style="fill:#ff0000;fill-opacity:0.5;stroke:#ff0000;stroke-linejoin:miter;stroke-opacity:0.5;" x="1668.362196" xlink:href="#m58e4be4a0a" y="281.526883"/>
     <use style="fill:#ff0000;fill-opacity:0.5;stroke:#ff0000;stroke-linejoin:miter;stroke-opacity:0.5;" x="1676.410509" xlink:href="#m58e4be4a0a" y="281.526883"/>
     <use style="fill:#ff0000;fill-opacity:0.5;stroke:#ff0000;stroke-linejoin:miter;stroke-opacity:0.5;" x="1684.458823" xlink:href="#m58e4be4a0a" y="281.526883"/>
     <use style="fill:#ff0000;fill-opacity:0.5;stroke:#ff0000;stroke-linejoin:miter;stroke-opacity:0.5;" x="1692.507137" xlink:href="#m58e4be4a0a" y="281.526883"/>
     <use style="fill:#ff0000;fill-opacity:0.5;stroke:#ff0000;stroke-linejoin:miter;stroke-opacity:0.5;" x="1700.555451" xlink:href="#m58e4be4a0a" y="281.526883"/>
     <use style="fill:#ff0000;fill-opacity:0.5;stroke:#ff0000;stroke-linejoin:miter;stroke-opacity:0.5;" x="1708.603765" xlink:href="#m58e4be4a0a" y="281.526883"/>
     <use style="fill:#ff0000;fill-opacity:0.5;stroke:#ff0000;stroke-linejoin:miter;stroke-opacity:0.5;" x="1716.652079" xlink:href="#m58e4be4a0a" y="281.526883"/>
     <use style="fill:#ff0000;fill-opacity:0.5;stroke:#ff0000;stroke-linejoin:miter;stroke-opacity:0.5;" x="1724.700393" xlink:href="#m58e4be4a0a" y="281.526883"/>
     <use style="fill:#ff0000;fill-opacity:0.5;stroke:#ff0000;stroke-linejoin:miter;stroke-opacity:0.5;" x="1732.748706" xlink:href="#m58e4be4a0a" y="281.526883"/>
     <use style="fill:#ff0000;fill-opacity:0.5;stroke:#ff0000;stroke-linejoin:miter;stroke-opacity:0.5;" x="1740.79702" xlink:href="#m58e4be4a0a" y="281.526883"/>
     <use style="fill:#ff0000;fill-opacity:0.5;stroke:#ff0000;stroke-linejoin:miter;stroke-opacity:0.5;" x="1748.845334" xlink:href="#m58e4be4a0a" y="281.526883"/>
     <use style="fill:#ff0000;fill-opacity:0.5;stroke:#ff0000;stroke-linejoin:miter;stroke-opacity:0.5;" x="1756.893648" xlink:href="#m58e4be4a0a" y="281.526883"/>
     <use style="fill:#ff0000;fill-opacity:0.5;stroke:#ff0000;stroke-linejoin:miter;stroke-opacity:0.5;" x="1764.941962" xlink:href="#m58e4be4a0a" y="281.526883"/>
     <use style="fill:#ff0000;fill-opacity:0.5;stroke:#ff0000;stroke-linejoin:miter;stroke-opacity:0.5;" x="1772.990276" xlink:href="#m58e4be4a0a" y="281.526883"/>
     <use style="fill:#ff0000;fill-opacity:0.5;stroke:#ff0000;stroke-linejoin:miter;stroke-opacity:0.5;" x="1781.03859" xlink:href="#m58e4be4a0a" y="281.526883"/>
     <use style="fill:#ff0000;fill-opacity:0.5;stroke:#ff0000;stroke-linejoin:miter;stroke-opacity:0.5;" x="1789.086903" xlink:href="#m58e4be4a0a" y="281.526883"/>
     <use style="fill:#ff0000;fill-opacity:0.5;stroke:#ff0000;stroke-linejoin:miter;stroke-opacity:0.5;" x="1797.135217" xlink:href="#m58e4be4a0a" y="281.526883"/>
     <use style="fill:#ff0000;fill-opacity:0.5;stroke:#ff0000;stroke-linejoin:miter;stroke-opacity:0.5;" x="1805.183531" xlink:href="#m58e4be4a0a" y="281.526883"/>
     <use style="fill:#ff0000;fill-opacity:0.5;stroke:#ff0000;stroke-linejoin:miter;stroke-opacity:0.5;" x="1813.231845" xlink:href="#m58e4be4a0a" y="281.526883"/>
     <use style="fill:#ff0000;fill-opacity:0.5;stroke:#ff0000;stroke-linejoin:miter;stroke-opacity:0.5;" x="1821.280159" xlink:href="#m58e4be4a0a" y="281.526883"/>
     <use style="fill:#ff0000;fill-opacity:0.5;stroke:#ff0000;stroke-linejoin:miter;stroke-opacity:0.5;" x="1829.328473" xlink:href="#m58e4be4a0a" y="281.526883"/>
     <use style="fill:#ff0000;fill-opacity:0.5;stroke:#ff0000;stroke-linejoin:miter;stroke-opacity:0.5;" x="1837.376787" xlink:href="#m58e4be4a0a" y="281.526883"/>
     <use style="fill:#ff0000;fill-opacity:0.5;stroke:#ff0000;stroke-linejoin:miter;stroke-opacity:0.5;" x="1845.4251" xlink:href="#m58e4be4a0a" y="281.526883"/>
     <use style="fill:#ff0000;fill-opacity:0.5;stroke:#ff0000;stroke-linejoin:miter;stroke-opacity:0.5;" x="1853.473414" xlink:href="#m58e4be4a0a" y="281.526883"/>
     <use style="fill:#ff0000;fill-opacity:0.5;stroke:#ff0000;stroke-linejoin:miter;stroke-opacity:0.5;" x="1861.521728" xlink:href="#m58e4be4a0a" y="281.526883"/>
     <use style="fill:#ff0000;fill-opacity:0.5;stroke:#ff0000;stroke-linejoin:miter;stroke-opacity:0.5;" x="1869.570042" xlink:href="#m58e4be4a0a" y="281.526883"/>
     <use style="fill:#ff0000;fill-opacity:0.5;stroke:#ff0000;stroke-linejoin:miter;stroke-opacity:0.5;" x="1877.618356" xlink:href="#m58e4be4a0a" y="281.526883"/>
     <use style="fill:#ff0000;fill-opacity:0.5;stroke:#ff0000;stroke-linejoin:miter;stroke-opacity:0.5;" x="1885.66667" xlink:href="#m58e4be4a0a" y="281.526883"/>
     <use style="fill:#ff0000;fill-opacity:0.5;stroke:#ff0000;stroke-linejoin:miter;stroke-opacity:0.5;" x="1893.714984" xlink:href="#m58e4be4a0a" y="281.526883"/>
     <use style="fill:#ff0000;fill-opacity:0.5;stroke:#ff0000;stroke-linejoin:miter;stroke-opacity:0.5;" x="1901.763297" xlink:href="#m58e4be4a0a" y="281.526883"/>
     <use style="fill:#ff0000;fill-opacity:0.5;stroke:#ff0000;stroke-linejoin:miter;stroke-opacity:0.5;" x="1909.811611" xlink:href="#m58e4be4a0a" y="281.526883"/>
     <use style="fill:#ff0000;fill-opacity:0.5;stroke:#ff0000;stroke-linejoin:miter;stroke-opacity:0.5;" x="1917.859925" xlink:href="#m58e4be4a0a" y="281.526883"/>
     <use style="fill:#ff0000;fill-opacity:0.5;stroke:#ff0000;stroke-linejoin:miter;stroke-opacity:0.5;" x="1925.908239" xlink:href="#m58e4be4a0a" y="281.526883"/>
     <use style="fill:#ff0000;fill-opacity:0.5;stroke:#ff0000;stroke-linejoin:miter;stroke-opacity:0.5;" x="1933.956553" xlink:href="#m58e4be4a0a" y="281.526883"/>
     <use style="fill:#ff0000;fill-opacity:0.5;stroke:#ff0000;stroke-linejoin:miter;stroke-opacity:0.5;" x="1942.004867" xlink:href="#m58e4be4a0a" y="281.526883"/>
     <use style="fill:#ff0000;fill-opacity:0.5;stroke:#ff0000;stroke-linejoin:miter;stroke-opacity:0.5;" x="1950.053181" xlink:href="#m58e4be4a0a" y="281.526883"/>
     <use style="fill:#ff0000;fill-opacity:0.5;stroke:#ff0000;stroke-linejoin:miter;stroke-opacity:0.5;" x="1958.101494" xlink:href="#m58e4be4a0a" y="281.526883"/>
     <use style="fill:#ff0000;fill-opacity:0.5;stroke:#ff0000;stroke-linejoin:miter;stroke-opacity:0.5;" x="1966.149808" xlink:href="#m58e4be4a0a" y="281.526883"/>
     <use style="fill:#ff0000;fill-opacity:0.5;stroke:#ff0000;stroke-linejoin:miter;stroke-opacity:0.5;" x="1974.198122" xlink:href="#m58e4be4a0a" y="281.526883"/>
     <use style="fill:#ff0000;fill-opacity:0.5;stroke:#ff0000;stroke-linejoin:miter;stroke-opacity:0.5;" x="1982.246436" xlink:href="#m58e4be4a0a" y="281.526883"/>
     <use style="fill:#ff0000;fill-opacity:0.5;stroke:#ff0000;stroke-linejoin:miter;stroke-opacity:0.5;" x="1990.29475" xlink:href="#m58e4be4a0a" y="281.526883"/>
     <use style="fill:#ff0000;fill-opacity:0.5;stroke:#ff0000;stroke-linejoin:miter;stroke-opacity:0.5;" x="1998.343064" xlink:href="#m58e4be4a0a" y="281.526883"/>
     <use style="fill:#ff0000;fill-opacity:0.5;stroke:#ff0000;stroke-linejoin:miter;stroke-opacity:0.5;" x="2006.391378" xlink:href="#m58e4be4a0a" y="281.526883"/>
     <use style="fill:#ff0000;fill-opacity:0.5;stroke:#ff0000;stroke-linejoin:miter;stroke-opacity:0.5;" x="2014.439691" xlink:href="#m58e4be4a0a" y="281.526883"/>
     <use style="fill:#ff0000;fill-opacity:0.5;stroke:#ff0000;stroke-linejoin:miter;stroke-opacity:0.5;" x="2022.488005" xlink:href="#m58e4be4a0a" y="281.526883"/>
     <use style="fill:#ff0000;fill-opacity:0.5;stroke:#ff0000;stroke-linejoin:miter;stroke-opacity:0.5;" x="2030.536319" xlink:href="#m58e4be4a0a" y="281.526883"/>
     <use style="fill:#ff0000;fill-opacity:0.5;stroke:#ff0000;stroke-linejoin:miter;stroke-opacity:0.5;" x="2038.584633" xlink:href="#m58e4be4a0a" y="281.526883"/>
     <use style="fill:#ff0000;fill-opacity:0.5;stroke:#ff0000;stroke-linejoin:miter;stroke-opacity:0.5;" x="2046.632947" xlink:href="#m58e4be4a0a" y="281.526883"/>
     <use style="fill:#ff0000;fill-opacity:0.5;stroke:#ff0000;stroke-linejoin:miter;stroke-opacity:0.5;" x="2054.681261" xlink:href="#m58e4be4a0a" y="281.526883"/>
     <use style="fill:#ff0000;fill-opacity:0.5;stroke:#ff0000;stroke-linejoin:miter;stroke-opacity:0.5;" x="2062.729575" xlink:href="#m58e4be4a0a" y="281.526883"/>
     <use style="fill:#ff0000;fill-opacity:0.5;stroke:#ff0000;stroke-linejoin:miter;stroke-opacity:0.5;" x="2070.777888" xlink:href="#m58e4be4a0a" y="281.526883"/>
     <use style="fill:#ff0000;fill-opacity:0.5;stroke:#ff0000;stroke-linejoin:miter;stroke-opacity:0.5;" x="2078.826202" xlink:href="#m58e4be4a0a" y="281.526883"/>
     <use style="fill:#ff0000;fill-opacity:0.5;stroke:#ff0000;stroke-linejoin:miter;stroke-opacity:0.5;" x="2086.874516" xlink:href="#m58e4be4a0a" y="281.526883"/>
     <use style="fill:#ff0000;fill-opacity:0.5;stroke:#ff0000;stroke-linejoin:miter;stroke-opacity:0.5;" x="2094.92283" xlink:href="#m58e4be4a0a" y="281.526883"/>
     <use style="fill:#ff0000;fill-opacity:0.5;stroke:#ff0000;stroke-linejoin:miter;stroke-opacity:0.5;" x="2102.971144" xlink:href="#m58e4be4a0a" y="281.526883"/>
     <use style="fill:#ff0000;fill-opacity:0.5;stroke:#ff0000;stroke-linejoin:miter;stroke-opacity:0.5;" x="2111.019458" xlink:href="#m58e4be4a0a" y="281.526883"/>
     <use style="fill:#ff0000;fill-opacity:0.5;stroke:#ff0000;stroke-linejoin:miter;stroke-opacity:0.5;" x="2119.067772" xlink:href="#m58e4be4a0a" y="281.526883"/>
     <use style="fill:#ff0000;fill-opacity:0.5;stroke:#ff0000;stroke-linejoin:miter;stroke-opacity:0.5;" x="2127.116085" xlink:href="#m58e4be4a0a" y="281.526883"/>
     <use style="fill:#ff0000;fill-opacity:0.5;stroke:#ff0000;stroke-linejoin:miter;stroke-opacity:0.5;" x="2135.164399" xlink:href="#m58e4be4a0a" y="281.526883"/>
     <use style="fill:#ff0000;fill-opacity:0.5;stroke:#ff0000;stroke-linejoin:miter;stroke-opacity:0.5;" x="2143.212713" xlink:href="#m58e4be4a0a" y="281.526883"/>
     <use style="fill:#ff0000;fill-opacity:0.5;stroke:#ff0000;stroke-linejoin:miter;stroke-opacity:0.5;" x="2151.261027" xlink:href="#m58e4be4a0a" y="281.526883"/>
     <use style="fill:#ff0000;fill-opacity:0.5;stroke:#ff0000;stroke-linejoin:miter;stroke-opacity:0.5;" x="2159.309341" xlink:href="#m58e4be4a0a" y="281.526883"/>
     <use style="fill:#ff0000;fill-opacity:0.5;stroke:#ff0000;stroke-linejoin:miter;stroke-opacity:0.5;" x="2167.357655" xlink:href="#m58e4be4a0a" y="281.526883"/>
     <use style="fill:#ff0000;fill-opacity:0.5;stroke:#ff0000;stroke-linejoin:miter;stroke-opacity:0.5;" x="2175.405969" xlink:href="#m58e4be4a0a" y="281.526883"/>
     <use style="fill:#ff0000;fill-opacity:0.5;stroke:#ff0000;stroke-linejoin:miter;stroke-opacity:0.5;" x="2183.454282" xlink:href="#m58e4be4a0a" y="281.526883"/>
     <use style="fill:#ff0000;fill-opacity:0.5;stroke:#ff0000;stroke-linejoin:miter;stroke-opacity:0.5;" x="2191.502596" xlink:href="#m58e4be4a0a" y="281.526883"/>
     <use style="fill:#ff0000;fill-opacity:0.5;stroke:#ff0000;stroke-linejoin:miter;stroke-opacity:0.5;" x="2199.55091" xlink:href="#m58e4be4a0a" y="281.526883"/>
     <use style="fill:#ff0000;fill-opacity:0.5;stroke:#ff0000;stroke-linejoin:miter;stroke-opacity:0.5;" x="2207.599224" xlink:href="#m58e4be4a0a" y="281.526883"/>
     <use style="fill:#ff0000;fill-opacity:0.5;stroke:#ff0000;stroke-linejoin:miter;stroke-opacity:0.5;" x="2215.647538" xlink:href="#m58e4be4a0a" y="281.526883"/>
     <use style="fill:#ff0000;fill-opacity:0.5;stroke:#ff0000;stroke-linejoin:miter;stroke-opacity:0.5;" x="2223.695852" xlink:href="#m58e4be4a0a" y="281.526883"/>
     <use style="fill:#ff0000;fill-opacity:0.5;stroke:#ff0000;stroke-linejoin:miter;stroke-opacity:0.5;" x="2231.744166" xlink:href="#m58e4be4a0a" y="281.526883"/>
     <use style="fill:#ff0000;fill-opacity:0.5;stroke:#ff0000;stroke-linejoin:miter;stroke-opacity:0.5;" x="2239.792479" xlink:href="#m58e4be4a0a" y="281.526883"/>
     <use style="fill:#ff0000;fill-opacity:0.5;stroke:#ff0000;stroke-linejoin:miter;stroke-opacity:0.5;" x="2247.840793" xlink:href="#m58e4be4a0a" y="281.526883"/>
     <use style="fill:#ff0000;fill-opacity:0.5;stroke:#ff0000;stroke-linejoin:miter;stroke-opacity:0.5;" x="2255.889107" xlink:href="#m58e4be4a0a" y="281.526883"/>
    </g>
   </g>
   <g id="patch_3">
    <path d="M 56.89625 293.472083 
L 56.89625 30.677667 
" style="fill:none;stroke:#bcbcbc;stroke-linecap:square;stroke-linejoin:miter;stroke-width:0.8;"/>
   </g>
   <g id="patch_4">
    <path d="M 441.72 293.472083 
L 441.72 30.677667 
" style="fill:none;stroke:#bcbcbc;stroke-linecap:square;stroke-linejoin:miter;stroke-width:0.8;"/>
   </g>
   <g id="patch_5">
    <path d="M 56.89625 293.472083 
L 441.72 293.472083 
" style="fill:none;stroke:#bcbcbc;stroke-linecap:square;stroke-linejoin:miter;stroke-width:0.8;"/>
   </g>
   <g id="patch_6">
    <path d="M 56.89625 30.677667 
L 441.72 30.677667 
" style="fill:none;stroke:#bcbcbc;stroke-linecap:square;stroke-linejoin:miter;stroke-width:0.8;"/>
   </g>
   <g id="text_18">
    <!-- $^{197}$Au($\gamma$,n)$^{196}$Au -->
    <defs>
     <path d="M 9.28125 0 
L 9.28125 3.515625 
Q 21.78125 3.515625 21.78125 6.6875 
L 21.78125 59.1875 
Q 16.609375 56.6875 8.6875 56.6875 
L 8.6875 60.203125 
Q 20.953125 60.203125 27.203125 66.609375 
L 28.609375 66.609375 
Q 28.953125 66.609375 29.265625 66.328125 
Q 29.59375 66.0625 29.59375 65.71875 
L 29.59375 6.6875 
Q 29.59375 3.515625 42.09375 3.515625 
L 42.09375 0 
z
" id="Cmr10-49"/>
     <path d="M 11.28125 4.203125 
Q 14.015625 0.984375 20.796875 0.984375 
Q 24.609375 0.984375 27.90625 3.5625 
Q 31.203125 6.15625 33.015625 9.90625 
Q 35.109375 14.15625 35.6875 18.96875 
Q 36.28125 23.78125 36.28125 30.90625 
Q 34.578125 26.859375 31.375 24.265625 
Q 28.171875 21.6875 24.03125 21.6875 
Q 18.21875 21.6875 13.640625 24.828125 
Q 9.078125 27.984375 6.640625 33.125 
Q 4.203125 38.28125 4.203125 44.09375 
Q 4.203125 50.09375 6.9375 55.296875 
Q 9.671875 60.5 14.5 63.546875 
Q 19.34375 66.609375 25.484375 66.609375 
Q 31.546875 66.609375 35.625 63.3125 
Q 39.703125 60.015625 41.84375 54.8125 
Q 44 49.609375 44.84375 43.796875 
Q 45.703125 37.984375 45.703125 32.328125 
Q 45.703125 24.609375 42.875 16.578125 
Q 40.046875 8.546875 34.40625 3.171875 
Q 28.765625 -2.203125 20.796875 -2.203125 
Q 14.890625 -2.203125 10.78125 0.578125 
Q 6.6875 3.375 6.6875 8.984375 
Q 6.6875 11.03125 8.078125 12.421875 
Q 9.46875 13.8125 11.53125 13.8125 
Q 13.53125 13.8125 14.921875 12.421875 
Q 16.3125 11.03125 16.3125 8.984375 
Q 16.3125 7.03125 14.890625 5.609375 
Q 13.484375 4.203125 11.53125 4.203125 
z
M 24.421875 24.3125 
Q 28.515625 24.3125 31.125 27.0625 
Q 33.734375 29.828125 34.90625 33.921875 
Q 36.078125 38.03125 36.078125 42.09375 
L 36.078125 44 
L 36.078125 44.390625 
Q 36.078125 51.90625 33.875 57.8125 
Q 31.6875 63.71875 25.484375 63.71875 
Q 21.53125 63.71875 19.0625 61.984375 
Q 16.609375 60.25 15.4375 57.375 
Q 14.265625 54.5 13.9375 51.21875 
Q 13.625 47.953125 13.625 44.09375 
Q 13.625 38.421875 14.15625 34.421875 
Q 14.703125 30.421875 17.09375 27.359375 
Q 19.484375 24.3125 24.421875 24.3125 
z
" id="Cmr10-57"/>
     <path d="M 17.390625 2.59375 
Q 17.390625 8.15625 18.359375 13.46875 
Q 19.34375 18.796875 21.21875 24 
Q 23.09375 29.203125 25.75 34.203125 
Q 28.421875 39.203125 31.59375 43.609375 
L 40.71875 56.296875 
L 29.296875 56.296875 
Q 11.53125 56.296875 10.984375 55.8125 
Q 9.671875 54.203125 8.5 46.578125 
L 5.609375 46.578125 
L 8.890625 67.578125 
L 11.8125 67.578125 
L 11.8125 67.28125 
Q 11.8125 65.484375 17.921875 64.9375 
Q 24.03125 64.40625 29.890625 64.40625 
L 48.484375 64.40625 
L 48.484375 61.8125 
Q 48.484375 61.71875 48.453125 61.671875 
Q 48.4375 61.625 48.390625 61.53125 
L 34.625 42.1875 
Q 29.546875 34.671875 28.265625 25.484375 
Q 27 16.3125 27 2.59375 
Q 27 0.640625 25.578125 -0.78125 
Q 24.171875 -2.203125 22.21875 -2.203125 
Q 20.21875 -2.203125 18.796875 -0.78125 
Q 17.390625 0.640625 17.390625 2.59375 
z
" id="Cmr10-55"/>
     <path d="M -0.140625 0 
L 27.34375 71.578125 
L 37.546875 71.578125 
L 66.84375 0 
L 56.0625 0 
L 47.703125 21.6875 
L 17.78125 21.6875 
L 9.90625 0 
z
M 20.515625 29.390625 
L 44.78125 29.390625 
L 37.3125 49.21875 
Q 33.890625 58.25 32.234375 64.0625 
Q 30.859375 57.171875 28.375 50.390625 
z
" id="ArialMT-65"/>
     <path d="M 40.578125 0 
L 40.578125 7.625 
Q 34.515625 -1.171875 24.125 -1.171875 
Q 19.53125 -1.171875 15.546875 0.578125 
Q 11.578125 2.34375 9.640625 5 
Q 7.71875 7.671875 6.9375 11.53125 
Q 6.390625 14.109375 6.390625 19.734375 
L 6.390625 51.859375 
L 15.1875 51.859375 
L 15.1875 23.09375 
Q 15.1875 16.21875 15.71875 13.8125 
Q 16.546875 10.359375 19.234375 8.375 
Q 21.921875 6.390625 25.875 6.390625 
Q 29.828125 6.390625 33.296875 8.421875 
Q 36.765625 10.453125 38.203125 13.9375 
Q 39.65625 17.4375 39.65625 24.078125 
L 39.65625 51.859375 
L 48.4375 51.859375 
L 48.4375 0 
z
" id="ArialMT-117"/>
     <path d="M 29.5 -19.578125 
Q 29.5 -17.328125 30.5 -13.03125 
Q 31.5 -8.734375 32.9375 -3.875 
Q 34.375 0.984375 35.40625 4.109375 
Q 35.796875 9.078125 35.796875 11.625 
Q 35.796875 18.0625 34.515625 23.609375 
Q 33.25 29.15625 29.734375 32.890625 
Q 26.21875 36.625 19.921875 36.625 
Q 16.609375 36.625 13.3125 35.203125 
Q 10.015625 33.796875 7.640625 31.25 
Q 5.28125 28.71875 4.390625 25.484375 
Q 4.203125 24.90625 3.609375 24.90625 
L 2.390625 24.90625 
Q 1.609375 24.90625 1.609375 25.78125 
L 1.609375 26.125 
Q 2.734375 30.609375 5.59375 34.78125 
Q 8.453125 38.96875 12.578125 41.578125 
Q 16.703125 44.1875 21.296875 44.1875 
Q 25.984375 44.1875 29.390625 41.015625 
Q 32.8125 37.84375 34.859375 32.953125 
Q 36.921875 28.078125 37.8125 23.09375 
Q 38.71875 18.109375 38.71875 13.71875 
Q 43.75 27.390625 50 39.59375 
L 51.515625 42.828125 
Q 51.8125 43.109375 52.203125 43.109375 
L 53.421875 43.109375 
Q 54.203125 43.109375 54.203125 42.1875 
Q 54.203125 42 54 41.609375 
L 52.484375 38.484375 
Q 48.140625 29.828125 44.5 20.9375 
Q 40.875 12.0625 38.28125 3.8125 
Q 37.890625 0.4375 36.78125 -5.421875 
Q 35.6875 -11.28125 34.125 -16.328125 
Q 32.5625 -21.390625 31 -21.578125 
Q 29.5 -21.578125 29.5 -19.578125 
z
" id="Cmmi10-176"/>
     <path d="M 8.890625 0 
L 8.890625 10.015625 
L 18.890625 10.015625 
L 18.890625 0 
Q 18.890625 -5.515625 16.9375 -8.90625 
Q 14.984375 -12.3125 10.75 -14.15625 
L 8.296875 -10.40625 
Q 11.078125 -9.1875 12.390625 -6.8125 
Q 13.71875 -4.4375 13.875 0 
z
" id="ArialMT-44"/>
     <path d="M 25 -2.203125 
Q 18.796875 -2.203125 14.640625 1.09375 
Q 10.5 4.390625 8.21875 9.640625 
Q 5.953125 14.890625 5.078125 20.65625 
Q 4.203125 26.421875 4.203125 32.328125 
Q 4.203125 40.234375 7.28125 48.1875 
Q 10.359375 56.15625 16.328125 61.375 
Q 22.3125 66.609375 30.515625 66.609375 
Q 33.9375 66.609375 36.890625 65.3125 
Q 39.84375 64.015625 41.53125 61.5 
Q 43.21875 58.984375 43.21875 55.421875 
Q 43.21875 53.375 41.828125 51.984375 
Q 40.4375 50.59375 38.375 50.59375 
Q 36.421875 50.59375 35 52 
Q 33.59375 53.421875 33.59375 55.421875 
Q 33.59375 57.375 35 58.78125 
Q 36.421875 60.203125 38.375 60.203125 
L 38.921875 60.203125 
Q 37.640625 62.015625 35.328125 62.859375 
Q 33.015625 63.71875 30.515625 63.71875 
Q 27.484375 63.71875 24.921875 62.390625 
Q 22.359375 61.078125 20.3125 58.828125 
Q 18.265625 56.59375 16.890625 53.875 
Q 15.53125 51.171875 14.765625 47.703125 
Q 14.015625 44.234375 13.8125 41.203125 
Q 13.625 38.1875 13.625 33.59375 
Q 15.375 37.703125 18.59375 40.3125 
Q 21.828125 42.921875 25.875 42.921875 
Q 30.328125 42.921875 33.984375 41.109375 
Q 37.640625 39.3125 40.28125 36.109375 
Q 42.921875 32.90625 44.3125 28.796875 
Q 45.703125 24.703125 45.703125 20.515625 
Q 45.703125 14.65625 43.09375 9.34375 
Q 40.484375 4.046875 35.734375 0.921875 
Q 31 -2.203125 25 -2.203125 
z
M 25 0.984375 
Q 28.859375 0.984375 31.203125 2.734375 
Q 33.546875 4.5 34.640625 7.390625 
Q 35.75 10.296875 36.015625 13.25 
Q 36.28125 16.21875 36.28125 20.515625 
Q 36.28125 26.171875 35.734375 30.171875 
Q 35.203125 34.1875 32.8125 37.234375 
Q 30.421875 40.28125 25.484375 40.28125 
Q 21.4375 40.28125 18.828125 37.546875 
Q 16.21875 34.8125 15.015625 30.640625 
Q 13.8125 26.46875 13.8125 22.609375 
Q 13.8125 21.296875 13.921875 20.609375 
Q 13.921875 20.453125 13.890625 20.359375 
Q 13.875 20.265625 13.8125 20.125 
Q 13.8125 15.828125 14.6875 11.421875 
Q 15.578125 7.03125 18.0625 4 
Q 20.5625 0.984375 25 0.984375 
z
" id="Cmr10-54"/>
    </defs>
    <g transform="translate(200.420125 24.677667)scale(0.144 -0.144)">
     <use transform="translate(4.464141 38.695313)scale(0.7)" xlink:href="#Cmr10-49"/>
     <use transform="translate(39.464141 38.695313)scale(0.7)" xlink:href="#Cmr10-57"/>
     <use transform="translate(74.464141 38.695313)scale(0.7)" xlink:href="#Cmr10-55"/>
     <use transform="translate(115.841484 0.43125)" xlink:href="#ArialMT-65"/>
     <use transform="translate(182.540703 0.43125)" xlink:href="#ArialMT-117"/>
     <use transform="translate(238.155937 0.43125)" xlink:href="#ArialMT-40"/>
     <use transform="translate(271.456719 0.43125)" xlink:href="#Cmmi10-176"/>
     <use transform="translate(323.165703 0.43125)" xlink:href="#ArialMT-44"/>
     <use transform="translate(350.948906 0.43125)" xlink:href="#ArialMT-110"/>
     <use transform="translate(406.564141 0.43125)" xlink:href="#ArialMT-41"/>
     <use transform="translate(444.329063 38.695313)scale(0.7)" xlink:href="#Cmr10-49"/>
     <use transform="translate(479.329063 38.695313)scale(0.7)" xlink:href="#Cmr10-57"/>
     <use transform="translate(514.329063 38.695313)scale(0.7)" xlink:href="#Cmr10-54"/>
     <use transform="translate(555.706406 0.43125)" xlink:href="#ArialMT-65"/>
     <use transform="translate(622.405625 0.43125)" xlink:href="#ArialMT-117"/>
    </g>
   </g>
   <g id="legend_1">
    <g id="patch_7">
     <path d="M 342.685625 66.968292 
L 434.72 66.968292 
Q 436.72 66.968292 436.72 64.968292 
L 436.72 37.677667 
Q 436.72 35.677667 434.72 35.677667 
L 342.685625 35.677667 
Q 340.685625 35.677667 340.685625 37.677667 
L 340.685625 64.968292 
Q 340.685625 66.968292 342.685625 66.968292 
z
" style="fill:#eeeeee;opacity:0.8;stroke:#cccccc;stroke-linejoin:miter;stroke-width:0.5;"/>
    </g>
    <g id="line2d_43"/>
    <g id="line2d_44">
     <g>
      <use style="fill:#008000;fill-opacity:0.5;stroke:#008000;stroke-linejoin:miter;stroke-opacity:0.5;" x="354.685625" xlink:href="#m327e9e067d" y="43.335479"/>
     </g>
    </g>
    <g id="text_19">
     <!-- Berman 1987 -->
     <defs>
      <path d="M 7.328125 0 
L 7.328125 71.578125 
L 34.1875 71.578125 
Q 42.390625 71.578125 47.34375 69.40625 
Q 52.296875 67.234375 55.09375 62.71875 
Q 57.90625 58.203125 57.90625 53.265625 
Q 57.90625 48.6875 55.421875 44.625 
Q 52.9375 40.578125 47.90625 38.09375 
Q 54.390625 36.1875 57.875 31.59375 
Q 61.375 27 61.375 20.75 
Q 61.375 15.71875 59.25 11.390625 
Q 57.125 7.078125 54 4.734375 
Q 50.875 2.390625 46.15625 1.1875 
Q 41.453125 0 34.625 0 
z
M 16.796875 41.5 
L 32.28125 41.5 
Q 38.578125 41.5 41.3125 42.328125 
Q 44.921875 43.40625 46.75 45.890625 
Q 48.578125 48.390625 48.578125 52.15625 
Q 48.578125 55.71875 46.875 58.421875 
Q 45.171875 61.140625 41.984375 62.140625 
Q 38.8125 63.140625 31.109375 63.140625 
L 16.796875 63.140625 
z
M 16.796875 8.453125 
L 34.625 8.453125 
Q 39.203125 8.453125 41.0625 8.796875 
Q 44.34375 9.375 46.53125 10.734375 
Q 48.734375 12.109375 50.140625 14.71875 
Q 51.5625 17.328125 51.5625 20.75 
Q 51.5625 24.75 49.515625 27.703125 
Q 47.46875 30.671875 43.828125 31.859375 
Q 40.1875 33.0625 33.34375 33.0625 
L 16.796875 33.0625 
z
" id="ArialMT-66"/>
      <path d="M 6.59375 0 
L 6.59375 51.859375 
L 14.453125 51.859375 
L 14.453125 44.578125 
Q 16.890625 48.390625 20.9375 50.703125 
Q 25 53.03125 30.171875 53.03125 
Q 35.9375 53.03125 39.625 50.640625 
Q 43.3125 48.25 44.828125 43.953125 
Q 50.984375 53.03125 60.84375 53.03125 
Q 68.5625 53.03125 72.703125 48.75 
Q 76.859375 44.484375 76.859375 35.59375 
L 76.859375 0 
L 68.109375 0 
L 68.109375 32.671875 
Q 68.109375 37.9375 67.25 40.25 
Q 66.40625 42.578125 64.15625 43.984375 
Q 61.921875 45.40625 58.890625 45.40625 
Q 53.421875 45.40625 49.796875 41.765625 
Q 46.1875 38.140625 46.1875 30.125 
L 46.1875 0 
L 37.40625 0 
L 37.40625 33.6875 
Q 37.40625 39.546875 35.25 42.46875 
Q 33.109375 45.40625 28.21875 45.40625 
Q 24.515625 45.40625 21.359375 43.453125 
Q 18.21875 41.5 16.796875 37.734375 
Q 15.375 33.984375 15.375 26.90625 
L 15.375 0 
z
" id="ArialMT-109"/>
      <path d="M 40.4375 6.390625 
Q 35.546875 2.25 31.03125 0.53125 
Q 26.515625 -1.171875 21.34375 -1.171875 
Q 12.796875 -1.171875 8.203125 3 
Q 3.609375 7.171875 3.609375 13.671875 
Q 3.609375 17.484375 5.34375 20.625 
Q 7.078125 23.78125 9.890625 25.6875 
Q 12.703125 27.59375 16.21875 28.5625 
Q 18.796875 29.25 24.03125 29.890625 
Q 34.671875 31.15625 39.703125 32.90625 
Q 39.75 34.71875 39.75 35.203125 
Q 39.75 40.578125 37.25 42.78125 
Q 33.890625 45.75 27.25 45.75 
Q 21.046875 45.75 18.09375 43.578125 
Q 15.140625 41.40625 13.71875 35.890625 
L 5.125 37.0625 
Q 6.296875 42.578125 8.984375 45.96875 
Q 11.671875 49.359375 16.75 51.1875 
Q 21.828125 53.03125 28.515625 53.03125 
Q 35.15625 53.03125 39.296875 51.46875 
Q 43.453125 49.90625 45.40625 47.53125 
Q 47.359375 45.171875 48.140625 41.546875 
Q 48.578125 39.3125 48.578125 33.453125 
L 48.578125 21.734375 
Q 48.578125 9.46875 49.140625 6.21875 
Q 49.703125 2.984375 51.375 0 
L 42.1875 0 
Q 40.828125 2.734375 40.4375 6.390625 
z
M 39.703125 26.03125 
Q 34.90625 24.078125 25.34375 22.703125 
Q 19.921875 21.921875 17.671875 20.9375 
Q 15.4375 19.96875 14.203125 18.09375 
Q 12.984375 16.21875 12.984375 13.921875 
Q 12.984375 10.40625 15.640625 8.0625 
Q 18.3125 5.71875 23.4375 5.71875 
Q 28.515625 5.71875 32.46875 7.9375 
Q 36.421875 10.15625 38.28125 14.015625 
Q 39.703125 17 39.703125 22.796875 
z
" id="ArialMT-97"/>
      <path d="M 5.46875 16.546875 
L 13.921875 17.328125 
Q 14.984375 11.375 18.015625 8.6875 
Q 21.046875 6 25.78125 6 
Q 29.828125 6 32.875 7.859375 
Q 35.9375 9.71875 37.890625 12.8125 
Q 39.84375 15.921875 41.15625 21.1875 
Q 42.484375 26.46875 42.484375 31.9375 
Q 42.484375 32.515625 42.4375 33.6875 
Q 39.796875 29.5 35.234375 26.875 
Q 30.671875 24.265625 25.34375 24.265625 
Q 16.453125 24.265625 10.296875 30.703125 
Q 4.15625 37.15625 4.15625 47.703125 
Q 4.15625 58.59375 10.578125 65.234375 
Q 17 71.875 26.65625 71.875 
Q 33.640625 71.875 39.421875 68.109375 
Q 45.21875 64.359375 48.21875 57.390625 
Q 51.21875 50.4375 51.21875 37.25 
Q 51.21875 23.53125 48.234375 15.40625 
Q 45.265625 7.28125 39.375 3.03125 
Q 33.5 -1.21875 25.59375 -1.21875 
Q 17.1875 -1.21875 11.859375 3.4375 
Q 6.546875 8.109375 5.46875 16.546875 
z
M 41.453125 48.140625 
Q 41.453125 55.71875 37.421875 60.15625 
Q 33.40625 64.59375 27.734375 64.59375 
Q 21.875 64.59375 17.53125 59.8125 
Q 13.1875 55.03125 13.1875 47.40625 
Q 13.1875 40.578125 17.3125 36.296875 
Q 21.4375 32.03125 27.484375 32.03125 
Q 33.59375 32.03125 37.515625 36.296875 
Q 41.453125 40.578125 41.453125 48.140625 
z
" id="ArialMT-57"/>
      <path d="M 17.671875 38.8125 
Q 12.203125 40.828125 9.5625 44.53125 
Q 6.9375 48.25 6.9375 53.421875 
Q 6.9375 61.234375 12.546875 66.546875 
Q 18.171875 71.875 27.484375 71.875 
Q 36.859375 71.875 42.578125 66.421875 
Q 48.296875 60.984375 48.296875 53.171875 
Q 48.296875 48.1875 45.671875 44.5 
Q 43.0625 40.828125 37.75 38.8125 
Q 44.34375 36.671875 47.78125 31.875 
Q 51.21875 27.09375 51.21875 20.453125 
Q 51.21875 11.28125 44.71875 5.03125 
Q 38.234375 -1.21875 27.640625 -1.21875 
Q 17.046875 -1.21875 10.546875 5.046875 
Q 4.046875 11.328125 4.046875 20.703125 
Q 4.046875 27.6875 7.59375 32.390625 
Q 11.140625 37.109375 17.671875 38.8125 
z
M 15.921875 53.71875 
Q 15.921875 48.640625 19.1875 45.40625 
Q 22.46875 42.1875 27.6875 42.1875 
Q 32.765625 42.1875 36.015625 45.375 
Q 39.265625 48.578125 39.265625 53.21875 
Q 39.265625 58.0625 35.90625 61.359375 
Q 32.5625 64.65625 27.59375 64.65625 
Q 22.5625 64.65625 19.234375 61.421875 
Q 15.921875 58.203125 15.921875 53.71875 
z
M 13.09375 20.65625 
Q 13.09375 16.890625 14.875 13.375 
Q 16.65625 9.859375 20.171875 7.921875 
Q 23.6875 6 27.734375 6 
Q 34.03125 6 38.125 10.046875 
Q 42.234375 14.109375 42.234375 20.359375 
Q 42.234375 26.703125 38.015625 30.859375 
Q 33.796875 35.015625 27.4375 35.015625 
Q 21.234375 35.015625 17.15625 30.90625 
Q 13.09375 26.8125 13.09375 20.65625 
z
" id="ArialMT-56"/>
     </defs>
     <g transform="translate(372.685625 46.835479)scale(0.1 -0.1)">
      <use xlink:href="#ArialMT-66"/>
      <use x="66.699219" xlink:href="#ArialMT-101"/>
      <use x="122.314453" xlink:href="#ArialMT-114"/>
      <use x="155.615234" xlink:href="#ArialMT-109"/>
      <use x="238.916016" xlink:href="#ArialMT-97"/>
      <use x="294.53125" xlink:href="#ArialMT-110"/>
      <use x="350.146484" xlink:href="#ArialMT-32"/>
      <use x="377.929688" xlink:href="#ArialMT-49"/>
      <use x="433.544922" xlink:href="#ArialMT-57"/>
      <use x="489.160156" xlink:href="#ArialMT-56"/>
      <use x="544.775391" xlink:href="#ArialMT-55"/>
     </g>
    </g>
    <g id="line2d_45"/>
    <g id="line2d_46">
     <g>
      <use style="fill:#ff0000;fill-opacity:0.5;stroke:#ff0000;stroke-linejoin:miter;stroke-opacity:0.5;" x="354.685625" xlink:href="#m58e4be4a0a" y="57.480792"/>
     </g>
    </g>
    <g id="text_20">
     <!-- Extrapolated -->
     <defs>
      <path d="M 0.734375 0 
L 19.671875 26.953125 
L 2.15625 51.859375 
L 13.140625 51.859375 
L 21.09375 39.703125 
Q 23.34375 36.234375 24.703125 33.890625 
Q 26.859375 37.109375 28.65625 39.59375 
L 37.40625 51.859375 
L 47.90625 51.859375 
L 29.984375 27.4375 
L 49.265625 0 
L 38.484375 0 
L 27.828125 16.109375 
L 25 20.453125 
L 11.375 0 
z
" id="ArialMT-120"/>
      <path d="M 6.59375 -19.875 
L 6.59375 51.859375 
L 14.59375 51.859375 
L 14.59375 45.125 
Q 17.4375 49.078125 21 51.046875 
Q 24.5625 53.03125 29.640625 53.03125 
Q 36.28125 53.03125 41.359375 49.609375 
Q 46.4375 46.1875 49.015625 39.953125 
Q 51.609375 33.734375 51.609375 26.3125 
Q 51.609375 18.359375 48.75 11.984375 
Q 45.90625 5.609375 40.453125 2.21875 
Q 35.015625 -1.171875 29 -1.171875 
Q 24.609375 -1.171875 21.109375 0.6875 
Q 17.625 2.546875 15.375 5.375 
L 15.375 -19.875 
z
M 14.546875 25.640625 
Q 14.546875 15.625 18.59375 10.84375 
Q 22.65625 6.0625 28.421875 6.0625 
Q 34.28125 6.0625 38.453125 11.015625 
Q 42.625 15.96875 42.625 26.375 
Q 42.625 36.28125 38.546875 41.203125 
Q 34.46875 46.140625 28.8125 46.140625 
Q 23.1875 46.140625 18.859375 40.890625 
Q 14.546875 35.640625 14.546875 25.640625 
z
" id="ArialMT-112"/>
      <path d="M 6.390625 0 
L 6.390625 71.578125 
L 15.1875 71.578125 
L 15.1875 0 
z
" id="ArialMT-108"/>
      <path d="M 40.234375 0 
L 40.234375 6.546875 
Q 35.296875 -1.171875 25.734375 -1.171875 
Q 19.53125 -1.171875 14.328125 2.25 
Q 9.125 5.671875 6.265625 11.796875 
Q 3.421875 17.921875 3.421875 25.875 
Q 3.421875 33.640625 6 39.96875 
Q 8.59375 46.296875 13.765625 49.65625 
Q 18.953125 53.03125 25.34375 53.03125 
Q 30.03125 53.03125 33.6875 51.046875 
Q 37.359375 49.078125 39.65625 45.90625 
L 39.65625 71.578125 
L 48.390625 71.578125 
L 48.390625 0 
z
M 12.453125 25.875 
Q 12.453125 15.921875 16.640625 10.984375 
Q 20.84375 6.0625 26.5625 6.0625 
Q 32.328125 6.0625 36.34375 10.765625 
Q 40.375 15.484375 40.375 25.140625 
Q 40.375 35.796875 36.265625 40.765625 
Q 32.171875 45.75 26.171875 45.75 
Q 20.3125 45.75 16.375 40.96875 
Q 12.453125 36.1875 12.453125 25.875 
z
" id="ArialMT-100"/>
     </defs>
     <g transform="translate(372.685625 60.980792)scale(0.1 -0.1)">
      <use xlink:href="#ArialMT-69"/>
      <use x="66.699219" xlink:href="#ArialMT-120"/>
      <use x="116.699219" xlink:href="#ArialMT-116"/>
      <use x="144.482422" xlink:href="#ArialMT-114"/>
      <use x="177.783203" xlink:href="#ArialMT-97"/>
      <use x="233.398438" xlink:href="#ArialMT-112"/>
      <use x="289.013672" xlink:href="#ArialMT-111"/>
      <use x="344.628906" xlink:href="#ArialMT-108"/>
      <use x="366.845703" xlink:href="#ArialMT-97"/>
      <use x="422.460938" xlink:href="#ArialMT-116"/>
      <use x="450.244141" xlink:href="#ArialMT-101"/>
      <use x="505.859375" xlink:href="#ArialMT-100"/>
     </g>
    </g>
   </g>
  </g>
 </g>
 <defs>
  <clipPath id="p71a776d8ee">
   <rect height="262.794417" width="384.82375" x="56.89625" y="30.677667"/>
  </clipPath>
 </defs>
</svg>
