<?xml version="1.0" encoding="utf-8" standalone="no"?>
<!DOCTYPE svg PUBLIC "-//W3C//DTD SVG 1.1//EN"
  "http://www.w3.org/Graphics/SVG/1.1/DTD/svg11.dtd">
<!-- Created with matplotlib (https://matplotlib.org/) -->
<svg height="344.16pt" version="1.1" viewBox="0 0 460.8 344.16" width="460.8pt" xmlns="http://www.w3.org/2000/svg" xmlns:xlink="http://www.w3.org/1999/xlink">
 <defs>
  <style type="text/css">
*{stroke-linecap:butt;stroke-linejoin:round;}
  </style>
 </defs>
 <g id="figure_1">
  <g id="patch_1">
   <path d="M 0 344.16 
L 460.8 344.16 
L 460.8 0 
L 0 0 
z
" style="fill:#ffffff;"/>
  </g>
  <g id="axes_1">
   <g id="patch_2">
    <path d="M 60.32 302.374833 
L 450 302.374833 
L 450 10.755 
L 60.32 10.755 
z
" style="fill:#ffffff;"/>
   </g>
   <g id="matplotlib.axis_1">
    <g id="xtick_1">
     <g id="line2d_1">
      <defs>
       <path d="M 0 0 
L 0 3.5 
" id="m494d7b9b4c" style="stroke:#000000;stroke-width:0.8;"/>
      </defs>
      <g>
       <use style="stroke:#000000;stroke-width:0.8;" x="123.468731" xlink:href="#m494d7b9b4c" y="302.374833"/>
      </g>
     </g>
     <g id="text_1">
      <!-- 44 -->
      <defs>
       <path d="M 37.796875 64.3125 
L 12.890625 25.390625 
L 37.796875 25.390625 
z
M 35.203125 72.90625 
L 47.609375 72.90625 
L 47.609375 25.390625 
L 58.015625 25.390625 
L 58.015625 17.1875 
L 47.609375 17.1875 
L 47.609375 0 
L 37.796875 0 
L 37.796875 17.1875 
L 4.890625 17.1875 
L 4.890625 26.703125 
z
" id="DejaVuSans-52"/>
      </defs>
      <g transform="translate(117.106231 316.973271)scale(0.1 -0.1)">
       <use xlink:href="#DejaVuSans-52"/>
       <use x="63.623047" xlink:href="#DejaVuSans-52"/>
      </g>
     </g>
    </g>
    <g id="xtick_2">
     <g id="line2d_2">
      <g>
       <use style="stroke:#000000;stroke-width:0.8;" x="198.552091" xlink:href="#m494d7b9b4c" y="302.374833"/>
      </g>
     </g>
     <g id="text_2">
      <!-- 46 -->
      <defs>
       <path d="M 33.015625 40.375 
Q 26.375 40.375 22.484375 35.828125 
Q 18.609375 31.296875 18.609375 23.390625 
Q 18.609375 15.53125 22.484375 10.953125 
Q 26.375 6.390625 33.015625 6.390625 
Q 39.65625 6.390625 43.53125 10.953125 
Q 47.40625 15.53125 47.40625 23.390625 
Q 47.40625 31.296875 43.53125 35.828125 
Q 39.65625 40.375 33.015625 40.375 
z
M 52.59375 71.296875 
L 52.59375 62.3125 
Q 48.875 64.0625 45.09375 64.984375 
Q 41.3125 65.921875 37.59375 65.921875 
Q 27.828125 65.921875 22.671875 59.328125 
Q 17.53125 52.734375 16.796875 39.40625 
Q 19.671875 43.65625 24.015625 45.921875 
Q 28.375 48.1875 33.59375 48.1875 
Q 44.578125 48.1875 50.953125 41.515625 
Q 57.328125 34.859375 57.328125 23.390625 
Q 57.328125 12.15625 50.6875 5.359375 
Q 44.046875 -1.421875 33.015625 -1.421875 
Q 20.359375 -1.421875 13.671875 8.265625 
Q 6.984375 17.96875 6.984375 36.375 
Q 6.984375 53.65625 15.1875 63.9375 
Q 23.390625 74.21875 37.203125 74.21875 
Q 40.921875 74.21875 44.703125 73.484375 
Q 48.484375 72.75 52.59375 71.296875 
z
" id="DejaVuSans-54"/>
      </defs>
      <g transform="translate(192.189591 316.973271)scale(0.1 -0.1)">
       <use xlink:href="#DejaVuSans-52"/>
       <use x="63.623047" xlink:href="#DejaVuSans-54"/>
      </g>
     </g>
    </g>
    <g id="xtick_3">
     <g id="line2d_3">
      <g>
       <use style="stroke:#000000;stroke-width:0.8;" x="273.635451" xlink:href="#m494d7b9b4c" y="302.374833"/>
      </g>
     </g>
     <g id="text_3">
      <!-- 48 -->
      <defs>
       <path d="M 31.78125 34.625 
Q 24.75 34.625 20.71875 30.859375 
Q 16.703125 27.09375 16.703125 20.515625 
Q 16.703125 13.921875 20.71875 10.15625 
Q 24.75 6.390625 31.78125 6.390625 
Q 38.8125 6.390625 42.859375 10.171875 
Q 46.921875 13.96875 46.921875 20.515625 
Q 46.921875 27.09375 42.890625 30.859375 
Q 38.875 34.625 31.78125 34.625 
z
M 21.921875 38.8125 
Q 15.578125 40.375 12.03125 44.71875 
Q 8.5 49.078125 8.5 55.328125 
Q 8.5 64.0625 14.71875 69.140625 
Q 20.953125 74.21875 31.78125 74.21875 
Q 42.671875 74.21875 48.875 69.140625 
Q 55.078125 64.0625 55.078125 55.328125 
Q 55.078125 49.078125 51.53125 44.71875 
Q 48 40.375 41.703125 38.8125 
Q 48.828125 37.15625 52.796875 32.3125 
Q 56.78125 27.484375 56.78125 20.515625 
Q 56.78125 9.90625 50.3125 4.234375 
Q 43.84375 -1.421875 31.78125 -1.421875 
Q 19.734375 -1.421875 13.25 4.234375 
Q 6.78125 9.90625 6.78125 20.515625 
Q 6.78125 27.484375 10.78125 32.3125 
Q 14.796875 37.15625 21.921875 38.8125 
z
M 18.3125 54.390625 
Q 18.3125 48.734375 21.84375 45.5625 
Q 25.390625 42.390625 31.78125 42.390625 
Q 38.140625 42.390625 41.71875 45.5625 
Q 45.3125 48.734375 45.3125 54.390625 
Q 45.3125 60.0625 41.71875 63.234375 
Q 38.140625 66.40625 31.78125 66.40625 
Q 25.390625 66.40625 21.84375 63.234375 
Q 18.3125 60.0625 18.3125 54.390625 
z
" id="DejaVuSans-56"/>
      </defs>
      <g transform="translate(267.272951 316.973271)scale(0.1 -0.1)">
       <use xlink:href="#DejaVuSans-52"/>
       <use x="63.623047" xlink:href="#DejaVuSans-56"/>
      </g>
     </g>
    </g>
    <g id="xtick_4">
     <g id="line2d_4">
      <g>
       <use style="stroke:#000000;stroke-width:0.8;" x="348.718811" xlink:href="#m494d7b9b4c" y="302.374833"/>
      </g>
     </g>
     <g id="text_4">
      <!-- 50 -->
      <defs>
       <path d="M 10.796875 72.90625 
L 49.515625 72.90625 
L 49.515625 64.59375 
L 19.828125 64.59375 
L 19.828125 46.734375 
Q 21.96875 47.46875 24.109375 47.828125 
Q 26.265625 48.1875 28.421875 48.1875 
Q 40.625 48.1875 47.75 41.5 
Q 54.890625 34.8125 54.890625 23.390625 
Q 54.890625 11.625 47.5625 5.09375 
Q 40.234375 -1.421875 26.90625 -1.421875 
Q 22.3125 -1.421875 17.546875 -0.640625 
Q 12.796875 0.140625 7.71875 1.703125 
L 7.71875 11.625 
Q 12.109375 9.234375 16.796875 8.0625 
Q 21.484375 6.890625 26.703125 6.890625 
Q 35.15625 6.890625 40.078125 11.328125 
Q 45.015625 15.765625 45.015625 23.390625 
Q 45.015625 31 40.078125 35.4375 
Q 35.15625 39.890625 26.703125 39.890625 
Q 22.75 39.890625 18.8125 39.015625 
Q 14.890625 38.140625 10.796875 36.28125 
z
" id="DejaVuSans-53"/>
       <path d="M 31.78125 66.40625 
Q 24.171875 66.40625 20.328125 58.90625 
Q 16.5 51.421875 16.5 36.375 
Q 16.5 21.390625 20.328125 13.890625 
Q 24.171875 6.390625 31.78125 6.390625 
Q 39.453125 6.390625 43.28125 13.890625 
Q 47.125 21.390625 47.125 36.375 
Q 47.125 51.421875 43.28125 58.90625 
Q 39.453125 66.40625 31.78125 66.40625 
z
M 31.78125 74.21875 
Q 44.046875 74.21875 50.515625 64.515625 
Q 56.984375 54.828125 56.984375 36.375 
Q 56.984375 17.96875 50.515625 8.265625 
Q 44.046875 -1.421875 31.78125 -1.421875 
Q 19.53125 -1.421875 13.0625 8.265625 
Q 6.59375 17.96875 6.59375 36.375 
Q 6.59375 54.828125 13.0625 64.515625 
Q 19.53125 74.21875 31.78125 74.21875 
z
" id="DejaVuSans-48"/>
      </defs>
      <g transform="translate(342.356311 316.973271)scale(0.1 -0.1)">
       <use xlink:href="#DejaVuSans-53"/>
       <use x="63.623047" xlink:href="#DejaVuSans-48"/>
      </g>
     </g>
    </g>
    <g id="xtick_5">
     <g id="line2d_5">
      <g>
       <use style="stroke:#000000;stroke-width:0.8;" x="423.802172" xlink:href="#m494d7b9b4c" y="302.374833"/>
      </g>
     </g>
     <g id="text_5">
      <!-- 52 -->
      <defs>
       <path d="M 19.1875 8.296875 
L 53.609375 8.296875 
L 53.609375 0 
L 7.328125 0 
L 7.328125 8.296875 
Q 12.9375 14.109375 22.625 23.890625 
Q 32.328125 33.6875 34.8125 36.53125 
Q 39.546875 41.84375 41.421875 45.53125 
Q 43.3125 49.21875 43.3125 52.78125 
Q 43.3125 58.59375 39.234375 62.25 
Q 35.15625 65.921875 28.609375 65.921875 
Q 23.96875 65.921875 18.8125 64.3125 
Q 13.671875 62.703125 7.8125 59.421875 
L 7.8125 69.390625 
Q 13.765625 71.78125 18.9375 73 
Q 24.125 74.21875 28.421875 74.21875 
Q 39.75 74.21875 46.484375 68.546875 
Q 53.21875 62.890625 53.21875 53.421875 
Q 53.21875 48.921875 51.53125 44.890625 
Q 49.859375 40.875 45.40625 35.40625 
Q 44.1875 33.984375 37.640625 27.21875 
Q 31.109375 20.453125 19.1875 8.296875 
z
" id="DejaVuSans-50"/>
      </defs>
      <g transform="translate(417.439672 316.973271)scale(0.1 -0.1)">
       <use xlink:href="#DejaVuSans-53"/>
       <use x="63.623047" xlink:href="#DejaVuSans-50"/>
      </g>
     </g>
    </g>
    <g id="text_6">
     <!-- Energy (MeV) -->
     <defs>
      <path d="M 9.8125 72.90625 
L 55.90625 72.90625 
L 55.90625 64.59375 
L 19.671875 64.59375 
L 19.671875 43.015625 
L 54.390625 43.015625 
L 54.390625 34.71875 
L 19.671875 34.71875 
L 19.671875 8.296875 
L 56.78125 8.296875 
L 56.78125 0 
L 9.8125 0 
z
" id="DejaVuSans-69"/>
      <path d="M 54.890625 33.015625 
L 54.890625 0 
L 45.90625 0 
L 45.90625 32.71875 
Q 45.90625 40.484375 42.875 44.328125 
Q 39.84375 48.1875 33.796875 48.1875 
Q 26.515625 48.1875 22.3125 43.546875 
Q 18.109375 38.921875 18.109375 30.90625 
L 18.109375 0 
L 9.078125 0 
L 9.078125 54.6875 
L 18.109375 54.6875 
L 18.109375 46.1875 
Q 21.34375 51.125 25.703125 53.5625 
Q 30.078125 56 35.796875 56 
Q 45.21875 56 50.046875 50.171875 
Q 54.890625 44.34375 54.890625 33.015625 
z
" id="DejaVuSans-110"/>
      <path d="M 56.203125 29.59375 
L 56.203125 25.203125 
L 14.890625 25.203125 
Q 15.484375 15.921875 20.484375 11.0625 
Q 25.484375 6.203125 34.421875 6.203125 
Q 39.59375 6.203125 44.453125 7.46875 
Q 49.3125 8.734375 54.109375 11.28125 
L 54.109375 2.78125 
Q 49.265625 0.734375 44.1875 -0.34375 
Q 39.109375 -1.421875 33.890625 -1.421875 
Q 20.796875 -1.421875 13.15625 6.1875 
Q 5.515625 13.8125 5.515625 26.8125 
Q 5.515625 40.234375 12.765625 48.109375 
Q 20.015625 56 32.328125 56 
Q 43.359375 56 49.78125 48.890625 
Q 56.203125 41.796875 56.203125 29.59375 
z
M 47.21875 32.234375 
Q 47.125 39.59375 43.09375 43.984375 
Q 39.0625 48.390625 32.421875 48.390625 
Q 24.90625 48.390625 20.390625 44.140625 
Q 15.875 39.890625 15.1875 32.171875 
z
" id="DejaVuSans-101"/>
      <path d="M 41.109375 46.296875 
Q 39.59375 47.171875 37.8125 47.578125 
Q 36.03125 48 33.890625 48 
Q 26.265625 48 22.1875 43.046875 
Q 18.109375 38.09375 18.109375 28.8125 
L 18.109375 0 
L 9.078125 0 
L 9.078125 54.6875 
L 18.109375 54.6875 
L 18.109375 46.1875 
Q 20.953125 51.171875 25.484375 53.578125 
Q 30.03125 56 36.53125 56 
Q 37.453125 56 38.578125 55.875 
Q 39.703125 55.765625 41.0625 55.515625 
z
" id="DejaVuSans-114"/>
      <path d="M 45.40625 27.984375 
Q 45.40625 37.75 41.375 43.109375 
Q 37.359375 48.484375 30.078125 48.484375 
Q 22.859375 48.484375 18.828125 43.109375 
Q 14.796875 37.75 14.796875 27.984375 
Q 14.796875 18.265625 18.828125 12.890625 
Q 22.859375 7.515625 30.078125 7.515625 
Q 37.359375 7.515625 41.375 12.890625 
Q 45.40625 18.265625 45.40625 27.984375 
z
M 54.390625 6.78125 
Q 54.390625 -7.171875 48.1875 -13.984375 
Q 42 -20.796875 29.203125 -20.796875 
Q 24.46875 -20.796875 20.265625 -20.09375 
Q 16.0625 -19.390625 12.109375 -17.921875 
L 12.109375 -9.1875 
Q 16.0625 -11.328125 19.921875 -12.34375 
Q 23.78125 -13.375 27.78125 -13.375 
Q 36.625 -13.375 41.015625 -8.765625 
Q 45.40625 -4.15625 45.40625 5.171875 
L 45.40625 9.625 
Q 42.625 4.78125 38.28125 2.390625 
Q 33.9375 0 27.875 0 
Q 17.828125 0 11.671875 7.65625 
Q 5.515625 15.328125 5.515625 27.984375 
Q 5.515625 40.671875 11.671875 48.328125 
Q 17.828125 56 27.875 56 
Q 33.9375 56 38.28125 53.609375 
Q 42.625 51.21875 45.40625 46.390625 
L 45.40625 54.6875 
L 54.390625 54.6875 
z
" id="DejaVuSans-103"/>
      <path d="M 32.171875 -5.078125 
Q 28.375 -14.84375 24.75 -17.8125 
Q 21.140625 -20.796875 15.09375 -20.796875 
L 7.90625 -20.796875 
L 7.90625 -13.28125 
L 13.1875 -13.28125 
Q 16.890625 -13.28125 18.9375 -11.515625 
Q 21 -9.765625 23.484375 -3.21875 
L 25.09375 0.875 
L 2.984375 54.6875 
L 12.5 54.6875 
L 29.59375 11.921875 
L 46.6875 54.6875 
L 56.203125 54.6875 
z
" id="DejaVuSans-121"/>
      <path id="DejaVuSans-32"/>
      <path d="M 31 75.875 
Q 24.46875 64.65625 21.28125 53.65625 
Q 18.109375 42.671875 18.109375 31.390625 
Q 18.109375 20.125 21.3125 9.0625 
Q 24.515625 -2 31 -13.1875 
L 23.1875 -13.1875 
Q 15.875 -1.703125 12.234375 9.375 
Q 8.59375 20.453125 8.59375 31.390625 
Q 8.59375 42.28125 12.203125 53.3125 
Q 15.828125 64.359375 23.1875 75.875 
z
" id="DejaVuSans-40"/>
      <path d="M 9.8125 72.90625 
L 24.515625 72.90625 
L 43.109375 23.296875 
L 61.8125 72.90625 
L 76.515625 72.90625 
L 76.515625 0 
L 66.890625 0 
L 66.890625 64.015625 
L 48.09375 14.015625 
L 38.1875 14.015625 
L 19.390625 64.015625 
L 19.390625 0 
L 9.8125 0 
z
" id="DejaVuSans-77"/>
      <path d="M 28.609375 0 
L 0.78125 72.90625 
L 11.078125 72.90625 
L 34.1875 11.53125 
L 57.328125 72.90625 
L 67.578125 72.90625 
L 39.796875 0 
z
" id="DejaVuSans-86"/>
      <path d="M 8.015625 75.875 
L 15.828125 75.875 
Q 23.140625 64.359375 26.78125 53.3125 
Q 30.421875 42.28125 30.421875 31.390625 
Q 30.421875 20.453125 26.78125 9.375 
Q 23.140625 -1.703125 15.828125 -13.1875 
L 8.015625 -13.1875 
Q 14.5 -2 17.703125 9.0625 
Q 20.90625 20.125 20.90625 31.390625 
Q 20.90625 42.671875 17.703125 53.65625 
Q 14.5 64.65625 8.015625 75.875 
z
" id="DejaVuSans-41"/>
     </defs>
     <g transform="translate(221.265469 330.651396)scale(0.1 -0.1)">
      <use xlink:href="#DejaVuSans-69"/>
      <use x="63.183594" xlink:href="#DejaVuSans-110"/>
      <use x="126.5625" xlink:href="#DejaVuSans-101"/>
      <use x="188.085938" xlink:href="#DejaVuSans-114"/>
      <use x="229.183594" xlink:href="#DejaVuSans-103"/>
      <use x="292.660156" xlink:href="#DejaVuSans-121"/>
      <use x="351.839844" xlink:href="#DejaVuSans-32"/>
      <use x="383.626953" xlink:href="#DejaVuSans-40"/>
      <use x="422.640625" xlink:href="#DejaVuSans-77"/>
      <use x="508.919922" xlink:href="#DejaVuSans-101"/>
      <use x="570.443359" xlink:href="#DejaVuSans-86"/>
      <use x="638.851562" xlink:href="#DejaVuSans-41"/>
     </g>
    </g>
   </g>
   <g id="matplotlib.axis_2">
    <g id="ytick_1">
     <g id="line2d_6">
      <defs>
       <path d="M 0 0 
L -3.5 0 
" id="m4b474a6d60" style="stroke:#000000;stroke-width:0.8;"/>
      </defs>
      <g>
       <use style="stroke:#000000;stroke-width:0.8;" x="60.32" xlink:href="#m4b474a6d60" y="291.31732"/>
      </g>
     </g>
     <g id="text_7">
      <!-- 0.000 -->
      <defs>
       <path d="M 10.6875 12.40625 
L 21 12.40625 
L 21 0 
L 10.6875 0 
z
" id="DejaVuSans-46"/>
      </defs>
      <g transform="translate(24.691875 295.116538)scale(0.1 -0.1)">
       <use xlink:href="#DejaVuSans-48"/>
       <use x="63.623047" xlink:href="#DejaVuSans-46"/>
       <use x="95.410156" xlink:href="#DejaVuSans-48"/>
       <use x="159.033203" xlink:href="#DejaVuSans-48"/>
       <use x="222.65625" xlink:href="#DejaVuSans-48"/>
      </g>
     </g>
    </g>
    <g id="ytick_2">
     <g id="line2d_7">
      <g>
       <use style="stroke:#000000;stroke-width:0.8;" x="60.32" xlink:href="#m4b474a6d60" y="250.848823"/>
      </g>
     </g>
     <g id="text_8">
      <!-- 0.001 -->
      <defs>
       <path d="M 12.40625 8.296875 
L 28.515625 8.296875 
L 28.515625 63.921875 
L 10.984375 60.40625 
L 10.984375 69.390625 
L 28.421875 72.90625 
L 38.28125 72.90625 
L 38.28125 8.296875 
L 54.390625 8.296875 
L 54.390625 0 
L 12.40625 0 
z
" id="DejaVuSans-49"/>
      </defs>
      <g transform="translate(24.691875 254.648042)scale(0.1 -0.1)">
       <use xlink:href="#DejaVuSans-48"/>
       <use x="63.623047" xlink:href="#DejaVuSans-46"/>
       <use x="95.410156" xlink:href="#DejaVuSans-48"/>
       <use x="159.033203" xlink:href="#DejaVuSans-48"/>
       <use x="222.65625" xlink:href="#DejaVuSans-49"/>
      </g>
     </g>
    </g>
    <g id="ytick_3">
     <g id="line2d_8">
      <g>
       <use style="stroke:#000000;stroke-width:0.8;" x="60.32" xlink:href="#m4b474a6d60" y="210.380327"/>
      </g>
     </g>
     <g id="text_9">
      <!-- 0.002 -->
      <g transform="translate(24.691875 214.179546)scale(0.1 -0.1)">
       <use xlink:href="#DejaVuSans-48"/>
       <use x="63.623047" xlink:href="#DejaVuSans-46"/>
       <use x="95.410156" xlink:href="#DejaVuSans-48"/>
       <use x="159.033203" xlink:href="#DejaVuSans-48"/>
       <use x="222.65625" xlink:href="#DejaVuSans-50"/>
      </g>
     </g>
    </g>
    <g id="ytick_4">
     <g id="line2d_9">
      <g>
       <use style="stroke:#000000;stroke-width:0.8;" x="60.32" xlink:href="#m4b474a6d60" y="169.911831"/>
      </g>
     </g>
     <g id="text_10">
      <!-- 0.003 -->
      <defs>
       <path d="M 40.578125 39.3125 
Q 47.65625 37.796875 51.625 33 
Q 55.609375 28.21875 55.609375 21.1875 
Q 55.609375 10.40625 48.1875 4.484375 
Q 40.765625 -1.421875 27.09375 -1.421875 
Q 22.515625 -1.421875 17.65625 -0.515625 
Q 12.796875 0.390625 7.625 2.203125 
L 7.625 11.71875 
Q 11.71875 9.328125 16.59375 8.109375 
Q 21.484375 6.890625 26.8125 6.890625 
Q 36.078125 6.890625 40.9375 10.546875 
Q 45.796875 14.203125 45.796875 21.1875 
Q 45.796875 27.640625 41.28125 31.265625 
Q 36.765625 34.90625 28.71875 34.90625 
L 20.21875 34.90625 
L 20.21875 43.015625 
L 29.109375 43.015625 
Q 36.375 43.015625 40.234375 45.921875 
Q 44.09375 48.828125 44.09375 54.296875 
Q 44.09375 59.90625 40.109375 62.90625 
Q 36.140625 65.921875 28.71875 65.921875 
Q 24.65625 65.921875 20.015625 65.03125 
Q 15.375 64.15625 9.8125 62.3125 
L 9.8125 71.09375 
Q 15.4375 72.65625 20.34375 73.4375 
Q 25.25 74.21875 29.59375 74.21875 
Q 40.828125 74.21875 47.359375 69.109375 
Q 53.90625 64.015625 53.90625 55.328125 
Q 53.90625 49.265625 50.4375 45.09375 
Q 46.96875 40.921875 40.578125 39.3125 
z
" id="DejaVuSans-51"/>
      </defs>
      <g transform="translate(24.691875 173.71105)scale(0.1 -0.1)">
       <use xlink:href="#DejaVuSans-48"/>
       <use x="63.623047" xlink:href="#DejaVuSans-46"/>
       <use x="95.410156" xlink:href="#DejaVuSans-48"/>
       <use x="159.033203" xlink:href="#DejaVuSans-48"/>
       <use x="222.65625" xlink:href="#DejaVuSans-51"/>
      </g>
     </g>
    </g>
    <g id="ytick_5">
     <g id="line2d_10">
      <g>
       <use style="stroke:#000000;stroke-width:0.8;" x="60.32" xlink:href="#m4b474a6d60" y="129.443335"/>
      </g>
     </g>
     <g id="text_11">
      <!-- 0.004 -->
      <g transform="translate(24.691875 133.242554)scale(0.1 -0.1)">
       <use xlink:href="#DejaVuSans-48"/>
       <use x="63.623047" xlink:href="#DejaVuSans-46"/>
       <use x="95.410156" xlink:href="#DejaVuSans-48"/>
       <use x="159.033203" xlink:href="#DejaVuSans-48"/>
       <use x="222.65625" xlink:href="#DejaVuSans-52"/>
      </g>
     </g>
    </g>
    <g id="ytick_6">
     <g id="line2d_11">
      <g>
       <use style="stroke:#000000;stroke-width:0.8;" x="60.32" xlink:href="#m4b474a6d60" y="88.974839"/>
      </g>
     </g>
     <g id="text_12">
      <!-- 0.005 -->
      <g transform="translate(24.691875 92.774058)scale(0.1 -0.1)">
       <use xlink:href="#DejaVuSans-48"/>
       <use x="63.623047" xlink:href="#DejaVuSans-46"/>
       <use x="95.410156" xlink:href="#DejaVuSans-48"/>
       <use x="159.033203" xlink:href="#DejaVuSans-48"/>
       <use x="222.65625" xlink:href="#DejaVuSans-53"/>
      </g>
     </g>
    </g>
    <g id="ytick_7">
     <g id="line2d_12">
      <g>
       <use style="stroke:#000000;stroke-width:0.8;" x="60.32" xlink:href="#m4b474a6d60" y="48.506343"/>
      </g>
     </g>
     <g id="text_13">
      <!-- 0.006 -->
      <g transform="translate(24.691875 52.305562)scale(0.1 -0.1)">
       <use xlink:href="#DejaVuSans-48"/>
       <use x="63.623047" xlink:href="#DejaVuSans-46"/>
       <use x="95.410156" xlink:href="#DejaVuSans-48"/>
       <use x="159.033203" xlink:href="#DejaVuSans-48"/>
       <use x="222.65625" xlink:href="#DejaVuSans-54"/>
      </g>
     </g>
    </g>
    <g id="text_14">
     <!-- Normalized count -->
     <defs>
      <path d="M 9.8125 72.90625 
L 23.09375 72.90625 
L 55.421875 11.921875 
L 55.421875 72.90625 
L 64.984375 72.90625 
L 64.984375 0 
L 51.703125 0 
L 19.390625 60.984375 
L 19.390625 0 
L 9.8125 0 
z
" id="DejaVuSans-78"/>
      <path d="M 30.609375 48.390625 
Q 23.390625 48.390625 19.1875 42.75 
Q 14.984375 37.109375 14.984375 27.296875 
Q 14.984375 17.484375 19.15625 11.84375 
Q 23.34375 6.203125 30.609375 6.203125 
Q 37.796875 6.203125 41.984375 11.859375 
Q 46.1875 17.53125 46.1875 27.296875 
Q 46.1875 37.015625 41.984375 42.703125 
Q 37.796875 48.390625 30.609375 48.390625 
z
M 30.609375 56 
Q 42.328125 56 49.015625 48.375 
Q 55.71875 40.765625 55.71875 27.296875 
Q 55.71875 13.875 49.015625 6.21875 
Q 42.328125 -1.421875 30.609375 -1.421875 
Q 18.84375 -1.421875 12.171875 6.21875 
Q 5.515625 13.875 5.515625 27.296875 
Q 5.515625 40.765625 12.171875 48.375 
Q 18.84375 56 30.609375 56 
z
" id="DejaVuSans-111"/>
      <path d="M 52 44.1875 
Q 55.375 50.25 60.0625 53.125 
Q 64.75 56 71.09375 56 
Q 79.640625 56 84.28125 50.015625 
Q 88.921875 44.046875 88.921875 33.015625 
L 88.921875 0 
L 79.890625 0 
L 79.890625 32.71875 
Q 79.890625 40.578125 77.09375 44.375 
Q 74.3125 48.1875 68.609375 48.1875 
Q 61.625 48.1875 57.5625 43.546875 
Q 53.515625 38.921875 53.515625 30.90625 
L 53.515625 0 
L 44.484375 0 
L 44.484375 32.71875 
Q 44.484375 40.625 41.703125 44.40625 
Q 38.921875 48.1875 33.109375 48.1875 
Q 26.21875 48.1875 22.15625 43.53125 
Q 18.109375 38.875 18.109375 30.90625 
L 18.109375 0 
L 9.078125 0 
L 9.078125 54.6875 
L 18.109375 54.6875 
L 18.109375 46.1875 
Q 21.1875 51.21875 25.484375 53.609375 
Q 29.78125 56 35.6875 56 
Q 41.65625 56 45.828125 52.96875 
Q 50 49.953125 52 44.1875 
z
" id="DejaVuSans-109"/>
      <path d="M 34.28125 27.484375 
Q 23.390625 27.484375 19.1875 25 
Q 14.984375 22.515625 14.984375 16.5 
Q 14.984375 11.71875 18.140625 8.90625 
Q 21.296875 6.109375 26.703125 6.109375 
Q 34.1875 6.109375 38.703125 11.40625 
Q 43.21875 16.703125 43.21875 25.484375 
L 43.21875 27.484375 
z
M 52.203125 31.203125 
L 52.203125 0 
L 43.21875 0 
L 43.21875 8.296875 
Q 40.140625 3.328125 35.546875 0.953125 
Q 30.953125 -1.421875 24.3125 -1.421875 
Q 15.921875 -1.421875 10.953125 3.296875 
Q 6 8.015625 6 15.921875 
Q 6 25.140625 12.171875 29.828125 
Q 18.359375 34.515625 30.609375 34.515625 
L 43.21875 34.515625 
L 43.21875 35.40625 
Q 43.21875 41.609375 39.140625 45 
Q 35.0625 48.390625 27.6875 48.390625 
Q 23 48.390625 18.546875 47.265625 
Q 14.109375 46.140625 10.015625 43.890625 
L 10.015625 52.203125 
Q 14.9375 54.109375 19.578125 55.046875 
Q 24.21875 56 28.609375 56 
Q 40.484375 56 46.34375 49.84375 
Q 52.203125 43.703125 52.203125 31.203125 
z
" id="DejaVuSans-97"/>
      <path d="M 9.421875 75.984375 
L 18.40625 75.984375 
L 18.40625 0 
L 9.421875 0 
z
" id="DejaVuSans-108"/>
      <path d="M 9.421875 54.6875 
L 18.40625 54.6875 
L 18.40625 0 
L 9.421875 0 
z
M 9.421875 75.984375 
L 18.40625 75.984375 
L 18.40625 64.59375 
L 9.421875 64.59375 
z
" id="DejaVuSans-105"/>
      <path d="M 5.515625 54.6875 
L 48.1875 54.6875 
L 48.1875 46.484375 
L 14.40625 7.171875 
L 48.1875 7.171875 
L 48.1875 0 
L 4.296875 0 
L 4.296875 8.203125 
L 38.09375 47.515625 
L 5.515625 47.515625 
z
" id="DejaVuSans-122"/>
      <path d="M 45.40625 46.390625 
L 45.40625 75.984375 
L 54.390625 75.984375 
L 54.390625 0 
L 45.40625 0 
L 45.40625 8.203125 
Q 42.578125 3.328125 38.25 0.953125 
Q 33.9375 -1.421875 27.875 -1.421875 
Q 17.96875 -1.421875 11.734375 6.484375 
Q 5.515625 14.40625 5.515625 27.296875 
Q 5.515625 40.1875 11.734375 48.09375 
Q 17.96875 56 27.875 56 
Q 33.9375 56 38.25 53.625 
Q 42.578125 51.265625 45.40625 46.390625 
z
M 14.796875 27.296875 
Q 14.796875 17.390625 18.875 11.75 
Q 22.953125 6.109375 30.078125 6.109375 
Q 37.203125 6.109375 41.296875 11.75 
Q 45.40625 17.390625 45.40625 27.296875 
Q 45.40625 37.203125 41.296875 42.84375 
Q 37.203125 48.484375 30.078125 48.484375 
Q 22.953125 48.484375 18.875 42.84375 
Q 14.796875 37.203125 14.796875 27.296875 
z
" id="DejaVuSans-100"/>
      <path d="M 48.78125 52.59375 
L 48.78125 44.1875 
Q 44.96875 46.296875 41.140625 47.34375 
Q 37.3125 48.390625 33.40625 48.390625 
Q 24.65625 48.390625 19.8125 42.84375 
Q 14.984375 37.3125 14.984375 27.296875 
Q 14.984375 17.28125 19.8125 11.734375 
Q 24.65625 6.203125 33.40625 6.203125 
Q 37.3125 6.203125 41.140625 7.25 
Q 44.96875 8.296875 48.78125 10.40625 
L 48.78125 2.09375 
Q 45.015625 0.34375 40.984375 -0.53125 
Q 36.96875 -1.421875 32.421875 -1.421875 
Q 20.0625 -1.421875 12.78125 6.34375 
Q 5.515625 14.109375 5.515625 27.296875 
Q 5.515625 40.671875 12.859375 48.328125 
Q 20.21875 56 33.015625 56 
Q 37.15625 56 41.109375 55.140625 
Q 45.0625 54.296875 48.78125 52.59375 
z
" id="DejaVuSans-99"/>
      <path d="M 8.5 21.578125 
L 8.5 54.6875 
L 17.484375 54.6875 
L 17.484375 21.921875 
Q 17.484375 14.15625 20.5 10.265625 
Q 23.53125 6.390625 29.59375 6.390625 
Q 36.859375 6.390625 41.078125 11.03125 
Q 45.3125 15.671875 45.3125 23.6875 
L 45.3125 54.6875 
L 54.296875 54.6875 
L 54.296875 0 
L 45.3125 0 
L 45.3125 8.40625 
Q 42.046875 3.421875 37.71875 1 
Q 33.40625 -1.421875 27.6875 -1.421875 
Q 18.265625 -1.421875 13.375 4.4375 
Q 8.5 10.296875 8.5 21.578125 
z
M 31.109375 56 
z
" id="DejaVuSans-117"/>
      <path d="M 18.3125 70.21875 
L 18.3125 54.6875 
L 36.8125 54.6875 
L 36.8125 47.703125 
L 18.3125 47.703125 
L 18.3125 18.015625 
Q 18.3125 11.328125 20.140625 9.421875 
Q 21.96875 7.515625 27.59375 7.515625 
L 36.8125 7.515625 
L 36.8125 0 
L 27.59375 0 
Q 17.1875 0 13.234375 3.875 
Q 9.28125 7.765625 9.28125 18.015625 
L 9.28125 47.703125 
L 2.6875 47.703125 
L 2.6875 54.6875 
L 9.28125 54.6875 
L 9.28125 70.21875 
z
" id="DejaVuSans-116"/>
     </defs>
     <g transform="translate(18.612188 200.702417)rotate(-90)scale(0.1 -0.1)">
      <use xlink:href="#DejaVuSans-78"/>
      <use x="74.804688" xlink:href="#DejaVuSans-111"/>
      <use x="135.986328" xlink:href="#DejaVuSans-114"/>
      <use x="177.083984" xlink:href="#DejaVuSans-109"/>
      <use x="274.496094" xlink:href="#DejaVuSans-97"/>
      <use x="335.775391" xlink:href="#DejaVuSans-108"/>
      <use x="363.558594" xlink:href="#DejaVuSans-105"/>
      <use x="391.341797" xlink:href="#DejaVuSans-122"/>
      <use x="443.832031" xlink:href="#DejaVuSans-101"/>
      <use x="505.355469" xlink:href="#DejaVuSans-100"/>
      <use x="568.832031" xlink:href="#DejaVuSans-32"/>
      <use x="600.619141" xlink:href="#DejaVuSans-99"/>
      <use x="655.599609" xlink:href="#DejaVuSans-111"/>
      <use x="716.78125" xlink:href="#DejaVuSans-117"/>
      <use x="780.160156" xlink:href="#DejaVuSans-110"/>
      <use x="843.539062" xlink:href="#DejaVuSans-116"/>
     </g>
    </g>
   </g>
   <g id="line2d_13">
    <path clip-path="url(#p7be336a99c)" d="M 78.032727 281.846606 
L 95.009189 279.257913 
L 171.61802 279.42386 
L 248.04665 276.252832 
L 116.641109 277.447277 
L 186.708007 276.1193 
L 161.644047 274.886757 
L 181.096511 275.682873 
L 93.032551 276.10204 
L 118.501514 275.707816 
L 157.89982 276.950794 
L 198.500628 272.806412 
L 126.205484 273.820558 
L 91.293807 273.494894 
L 130.385092 273.067446 
L 224.963732 273.036528 
L 237.127632 270.632906 
L 80.587771 271.853505 
L 118.340493 277.619033 
L 82.220389 279.307215 
L 82.180339 278.386557 
L 140.735086 278.63624 
L 252.905229 279.232141 
L 100.737252 278.865344 
L 87.622361 277.269633 
L 142.580625 278.30942 
L 171.312846 277.439079 
L 223.661986 276.595186 
L 195.439907 277.163295 
L 208.250881 275.983024 
L 101.371361 276.30733 
L 225.281779 277.176178 
L 146.973132 276.770925 
L 108.181236 276.875182 
L 143.461014 276.167033 
L 84.385091 276.782067 
L 155.344814 276.386085 
L 164.832415 277.59785 
L 219.363918 277.657351 
L 174.891178 278.98134 
L 103.048414 278.104322 
L 253.751817 275.866643 
L 233.012133 276.55157 
L 143.273094 276.351581 
L 258.086361 275.750175 
L 111.174601 275.940771 
L 209.272178 274.360614 
L 169.960377 276.20165 
L 136.467811 278.086289 
L 124.348264 279.206517 
L 249.970238 277.104655 
L 220.146681 276.512691 
L 192.207357 277.078393 
L 238.56178 276.949504 
L 103.761559 277.504231 
L 197.168965 276.715852 
L 91.469328 276.919359 
L 247.637877 276.884209 
L 153.446528 277.25179 
L 256.643611 275.627653 
L 210.998832 277.10492 
L 136.352654 277.400899 
L 117.755667 277.324804 
L 170.078465 277.445407 
L 152.049616 276.478885 
L 221.47673 275.286494 
L 122.304635 274.943605 
L 194.312822 274.558508 
L 241.057582 272.930578 
L 126.75043 274.673161 
L 104.840886 273.501656 
L 243.392718 270.816546 
L 221.057507 273.981879 
L 109.986845 273.920337 
L 270.713703 272.641631 
L 169.821336 274.657805 
L 180.077248 273.102465 
L 98.374796 275.825364 
L 157.605334 274.306209 
L 171.816959 275.291599 
L 206.710302 275.787443 
L 232.730972 275.057024 
L 200.584984 274.619481 
L 141.57568 276.06113 
L 173.866487 276.090351 
L 193.701781 275.752355 
L 208.941362 274.137279 
L 121.571123 276.174045 
L 129.430728 275.711741 
L 237.335776 274.531568 
L 145.536351 275.802691 
L 214.787264 275.327875 
L 119.155554 275.35071 
L 177.757727 276.236788 
L 235.534601 274.644999 
L 263.536402 273.113214 
L 245.645664 274.134926 
L 128.743407 273.39127 
L 145.218846 271.713154 
L 227.278566 271.50113 
L 228.013347 270.501523 
L 111.755011 270.874492 
L 106.930949 272.172862 
L 115.069875 271.770436 
L 171.792954 272.863527 
L 177.830678 271.996449 
L 188.30622 274.067345 
L 109.811218 272.307552 
L 253.494333 272.323853 
L 167.673155 271.80166 
L 206.460019 271.686603 
L 186.790902 271.425893 
L 153.845744 272.682884 
L 278.677649 271.559005 
L 239.535042 273.238928 
L 203.768898 273.526461 
L 168.955745 274.446442 
L 192.014309 275.437065 
L 185.031364 275.020232 
L 274.736049 274.50873 
L 225.433906 275.63052 
L 126.569861 276.12859 
L 150.039358 275.915437 
L 191.431156 274.64792 
L 165.772021 273.78285 
L 252.404236 273.977523 
L 223.541206 272.694846 
L 233.284037 273.008559 
L 125.403155 273.432435 
L 165.764291 272.600069 
L 278.928628 271.863441 
L 246.284901 271.466946 
L 186.506757 271.492902 
L 181.657038 271.230783 
L 146.498204 272.197568 
L 174.703791 270.917985 
L 125.171789 271.825879 
L 179.537463 271.18796 
L 264.360551 269.09592 
L 157.528396 269.710894 
L 184.82377 269.284661 
L 227.019819 268.168446 
L 271.256472 265.477247 
L 215.411909 266.282737 
L 179.023209 267.049477 
L 288.75005 263.789239 
L 156.843646 265.395777 
L 236.483322 261.030277 
L 142.765824 262.720319 
L 231.476779 259.475253 
L 116.073544 260.102638 
L 280.349173 254.615379 
L 111.937883 257.505707 
L 236.341202 252.135981 
L 117.454171 252.082262 
L 157.924383 251.045141 
L 136.911119 252.64325 
L 246.344883 250.10776 
L 192.455396 250.077415 
L 236.52122 248.117594 
L 285.966682 246.660058 
L 122.009776 249.774453 
L 124.62152 249.560241 
L 199.716815 248.154032 
L 169.864557 248.271081 
L 190.129505 247.603168 
L 288.96864 244.756121 
L 215.851831 245.248953 
L 280.496391 242.533413 
L 245.120179 243.577959 
L 245.653418 242.575297 
L 270.874167 240.797057 
L 159.283825 243.385222 
L 207.404927 241.134014 
L 232.283458 240.340711 
L 134.101579 243.7325 
L 164.576248 244.449231 
L 259.475728 240.158718 
L 129.507866 242.569785 
L 200.362977 240.654919 
L 246.948506 237.80618 
L 138.604424 241.54527 
L 300.578694 235.8647 
L 289.429372 236.041318 
L 173.660374 239.647708 
L 264.889771 237.555781 
L 123.791085 241.715418 
L 123.097421 242.743807 
L 139.689909 241.64157 
L 192.717681 239.267133 
L 182.553461 240.299427 
L 233.412053 238.545226 
L 181.290812 239.238052 
L 194.853156 239.153184 
L 168.104865 241.787517 
L 265.434555 237.617036 
L 240.011199 239.126643 
L 296.291043 237.982462 
L 302.589385 237.721722 
L 247.28443 237.44744 
L 249.785255 236.716701 
L 166.440187 239.047861 
L 171.67805 236.521279 
L 246.954962 235.50605 
L 274.306831 233.314568 
L 296.358414 231.933982 
L 146.295142 237.760064 
L 131.900408 237.841935 
L 227.544116 235.586136 
L 302.986314 234.220114 
L 244.936934 235.791755 
L 201.900717 234.735453 
L 179.509739 236.109635 
L 130.913409 236.686872 
L 302.226215 230.629886 
L 139.00562 236.514263 
L 149.235494 235.796298 
L 180.177167 236.049273 
L 240.076695 233.955904 
L 268.373154 235.880994 
L 201.015757 238.046326 
L 220.173686 236.00406 
L 285.166201 236.143949 
L 307.037433 234.378974 
L 199.731743 236.674282 
L 241.676005 235.519975 
L 275.573053 234.376822 
L 181.64512 237.824383 
L 274.953026 235.916838 
L 257.986428 236.19717 
L 272.201737 237.601191 
L 191.263274 240.42905 
L 153.803317 241.389103 
L 310.494953 235.809879 
L 149.536769 241.451733 
L 311.007585 236.490722 
L 222.238808 239.144156 
L 298.474179 235.781377 
L 310.156063 234.924423 
L 303.247191 234.381857 
L 297.94832 235.229784 
L 186.890787 238.727953 
L 155.825664 238.831351 
L 143.028163 238.077649 
L 305.765269 234.51381 
L 158.008826 239.097346 
L 282.852852 234.65342 
L 205.724209 235.471854 
L 269.89423 232.748141 
L 272.503081 233.586433 
L 148.826848 236.242633 
L 161.990253 235.739641 
L 269.092165 230.732814 
L 284.904959 228.284426 
L 144.561032 234.174926 
L 291.965416 228.224945 
L 161.164486 231.909413 
L 299.236127 224.870429 
L 172.872659 228.374466 
L 295.941826 222.232817 
L 150.581029 228.134022 
L 319.122995 217.711545 
L 195.88491 222.472451 
L 285.369904 216.318268 
L 284.717661 216.605652 
L 163.508768 218.959071 
L 196.455255 215.892449 
L 238.160209 210.660454 
L 268.148158 206.407073 
L 242.379697 204.211913 
L 157.53804 205.058511 
L 280.605201 194.193032 
L 155.040376 196.374513 
L 288.769652 179.661632 
L 308.016049 174.523278 
L 287.116048 172.778954 
L 284.795775 168.525328 
L 292.99614 162.961049 
L 263.258934 158.235347 
L 298.722069 152.007325 
L 314.114971 144.246119 
L 247.718867 145.727157 
L 278.979705 137.869466 
L 233.9531 137.987072 
L 260.236836 130.54416 
L 187.70554 131.96068 
L 264.844162 121.11396 
L 208.755898 119.279549 
L 220.77409 111.366762 
L 264.591098 105.484603 
L 211.239375 108.164459 
L 183.533141 106.626948 
L 325.421081 83.519228 
L 267.725895 89.437942 
L 184.473547 97.250962 
L 319.475249 76.812901 
L 231.60205 83.24795 
L 300.316775 69.787432 
L 237.641969 72.469533 
L 184.313022 75.810226 
L 310.669601 57.328493 
L 302.830035 55.001442 
L 287.418615 49.949319 
L 264.503986 46.537688 
L 316.566455 37.097526 
L 187.638655 51.751908 
L 283.496396 35.66683 
L 167.299173 50.309309 
L 300.214494 28.394251 
L 322.711228 24.010447 
L 271.44347 32.933768 
L 161.659006 48.729024 
L 291.953489 32.479206 
L 158.48036 47.400504 
L 295.433198 27.301158 
L 293.182558 29.330756 
L 227.704658 40.712697 
L 296.043402 27.075801 
L 313.026134 26.421075 
L 156.57058 49.73355 
L 204.853861 44.905362 
L 244.989848 43.611921 
L 316.648029 35.410273 
L 220.887666 49.446163 
L 229.940198 51.683373 
L 259.21271 51.892527 
L 305.775423 43.931012 
L 278.420971 50.049234 
L 317.320381 46.15336 
L 324.271719 46.364068 
L 180.389275 67.916391 
L 206.329332 66.853038 
L 172.066143 73.646212 
L 184.383125 76.007047 
L 155.966507 84.067321 
L 198.943186 81.566437 
L 232.120944 78.450905 
L 278.8005 76.71089 
L 237.59337 85.82137 
L 189.094537 95.564979 
L 300.291458 86.338476 
L 259.459977 94.855498 
L 172.702216 106.585398 
L 214.224916 103.690727 
L 314.694447 95.420615 
L 217.227304 107.237766 
L 263.911551 105.034743 
L 303.927797 101.404131 
L 213.944327 114.721738 
L 285.343152 110.071787 
L 340.720431 103.968491 
L 341.79183 105.673998 
L 204.037965 122.290161 
L 189.672985 122.933007 
L 340.796384 107.297764 
L 181.700652 124.617134 
L 322.920604 112.391802 
L 176.878346 127.770815 
L 183.809076 126.973693 
L 318.801886 115.132707 
L 202.42659 127.043333 
L 180.418272 133.038549 
L 196.660108 132.105519 
L 258.889964 127.116087 
L 334.961767 122.520624 
L 195.836457 135.537731 
L 184.39679 135.737537 
L 168.704703 137.646566 
L 267.917101 130.970048 
L 311.675674 128.256824 
L 264.392331 133.526901 
L 242.876459 137.61307 
L 194.965075 138.820146 
L 342.490738 129.098465 
L 324.663632 131.508144 
L 270.238681 134.835904 
L 324.951091 130.435896 
L 236.591828 137.967744 
L 245.816157 138.152298 
L 315.014641 133.28682 
L 316.967769 135.818617 
L 324.229604 134.640703 
L 170.388334 148.134262 
L 195.486366 146.66345 
L 255.880742 144.769512 
L 262.013072 144.934615 
L 272.33655 143.622385 
L 202.680435 150.061055 
L 258.097185 147.095448 
L 346.610098 144.2361 
L 307.929129 148.454452 
L 352.017946 144.279052 
L 337.76279 146.089008 
L 237.315113 156.322283 
L 210.524791 157.995579 
L 239.592667 156.345799 
L 336.688297 149.88072 
L 183.870247 163.268801 
L 263.629136 158.700873 
L 207.975972 163.700662 
L 303.553513 156.280512 
L 304.881396 155.787009 
L 297.826506 156.327474 
L 219.904334 161.079049 
L 210.356269 161.49463 
L 352.918822 151.548814 
L 349.413092 149.878159 
L 262.571363 154.902599 
L 348.667833 147.516619 
L 347.473346 148.72863 
L 297.243532 156.952638 
L 204.697233 166.049364 
L 323.81024 161.636642 
L 356.873427 164.016349 
L 310.845177 168.387004 
L 244.221831 173.974521 
L 207.223317 180.040134 
L 357.270308 173.836723 
L 349.678224 175.426231 
L 351.550832 179.310349 
L 256.237226 188.059822 
L 254.386607 191.554443 
L 333.078975 190.854449 
L 352.029542 193.573499 
L 298.619564 198.996411 
L 319.375941 201.704856 
L 187.010737 212.152324 
L 259.072865 209.883911 
L 268.862763 210.09585 
L 283.426503 212.140951 
L 223.9112 218.931018 
L 295.344198 218.206125 
L 331.48789 218.94229 
L 250.795877 224.813149 
L 181.598847 228.409453 
L 318.60084 227.614077 
L 362.654491 226.2736 
L 310.154192 231.312156 
L 224.468105 236.479461 
L 195.301971 238.09665 
L 326.241944 235.146264 
L 268.533052 239.081569 
L 352.892819 238.748368 
L 349.717122 240.447938 
L 208.018514 245.461808 
L 329.925154 243.335246 
L 208.568292 248.969503 
L 303.515426 249.540031 
L 194.883683 254.575063 
L 321.938272 253.532257 
L 289.888001 257.292311 
L 276.934155 258.673752 
L 189.047309 261.961971 
L 306.252065 262.596698 
L 332.595314 263.439802 
L 321.297297 265.770308 
L 277.540017 268.887941 
L 312.459936 271.015392 
L 277.36002 271.648575 
L 348.709744 272.303743 
L 252.313375 274.321153 
L 260.852082 275.924589 
L 195.733593 277.877178 
L 253.197001 276.633922 
L 283.898202 278.086488 
L 275.92344 278.873723 
L 363.023991 279.378602 
L 222.961117 281.283041 
L 244.413672 282.35121 
L 372.281571 282.217178 
L 349.138194 283.33631 
L 220.716937 284.822713 
L 376.697568 283.903989 
L 333.684816 285.487483 
L 271.803298 283.830135 
L 380.427424 281.588168 
L 354.88355 280.961949 
L 332.900554 281.582943 
L 277.431322 280.582847 
L 247.288002 279.493721 
L 279.867168 280.328472 
L 222.282783 280.289928 
L 375.662704 280.514986 
L 285.852285 280.540252 
L 359.084631 280.781929 
L 219.951693 281.79315 
L 351.60617 281.329661 
L 272.62476 283.518934 
L 383.271948 283.126974 
L 291.48798 281.084402 
L 301.830286 279.803202 
L 208.720761 279.76972 
L 306.243913 279.042082 
L 319.981018 279.940163 
L 228.162213 279.175789 
L 288.88951 277.623013 
L 270.598555 281.051397 
L 343.684747 282.471382 
L 327.866245 282.961341 
L 210.624012 282.483036 
L 213.205979 283.789757 
L 252.647221 285.365696 
L 232.035792 285.435385 
L 250.16358 285.53391 
L 198.269191 285.088897 
L 375.21589 284.959618 
L 230.862305 285.44255 
L 269.137137 285.636751 
L 319.569549 284.655013 
L 315.312003 284.343407 
L 224.237643 284.219968 
L 333.664599 282.453697 
L 241.575595 281.081982 
L 233.682136 281.521216 
L 227.748318 281.398102 
L 265.725369 282.142793 
L 264.503713 281.273633 
L 357.878913 280.584464 
L 353.753407 281.445145 
L 374.64818 281.84538 
L 338.003217 282.27686 
L 226.454229 283.208503 
L 375.459292 283.282354 
L 275.482146 285.147557 
L 254.616996 284.190674 
L 226.999475 284.380599 
L 381.888239 283.429117 
L 387.732365 283.831721 
L 372.348125 283.977886 
L 202.616821 284.710262 
L 208.867257 283.299705 
L 328.013128 281.928177 
L 305.090546 283.020457 
L 346.045491 282.504054 
L 317.162506 280.840677 
L 327.026391 282.348555 
L 207.521525 282.466046 
L 364.819451 281.32993 
L 257.20932 283.165435 
L 211.972061 284.683676 
L 390.537676 285.024962 
L 262.646626 284.095298 
L 290.686663 284.547509 
L 342.130153 283.445773 
L 349.722372 285.24453 
L 245.170496 284.012774 
L 297.587973 283.717877 
L 230.195794 283.454228 
L 245.828684 284.092234 
L 396.035515 282.459037 
L 362.852145 283.450571 
L 231.897613 283.216808 
L 398.190855 282.793353 
L 225.82997 284.178571 
L 368.958512 284.772331 
L 319.209956 285.108063 
L 334.846617 285.302537 
L 376.846832 283.904838 
L 251.27878 286.518378 
L 395.681498 284.684693 
L 386.235963 284.88721 
L 215.635904 284.843704 
L 222.296619 285.130333 
L 324.661881 286.077855 
L 372.328322 285.357502 
L 213.159362 284.626629 
L 367.831581 284.45087 
L 228.522725 285.965659 
L 255.118374 284.703487 
L 339.296633 284.969481 
L 266.347042 285.139845 
L 390.34917 284.459423 
L 378.180775 284.335782 
L 261.276734 284.054231 
L 387.07707 284.559088 
L 329.437752 285.008167 
L 311.101554 285.721006 
L 340.280546 284.973079 
L 398.703755 285.030988 
L 243.42843 286.865327 
L 272.839813 287.665091 
L 241.661069 286.091785 
L 386.478388 287.015074 
L 305.330938 285.743894 
L 390.433071 284.894225 
L 334.574764 285.24599 
L 221.872997 286.693396 
L 239.755057 286.178757 
L 323.43857 286.915057 
L 402.511894 285.537463 
L 270.178051 287.043422 
L 295.380682 285.700053 
L 269.243408 286.730789 
L 372.437457 286.468155 
L 366.313189 286.233943 
L 251.612741 286.542333 
L 385.790888 286.94057 
L 367.79494 286.815751 
L 232.815577 286.90405 
L 411.812825 286.371748 
L 321.091894 285.790231 
L 337.02794 286.727438 
L 353.141962 285.944463 
L 281.811569 287.023389 
L 309.762663 287.765666 
L 318.481674 287.585795 
L 378.503873 287.549446 
L 394.485122 288.363268 
L 256.977963 288.339302 
L 361.832286 287.66754 
L 345.150499 286.054503 
L 358.581041 286.597258 
L 369.280361 286.322366 
L 328.178054 286.349124 
L 289.829027 285.575319 
L 405.65761 285.379821 
L 297.219629 285.634238 
L 377.502758 286.137175 
L 236.128728 286.366138 
L 365.809524 285.423119 
L 260.976909 285.435308 
L 337.850296 285.756053 
L 261.17438 285.750986 
L 373.783315 285.983501 
L 379.90662 283.961461 
L 264.76739 284.6423 
L 413.009693 283.751725 
L 396.927916 283.730441 
L 233.7261 284.682763 
L 289.397931 285.270403 
L 315.247939 285.346461 
L 372.032334 286.576503 
L 358.552256 285.04291 
L 376.817643 283.982329 
L 313.389299 285.033779 
L 354.652609 283.905078 
L 256.478675 285.073641 
L 307.544377 285.697833 
L 409.600171 283.691885 
L 246.02592 284.956357 
L 335.133453 284.719924 
L 250.238122 285.099684 
L 293.586215 285.267139 
L 374.052878 285.914904 
L 374.815329 287.409967 
L 338.443323 287.402969 
L 314.415176 286.4891 
L 264.588512 287.715273 
L 323.929592 288.082763 
L 293.603172 288.13615 
L 295.186965 287.178192 
L 364.445081 287.516718 
L 279.676198 288.556549 
L 374.061498 288.079641 
L 416.341598 288.09365 
L 270.187337 287.943757 
L 302.53462 288.12358 
L 319.329459 287.047592 
L 403.047636 286.76985 
L 322.769434 286.716864 
L 357.333096 287.618456 
L 336.33862 285.872498 
L 427.213249 286.71544 
L 296.243288 286.547685 
L 417.550206 285.721594 
L 327.137743 284.447418 
L 417.048993 285.302076 
L 268.139541 285.449219 
L 399.84433 285.356882 
L 325.771867 285.021403 
L 405.938686 283.57091 
L 328.764111 286.06343 
L 292.803041 286.562456 
L 260.097484 286.803964 
L 367.69292 285.377856 
L 320.670029 285.204516 
L 256.255605 286.271962 
L 330.121343 285.174926 
L 303.483 284.387727 
L 422.368857 285.04124 
L 302.372934 284.870832 
L 339.414532 286.44667 
L 390.880672 286.897181 
L 303.278124 288.691213 
L 430.069058 287.573968 
L 336.437144 287.509892 
L 403.518164 288.1287 
L 360.541438 288.036143 
L 364.617874 286.714082 
L 380.888129 286.260315 
L 413.041161 286.092403 
L 347.921669 286.268339 
L 258.628084 285.578093 
L 400.236145 285.877375 
L 354.632201 286.006723 
L 253.841599 286.600629 
L 387.247558 288.076044 
L 325.227435 288.262444 
L 257.047251 287.678353 
L 370.046589 288.51836 
L 391.517742 288.320776 
L 269.039822 288.979349 
L 422.593427 289.119386 
L 378.991274 289.002152 
L 319.202744 287.07483 
L 306.559273 285.752124 
L 329.522132 286.165661 
L 423.89619 285.397839 
L 425.699623 285.900429 
L 369.241838 285.483751 
L 249.856271 286.698255 
L 432.287273 286.81999 
L 418.712822 286.176729 
L 347.078009 287.42125 
L 351.403723 287.332266 
L 356.409057 286.017389 
L 284.105017 286.378035 
L 284.105017 286.378035 
" style="fill:none;stroke:#0000ff;stroke-linecap:square;stroke-width:1.5;"/>
   </g>
   <g id="patch_3">
    <path d="M 60.32 302.374833 
L 60.32 10.755 
" style="fill:none;stroke:#000000;stroke-linecap:square;stroke-linejoin:miter;stroke-width:0.8;"/>
   </g>
   <g id="patch_4">
    <path d="M 450 302.374833 
L 450 10.755 
" style="fill:none;stroke:#000000;stroke-linecap:square;stroke-linejoin:miter;stroke-width:0.8;"/>
   </g>
   <g id="patch_5">
    <path d="M 60.32 302.374833 
L 450 302.374833 
" style="fill:none;stroke:#000000;stroke-linecap:square;stroke-linejoin:miter;stroke-width:0.8;"/>
   </g>
   <g id="patch_6">
    <path d="M 60.32 10.755 
L 450 10.755 
" style="fill:none;stroke:#000000;stroke-linecap:square;stroke-linejoin:miter;stroke-width:0.8;"/>
   </g>
   <g id="legend_1">
    <g id="patch_7">
     <path d="M 373.475 33.433125 
L 443 33.433125 
Q 445 33.433125 445 31.433125 
L 445 17.755 
Q 445 15.755 443 15.755 
L 373.475 15.755 
Q 371.475 15.755 371.475 17.755 
L 371.475 31.433125 
Q 371.475 33.433125 373.475 33.433125 
z
" style="fill:#ffffff;opacity:0.8;stroke:#cccccc;stroke-linejoin:miter;"/>
    </g>
    <g id="line2d_14">
     <path d="M 375.475 23.853438 
L 395.475 23.853438 
" style="fill:none;stroke:#0000ff;stroke-linecap:square;stroke-width:1.5;"/>
    </g>
    <g id="line2d_15"/>
    <g id="text_15">
     <!-- 50 MeV -->
     <g transform="translate(403.475 27.353438)scale(0.1 -0.1)">
      <use xlink:href="#DejaVuSans-53"/>
      <use x="63.623047" xlink:href="#DejaVuSans-48"/>
      <use x="127.246094" xlink:href="#DejaVuSans-32"/>
      <use x="159.033203" xlink:href="#DejaVuSans-77"/>
      <use x="245.3125" xlink:href="#DejaVuSans-101"/>
      <use x="306.835938" xlink:href="#DejaVuSans-86"/>
     </g>
    </g>
   </g>
  </g>
 </g>
 <defs>
  <clipPath id="p7be336a99c">
   <rect height="291.619833" width="389.68" x="60.32" y="10.755"/>
  </clipPath>
 </defs>
</svg>
