<?xml version="1.0" encoding="utf-8" standalone="no"?>
<!DOCTYPE svg PUBLIC "-//W3C//DTD SVG 1.1//EN"
  "http://www.w3.org/Graphics/SVG/1.1/DTD/svg11.dtd">
<!-- Created with matplotlib (https://matplotlib.org/) -->
<svg height="344.16pt" version="1.1" viewBox="0 0 460.8 344.16" width="460.8pt" xmlns="http://www.w3.org/2000/svg" xmlns:xlink="http://www.w3.org/1999/xlink">
 <defs>
  <style type="text/css">
*{stroke-linecap:butt;stroke-linejoin:round;}
  </style>
 </defs>
 <g id="figure_1">
  <g id="patch_1">
   <path d="M 0 344.16 
L 460.8 344.16 
L 460.8 0 
L 0 0 
z
" style="fill:#ffffff;"/>
  </g>
  <g id="axes_1">
   <g id="patch_2">
    <path d="M 60.32 302.374833 
L 442.873297 302.374833 
L 442.873297 10.755 
L 60.32 10.755 
z
" style="fill:#ffffff;"/>
   </g>
   <g id="matplotlib.axis_1">
    <g id="xtick_1">
     <g id="line2d_1">
      <defs>
       <path d="M 0 0 
L 0 3.5 
" id="m543cd1a888" style="stroke:#000000;stroke-width:0.8;"/>
      </defs>
      <g>
       <use style="stroke:#000000;stroke-width:0.8;" x="69.209603" xlink:href="#m543cd1a888" y="302.374833"/>
      </g>
     </g>
     <g id="text_1">
      <!-- 17.0 -->
      <defs>
       <path d="M 12.40625 8.296875 
L 28.515625 8.296875 
L 28.515625 63.921875 
L 10.984375 60.40625 
L 10.984375 69.390625 
L 28.421875 72.90625 
L 38.28125 72.90625 
L 38.28125 8.296875 
L 54.390625 8.296875 
L 54.390625 0 
L 12.40625 0 
z
" id="DejaVuSans-49"/>
       <path d="M 8.203125 72.90625 
L 55.078125 72.90625 
L 55.078125 68.703125 
L 28.609375 0 
L 18.3125 0 
L 43.21875 64.59375 
L 8.203125 64.59375 
z
" id="DejaVuSans-55"/>
       <path d="M 10.6875 12.40625 
L 21 12.40625 
L 21 0 
L 10.6875 0 
z
" id="DejaVuSans-46"/>
       <path d="M 31.78125 66.40625 
Q 24.171875 66.40625 20.328125 58.90625 
Q 16.5 51.421875 16.5 36.375 
Q 16.5 21.390625 20.328125 13.890625 
Q 24.171875 6.390625 31.78125 6.390625 
Q 39.453125 6.390625 43.28125 13.890625 
Q 47.125 21.390625 47.125 36.375 
Q 47.125 51.421875 43.28125 58.90625 
Q 39.453125 66.40625 31.78125 66.40625 
z
M 31.78125 74.21875 
Q 44.046875 74.21875 50.515625 64.515625 
Q 56.984375 54.828125 56.984375 36.375 
Q 56.984375 17.96875 50.515625 8.265625 
Q 44.046875 -1.421875 31.78125 -1.421875 
Q 19.53125 -1.421875 13.0625 8.265625 
Q 6.59375 17.96875 6.59375 36.375 
Q 6.59375 54.828125 13.0625 64.515625 
Q 19.53125 74.21875 31.78125 74.21875 
z
" id="DejaVuSans-48"/>
      </defs>
      <g transform="translate(58.076791 316.973271)scale(0.1 -0.1)">
       <use xlink:href="#DejaVuSans-49"/>
       <use x="63.623047" xlink:href="#DejaVuSans-55"/>
       <use x="127.246094" xlink:href="#DejaVuSans-46"/>
       <use x="159.033203" xlink:href="#DejaVuSans-48"/>
      </g>
     </g>
    </g>
    <g id="xtick_2">
     <g id="line2d_2">
      <g>
       <use style="stroke:#000000;stroke-width:0.8;" x="115.389549" xlink:href="#m543cd1a888" y="302.374833"/>
      </g>
     </g>
     <g id="text_2">
      <!-- 17.5 -->
      <defs>
       <path d="M 10.796875 72.90625 
L 49.515625 72.90625 
L 49.515625 64.59375 
L 19.828125 64.59375 
L 19.828125 46.734375 
Q 21.96875 47.46875 24.109375 47.828125 
Q 26.265625 48.1875 28.421875 48.1875 
Q 40.625 48.1875 47.75 41.5 
Q 54.890625 34.8125 54.890625 23.390625 
Q 54.890625 11.625 47.5625 5.09375 
Q 40.234375 -1.421875 26.90625 -1.421875 
Q 22.3125 -1.421875 17.546875 -0.640625 
Q 12.796875 0.140625 7.71875 1.703125 
L 7.71875 11.625 
Q 12.109375 9.234375 16.796875 8.0625 
Q 21.484375 6.890625 26.703125 6.890625 
Q 35.15625 6.890625 40.078125 11.328125 
Q 45.015625 15.765625 45.015625 23.390625 
Q 45.015625 31 40.078125 35.4375 
Q 35.15625 39.890625 26.703125 39.890625 
Q 22.75 39.890625 18.8125 39.015625 
Q 14.890625 38.140625 10.796875 36.28125 
z
" id="DejaVuSans-53"/>
      </defs>
      <g transform="translate(104.256736 316.973271)scale(0.1 -0.1)">
       <use xlink:href="#DejaVuSans-49"/>
       <use x="63.623047" xlink:href="#DejaVuSans-55"/>
       <use x="127.246094" xlink:href="#DejaVuSans-46"/>
       <use x="159.033203" xlink:href="#DejaVuSans-53"/>
      </g>
     </g>
    </g>
    <g id="xtick_3">
     <g id="line2d_3">
      <g>
       <use style="stroke:#000000;stroke-width:0.8;" x="161.569494" xlink:href="#m543cd1a888" y="302.374833"/>
      </g>
     </g>
     <g id="text_3">
      <!-- 18.0 -->
      <defs>
       <path d="M 31.78125 34.625 
Q 24.75 34.625 20.71875 30.859375 
Q 16.703125 27.09375 16.703125 20.515625 
Q 16.703125 13.921875 20.71875 10.15625 
Q 24.75 6.390625 31.78125 6.390625 
Q 38.8125 6.390625 42.859375 10.171875 
Q 46.921875 13.96875 46.921875 20.515625 
Q 46.921875 27.09375 42.890625 30.859375 
Q 38.875 34.625 31.78125 34.625 
z
M 21.921875 38.8125 
Q 15.578125 40.375 12.03125 44.71875 
Q 8.5 49.078125 8.5 55.328125 
Q 8.5 64.0625 14.71875 69.140625 
Q 20.953125 74.21875 31.78125 74.21875 
Q 42.671875 74.21875 48.875 69.140625 
Q 55.078125 64.0625 55.078125 55.328125 
Q 55.078125 49.078125 51.53125 44.71875 
Q 48 40.375 41.703125 38.8125 
Q 48.828125 37.15625 52.796875 32.3125 
Q 56.78125 27.484375 56.78125 20.515625 
Q 56.78125 9.90625 50.3125 4.234375 
Q 43.84375 -1.421875 31.78125 -1.421875 
Q 19.734375 -1.421875 13.25 4.234375 
Q 6.78125 9.90625 6.78125 20.515625 
Q 6.78125 27.484375 10.78125 32.3125 
Q 14.796875 37.15625 21.921875 38.8125 
z
M 18.3125 54.390625 
Q 18.3125 48.734375 21.84375 45.5625 
Q 25.390625 42.390625 31.78125 42.390625 
Q 38.140625 42.390625 41.71875 45.5625 
Q 45.3125 48.734375 45.3125 54.390625 
Q 45.3125 60.0625 41.71875 63.234375 
Q 38.140625 66.40625 31.78125 66.40625 
Q 25.390625 66.40625 21.84375 63.234375 
Q 18.3125 60.0625 18.3125 54.390625 
z
" id="DejaVuSans-56"/>
      </defs>
      <g transform="translate(150.436682 316.973271)scale(0.1 -0.1)">
       <use xlink:href="#DejaVuSans-49"/>
       <use x="63.623047" xlink:href="#DejaVuSans-56"/>
       <use x="127.246094" xlink:href="#DejaVuSans-46"/>
       <use x="159.033203" xlink:href="#DejaVuSans-48"/>
      </g>
     </g>
    </g>
    <g id="xtick_4">
     <g id="line2d_4">
      <g>
       <use style="stroke:#000000;stroke-width:0.8;" x="207.74944" xlink:href="#m543cd1a888" y="302.374833"/>
      </g>
     </g>
     <g id="text_4">
      <!-- 18.5 -->
      <g transform="translate(196.616627 316.973271)scale(0.1 -0.1)">
       <use xlink:href="#DejaVuSans-49"/>
       <use x="63.623047" xlink:href="#DejaVuSans-56"/>
       <use x="127.246094" xlink:href="#DejaVuSans-46"/>
       <use x="159.033203" xlink:href="#DejaVuSans-53"/>
      </g>
     </g>
    </g>
    <g id="xtick_5">
     <g id="line2d_5">
      <g>
       <use style="stroke:#000000;stroke-width:0.8;" x="253.929385" xlink:href="#m543cd1a888" y="302.374833"/>
      </g>
     </g>
     <g id="text_5">
      <!-- 19.0 -->
      <defs>
       <path d="M 10.984375 1.515625 
L 10.984375 10.5 
Q 14.703125 8.734375 18.5 7.8125 
Q 22.3125 6.890625 25.984375 6.890625 
Q 35.75 6.890625 40.890625 13.453125 
Q 46.046875 20.015625 46.78125 33.40625 
Q 43.953125 29.203125 39.59375 26.953125 
Q 35.25 24.703125 29.984375 24.703125 
Q 19.046875 24.703125 12.671875 31.3125 
Q 6.296875 37.9375 6.296875 49.421875 
Q 6.296875 60.640625 12.9375 67.421875 
Q 19.578125 74.21875 30.609375 74.21875 
Q 43.265625 74.21875 49.921875 64.515625 
Q 56.59375 54.828125 56.59375 36.375 
Q 56.59375 19.140625 48.40625 8.859375 
Q 40.234375 -1.421875 26.421875 -1.421875 
Q 22.703125 -1.421875 18.890625 -0.6875 
Q 15.09375 0.046875 10.984375 1.515625 
z
M 30.609375 32.421875 
Q 37.25 32.421875 41.125 36.953125 
Q 45.015625 41.5 45.015625 49.421875 
Q 45.015625 57.28125 41.125 61.84375 
Q 37.25 66.40625 30.609375 66.40625 
Q 23.96875 66.40625 20.09375 61.84375 
Q 16.21875 57.28125 16.21875 49.421875 
Q 16.21875 41.5 20.09375 36.953125 
Q 23.96875 32.421875 30.609375 32.421875 
z
" id="DejaVuSans-57"/>
      </defs>
      <g transform="translate(242.796573 316.973271)scale(0.1 -0.1)">
       <use xlink:href="#DejaVuSans-49"/>
       <use x="63.623047" xlink:href="#DejaVuSans-57"/>
       <use x="127.246094" xlink:href="#DejaVuSans-46"/>
       <use x="159.033203" xlink:href="#DejaVuSans-48"/>
      </g>
     </g>
    </g>
    <g id="xtick_6">
     <g id="line2d_6">
      <g>
       <use style="stroke:#000000;stroke-width:0.8;" x="300.109331" xlink:href="#m543cd1a888" y="302.374833"/>
      </g>
     </g>
     <g id="text_6">
      <!-- 19.5 -->
      <g transform="translate(288.976518 316.973271)scale(0.1 -0.1)">
       <use xlink:href="#DejaVuSans-49"/>
       <use x="63.623047" xlink:href="#DejaVuSans-57"/>
       <use x="127.246094" xlink:href="#DejaVuSans-46"/>
       <use x="159.033203" xlink:href="#DejaVuSans-53"/>
      </g>
     </g>
    </g>
    <g id="xtick_7">
     <g id="line2d_7">
      <g>
       <use style="stroke:#000000;stroke-width:0.8;" x="346.289276" xlink:href="#m543cd1a888" y="302.374833"/>
      </g>
     </g>
     <g id="text_7">
      <!-- 20.0 -->
      <defs>
       <path d="M 19.1875 8.296875 
L 53.609375 8.296875 
L 53.609375 0 
L 7.328125 0 
L 7.328125 8.296875 
Q 12.9375 14.109375 22.625 23.890625 
Q 32.328125 33.6875 34.8125 36.53125 
Q 39.546875 41.84375 41.421875 45.53125 
Q 43.3125 49.21875 43.3125 52.78125 
Q 43.3125 58.59375 39.234375 62.25 
Q 35.15625 65.921875 28.609375 65.921875 
Q 23.96875 65.921875 18.8125 64.3125 
Q 13.671875 62.703125 7.8125 59.421875 
L 7.8125 69.390625 
Q 13.765625 71.78125 18.9375 73 
Q 24.125 74.21875 28.421875 74.21875 
Q 39.75 74.21875 46.484375 68.546875 
Q 53.21875 62.890625 53.21875 53.421875 
Q 53.21875 48.921875 51.53125 44.890625 
Q 49.859375 40.875 45.40625 35.40625 
Q 44.1875 33.984375 37.640625 27.21875 
Q 31.109375 20.453125 19.1875 8.296875 
z
" id="DejaVuSans-50"/>
      </defs>
      <g transform="translate(335.156464 316.973271)scale(0.1 -0.1)">
       <use xlink:href="#DejaVuSans-50"/>
       <use x="63.623047" xlink:href="#DejaVuSans-48"/>
       <use x="127.246094" xlink:href="#DejaVuSans-46"/>
       <use x="159.033203" xlink:href="#DejaVuSans-48"/>
      </g>
     </g>
    </g>
    <g id="xtick_8">
     <g id="line2d_8">
      <g>
       <use style="stroke:#000000;stroke-width:0.8;" x="392.469222" xlink:href="#m543cd1a888" y="302.374833"/>
      </g>
     </g>
     <g id="text_8">
      <!-- 20.5 -->
      <g transform="translate(381.336409 316.973271)scale(0.1 -0.1)">
       <use xlink:href="#DejaVuSans-50"/>
       <use x="63.623047" xlink:href="#DejaVuSans-48"/>
       <use x="127.246094" xlink:href="#DejaVuSans-46"/>
       <use x="159.033203" xlink:href="#DejaVuSans-53"/>
      </g>
     </g>
    </g>
    <g id="xtick_9">
     <g id="line2d_9">
      <g>
       <use style="stroke:#000000;stroke-width:0.8;" x="438.649167" xlink:href="#m543cd1a888" y="302.374833"/>
      </g>
     </g>
     <g id="text_9">
      <!-- 21.0 -->
      <g transform="translate(427.516355 316.973271)scale(0.1 -0.1)">
       <use xlink:href="#DejaVuSans-50"/>
       <use x="63.623047" xlink:href="#DejaVuSans-49"/>
       <use x="127.246094" xlink:href="#DejaVuSans-46"/>
       <use x="159.033203" xlink:href="#DejaVuSans-48"/>
      </g>
     </g>
    </g>
    <g id="text_10">
     <!-- Energy (MeV) -->
     <defs>
      <path d="M 9.8125 72.90625 
L 55.90625 72.90625 
L 55.90625 64.59375 
L 19.671875 64.59375 
L 19.671875 43.015625 
L 54.390625 43.015625 
L 54.390625 34.71875 
L 19.671875 34.71875 
L 19.671875 8.296875 
L 56.78125 8.296875 
L 56.78125 0 
L 9.8125 0 
z
" id="DejaVuSans-69"/>
      <path d="M 54.890625 33.015625 
L 54.890625 0 
L 45.90625 0 
L 45.90625 32.71875 
Q 45.90625 40.484375 42.875 44.328125 
Q 39.84375 48.1875 33.796875 48.1875 
Q 26.515625 48.1875 22.3125 43.546875 
Q 18.109375 38.921875 18.109375 30.90625 
L 18.109375 0 
L 9.078125 0 
L 9.078125 54.6875 
L 18.109375 54.6875 
L 18.109375 46.1875 
Q 21.34375 51.125 25.703125 53.5625 
Q 30.078125 56 35.796875 56 
Q 45.21875 56 50.046875 50.171875 
Q 54.890625 44.34375 54.890625 33.015625 
z
" id="DejaVuSans-110"/>
      <path d="M 56.203125 29.59375 
L 56.203125 25.203125 
L 14.890625 25.203125 
Q 15.484375 15.921875 20.484375 11.0625 
Q 25.484375 6.203125 34.421875 6.203125 
Q 39.59375 6.203125 44.453125 7.46875 
Q 49.3125 8.734375 54.109375 11.28125 
L 54.109375 2.78125 
Q 49.265625 0.734375 44.1875 -0.34375 
Q 39.109375 -1.421875 33.890625 -1.421875 
Q 20.796875 -1.421875 13.15625 6.1875 
Q 5.515625 13.8125 5.515625 26.8125 
Q 5.515625 40.234375 12.765625 48.109375 
Q 20.015625 56 32.328125 56 
Q 43.359375 56 49.78125 48.890625 
Q 56.203125 41.796875 56.203125 29.59375 
z
M 47.21875 32.234375 
Q 47.125 39.59375 43.09375 43.984375 
Q 39.0625 48.390625 32.421875 48.390625 
Q 24.90625 48.390625 20.390625 44.140625 
Q 15.875 39.890625 15.1875 32.171875 
z
" id="DejaVuSans-101"/>
      <path d="M 41.109375 46.296875 
Q 39.59375 47.171875 37.8125 47.578125 
Q 36.03125 48 33.890625 48 
Q 26.265625 48 22.1875 43.046875 
Q 18.109375 38.09375 18.109375 28.8125 
L 18.109375 0 
L 9.078125 0 
L 9.078125 54.6875 
L 18.109375 54.6875 
L 18.109375 46.1875 
Q 20.953125 51.171875 25.484375 53.578125 
Q 30.03125 56 36.53125 56 
Q 37.453125 56 38.578125 55.875 
Q 39.703125 55.765625 41.0625 55.515625 
z
" id="DejaVuSans-114"/>
      <path d="M 45.40625 27.984375 
Q 45.40625 37.75 41.375 43.109375 
Q 37.359375 48.484375 30.078125 48.484375 
Q 22.859375 48.484375 18.828125 43.109375 
Q 14.796875 37.75 14.796875 27.984375 
Q 14.796875 18.265625 18.828125 12.890625 
Q 22.859375 7.515625 30.078125 7.515625 
Q 37.359375 7.515625 41.375 12.890625 
Q 45.40625 18.265625 45.40625 27.984375 
z
M 54.390625 6.78125 
Q 54.390625 -7.171875 48.1875 -13.984375 
Q 42 -20.796875 29.203125 -20.796875 
Q 24.46875 -20.796875 20.265625 -20.09375 
Q 16.0625 -19.390625 12.109375 -17.921875 
L 12.109375 -9.1875 
Q 16.0625 -11.328125 19.921875 -12.34375 
Q 23.78125 -13.375 27.78125 -13.375 
Q 36.625 -13.375 41.015625 -8.765625 
Q 45.40625 -4.15625 45.40625 5.171875 
L 45.40625 9.625 
Q 42.625 4.78125 38.28125 2.390625 
Q 33.9375 0 27.875 0 
Q 17.828125 0 11.671875 7.65625 
Q 5.515625 15.328125 5.515625 27.984375 
Q 5.515625 40.671875 11.671875 48.328125 
Q 17.828125 56 27.875 56 
Q 33.9375 56 38.28125 53.609375 
Q 42.625 51.21875 45.40625 46.390625 
L 45.40625 54.6875 
L 54.390625 54.6875 
z
" id="DejaVuSans-103"/>
      <path d="M 32.171875 -5.078125 
Q 28.375 -14.84375 24.75 -17.8125 
Q 21.140625 -20.796875 15.09375 -20.796875 
L 7.90625 -20.796875 
L 7.90625 -13.28125 
L 13.1875 -13.28125 
Q 16.890625 -13.28125 18.9375 -11.515625 
Q 21 -9.765625 23.484375 -3.21875 
L 25.09375 0.875 
L 2.984375 54.6875 
L 12.5 54.6875 
L 29.59375 11.921875 
L 46.6875 54.6875 
L 56.203125 54.6875 
z
" id="DejaVuSans-121"/>
      <path id="DejaVuSans-32"/>
      <path d="M 31 75.875 
Q 24.46875 64.65625 21.28125 53.65625 
Q 18.109375 42.671875 18.109375 31.390625 
Q 18.109375 20.125 21.3125 9.0625 
Q 24.515625 -2 31 -13.1875 
L 23.1875 -13.1875 
Q 15.875 -1.703125 12.234375 9.375 
Q 8.59375 20.453125 8.59375 31.390625 
Q 8.59375 42.28125 12.203125 53.3125 
Q 15.828125 64.359375 23.1875 75.875 
z
" id="DejaVuSans-40"/>
      <path d="M 9.8125 72.90625 
L 24.515625 72.90625 
L 43.109375 23.296875 
L 61.8125 72.90625 
L 76.515625 72.90625 
L 76.515625 0 
L 66.890625 0 
L 66.890625 64.015625 
L 48.09375 14.015625 
L 38.1875 14.015625 
L 19.390625 64.015625 
L 19.390625 0 
L 9.8125 0 
z
" id="DejaVuSans-77"/>
      <path d="M 28.609375 0 
L 0.78125 72.90625 
L 11.078125 72.90625 
L 34.1875 11.53125 
L 57.328125 72.90625 
L 67.578125 72.90625 
L 39.796875 0 
z
" id="DejaVuSans-86"/>
      <path d="M 8.015625 75.875 
L 15.828125 75.875 
Q 23.140625 64.359375 26.78125 53.3125 
Q 30.421875 42.28125 30.421875 31.390625 
Q 30.421875 20.453125 26.78125 9.375 
Q 23.140625 -1.703125 15.828125 -13.1875 
L 8.015625 -13.1875 
Q 14.5 -2 17.703125 9.0625 
Q 20.90625 20.125 20.90625 31.390625 
Q 20.90625 42.671875 17.703125 53.65625 
Q 14.5 64.65625 8.015625 75.875 
z
" id="DejaVuSans-41"/>
     </defs>
     <g transform="translate(217.702117 330.651396)scale(0.1 -0.1)">
      <use xlink:href="#DejaVuSans-69"/>
      <use x="63.183594" xlink:href="#DejaVuSans-110"/>
      <use x="126.5625" xlink:href="#DejaVuSans-101"/>
      <use x="188.085938" xlink:href="#DejaVuSans-114"/>
      <use x="229.183594" xlink:href="#DejaVuSans-103"/>
      <use x="292.660156" xlink:href="#DejaVuSans-121"/>
      <use x="351.839844" xlink:href="#DejaVuSans-32"/>
      <use x="383.626953" xlink:href="#DejaVuSans-40"/>
      <use x="422.640625" xlink:href="#DejaVuSans-77"/>
      <use x="508.919922" xlink:href="#DejaVuSans-101"/>
      <use x="570.443359" xlink:href="#DejaVuSans-86"/>
      <use x="638.851562" xlink:href="#DejaVuSans-41"/>
     </g>
    </g>
   </g>
   <g id="matplotlib.axis_2">
    <g id="ytick_1">
     <g id="line2d_10">
      <defs>
       <path d="M 0 0 
L -3.5 0 
" id="mcdab531e52" style="stroke:#000000;stroke-width:0.8;"/>
      </defs>
      <g>
       <use style="stroke:#000000;stroke-width:0.8;" x="60.32" xlink:href="#mcdab531e52" y="289.131085"/>
      </g>
     </g>
     <g id="text_11">
      <!-- 0.000 -->
      <g transform="translate(24.691875 292.930304)scale(0.1 -0.1)">
       <use xlink:href="#DejaVuSans-48"/>
       <use x="63.623047" xlink:href="#DejaVuSans-46"/>
       <use x="95.410156" xlink:href="#DejaVuSans-48"/>
       <use x="159.033203" xlink:href="#DejaVuSans-48"/>
       <use x="222.65625" xlink:href="#DejaVuSans-48"/>
      </g>
     </g>
    </g>
    <g id="ytick_2">
     <g id="line2d_11">
      <g>
       <use style="stroke:#000000;stroke-width:0.8;" x="60.32" xlink:href="#mcdab531e52" y="254.040312"/>
      </g>
     </g>
     <g id="text_12">
      <!-- 0.001 -->
      <g transform="translate(24.691875 257.839531)scale(0.1 -0.1)">
       <use xlink:href="#DejaVuSans-48"/>
       <use x="63.623047" xlink:href="#DejaVuSans-46"/>
       <use x="95.410156" xlink:href="#DejaVuSans-48"/>
       <use x="159.033203" xlink:href="#DejaVuSans-48"/>
       <use x="222.65625" xlink:href="#DejaVuSans-49"/>
      </g>
     </g>
    </g>
    <g id="ytick_3">
     <g id="line2d_12">
      <g>
       <use style="stroke:#000000;stroke-width:0.8;" x="60.32" xlink:href="#mcdab531e52" y="218.949539"/>
      </g>
     </g>
     <g id="text_13">
      <!-- 0.002 -->
      <g transform="translate(24.691875 222.748758)scale(0.1 -0.1)">
       <use xlink:href="#DejaVuSans-48"/>
       <use x="63.623047" xlink:href="#DejaVuSans-46"/>
       <use x="95.410156" xlink:href="#DejaVuSans-48"/>
       <use x="159.033203" xlink:href="#DejaVuSans-48"/>
       <use x="222.65625" xlink:href="#DejaVuSans-50"/>
      </g>
     </g>
    </g>
    <g id="ytick_4">
     <g id="line2d_13">
      <g>
       <use style="stroke:#000000;stroke-width:0.8;" x="60.32" xlink:href="#mcdab531e52" y="183.858766"/>
      </g>
     </g>
     <g id="text_14">
      <!-- 0.003 -->
      <defs>
       <path d="M 40.578125 39.3125 
Q 47.65625 37.796875 51.625 33 
Q 55.609375 28.21875 55.609375 21.1875 
Q 55.609375 10.40625 48.1875 4.484375 
Q 40.765625 -1.421875 27.09375 -1.421875 
Q 22.515625 -1.421875 17.65625 -0.515625 
Q 12.796875 0.390625 7.625 2.203125 
L 7.625 11.71875 
Q 11.71875 9.328125 16.59375 8.109375 
Q 21.484375 6.890625 26.8125 6.890625 
Q 36.078125 6.890625 40.9375 10.546875 
Q 45.796875 14.203125 45.796875 21.1875 
Q 45.796875 27.640625 41.28125 31.265625 
Q 36.765625 34.90625 28.71875 34.90625 
L 20.21875 34.90625 
L 20.21875 43.015625 
L 29.109375 43.015625 
Q 36.375 43.015625 40.234375 45.921875 
Q 44.09375 48.828125 44.09375 54.296875 
Q 44.09375 59.90625 40.109375 62.90625 
Q 36.140625 65.921875 28.71875 65.921875 
Q 24.65625 65.921875 20.015625 65.03125 
Q 15.375 64.15625 9.8125 62.3125 
L 9.8125 71.09375 
Q 15.4375 72.65625 20.34375 73.4375 
Q 25.25 74.21875 29.59375 74.21875 
Q 40.828125 74.21875 47.359375 69.109375 
Q 53.90625 64.015625 53.90625 55.328125 
Q 53.90625 49.265625 50.4375 45.09375 
Q 46.96875 40.921875 40.578125 39.3125 
z
" id="DejaVuSans-51"/>
      </defs>
      <g transform="translate(24.691875 187.657985)scale(0.1 -0.1)">
       <use xlink:href="#DejaVuSans-48"/>
       <use x="63.623047" xlink:href="#DejaVuSans-46"/>
       <use x="95.410156" xlink:href="#DejaVuSans-48"/>
       <use x="159.033203" xlink:href="#DejaVuSans-48"/>
       <use x="222.65625" xlink:href="#DejaVuSans-51"/>
      </g>
     </g>
    </g>
    <g id="ytick_5">
     <g id="line2d_14">
      <g>
       <use style="stroke:#000000;stroke-width:0.8;" x="60.32" xlink:href="#mcdab531e52" y="148.767993"/>
      </g>
     </g>
     <g id="text_15">
      <!-- 0.004 -->
      <defs>
       <path d="M 37.796875 64.3125 
L 12.890625 25.390625 
L 37.796875 25.390625 
z
M 35.203125 72.90625 
L 47.609375 72.90625 
L 47.609375 25.390625 
L 58.015625 25.390625 
L 58.015625 17.1875 
L 47.609375 17.1875 
L 47.609375 0 
L 37.796875 0 
L 37.796875 17.1875 
L 4.890625 17.1875 
L 4.890625 26.703125 
z
" id="DejaVuSans-52"/>
      </defs>
      <g transform="translate(24.691875 152.567212)scale(0.1 -0.1)">
       <use xlink:href="#DejaVuSans-48"/>
       <use x="63.623047" xlink:href="#DejaVuSans-46"/>
       <use x="95.410156" xlink:href="#DejaVuSans-48"/>
       <use x="159.033203" xlink:href="#DejaVuSans-48"/>
       <use x="222.65625" xlink:href="#DejaVuSans-52"/>
      </g>
     </g>
    </g>
    <g id="ytick_6">
     <g id="line2d_15">
      <g>
       <use style="stroke:#000000;stroke-width:0.8;" x="60.32" xlink:href="#mcdab531e52" y="113.67722"/>
      </g>
     </g>
     <g id="text_16">
      <!-- 0.005 -->
      <g transform="translate(24.691875 117.476439)scale(0.1 -0.1)">
       <use xlink:href="#DejaVuSans-48"/>
       <use x="63.623047" xlink:href="#DejaVuSans-46"/>
       <use x="95.410156" xlink:href="#DejaVuSans-48"/>
       <use x="159.033203" xlink:href="#DejaVuSans-48"/>
       <use x="222.65625" xlink:href="#DejaVuSans-53"/>
      </g>
     </g>
    </g>
    <g id="ytick_7">
     <g id="line2d_16">
      <g>
       <use style="stroke:#000000;stroke-width:0.8;" x="60.32" xlink:href="#mcdab531e52" y="78.586447"/>
      </g>
     </g>
     <g id="text_17">
      <!-- 0.006 -->
      <defs>
       <path d="M 33.015625 40.375 
Q 26.375 40.375 22.484375 35.828125 
Q 18.609375 31.296875 18.609375 23.390625 
Q 18.609375 15.53125 22.484375 10.953125 
Q 26.375 6.390625 33.015625 6.390625 
Q 39.65625 6.390625 43.53125 10.953125 
Q 47.40625 15.53125 47.40625 23.390625 
Q 47.40625 31.296875 43.53125 35.828125 
Q 39.65625 40.375 33.015625 40.375 
z
M 52.59375 71.296875 
L 52.59375 62.3125 
Q 48.875 64.0625 45.09375 64.984375 
Q 41.3125 65.921875 37.59375 65.921875 
Q 27.828125 65.921875 22.671875 59.328125 
Q 17.53125 52.734375 16.796875 39.40625 
Q 19.671875 43.65625 24.015625 45.921875 
Q 28.375 48.1875 33.59375 48.1875 
Q 44.578125 48.1875 50.953125 41.515625 
Q 57.328125 34.859375 57.328125 23.390625 
Q 57.328125 12.15625 50.6875 5.359375 
Q 44.046875 -1.421875 33.015625 -1.421875 
Q 20.359375 -1.421875 13.671875 8.265625 
Q 6.984375 17.96875 6.984375 36.375 
Q 6.984375 53.65625 15.1875 63.9375 
Q 23.390625 74.21875 37.203125 74.21875 
Q 40.921875 74.21875 44.703125 73.484375 
Q 48.484375 72.75 52.59375 71.296875 
z
" id="DejaVuSans-54"/>
      </defs>
      <g transform="translate(24.691875 82.385666)scale(0.1 -0.1)">
       <use xlink:href="#DejaVuSans-48"/>
       <use x="63.623047" xlink:href="#DejaVuSans-46"/>
       <use x="95.410156" xlink:href="#DejaVuSans-48"/>
       <use x="159.033203" xlink:href="#DejaVuSans-48"/>
       <use x="222.65625" xlink:href="#DejaVuSans-54"/>
      </g>
     </g>
    </g>
    <g id="ytick_8">
     <g id="line2d_17">
      <g>
       <use style="stroke:#000000;stroke-width:0.8;" x="60.32" xlink:href="#mcdab531e52" y="43.495675"/>
      </g>
     </g>
     <g id="text_18">
      <!-- 0.007 -->
      <g transform="translate(24.691875 47.294893)scale(0.1 -0.1)">
       <use xlink:href="#DejaVuSans-48"/>
       <use x="63.623047" xlink:href="#DejaVuSans-46"/>
       <use x="95.410156" xlink:href="#DejaVuSans-48"/>
       <use x="159.033203" xlink:href="#DejaVuSans-48"/>
       <use x="222.65625" xlink:href="#DejaVuSans-55"/>
      </g>
     </g>
    </g>
    <g id="text_19">
     <!-- Normalized count -->
     <defs>
      <path d="M 9.8125 72.90625 
L 23.09375 72.90625 
L 55.421875 11.921875 
L 55.421875 72.90625 
L 64.984375 72.90625 
L 64.984375 0 
L 51.703125 0 
L 19.390625 60.984375 
L 19.390625 0 
L 9.8125 0 
z
" id="DejaVuSans-78"/>
      <path d="M 30.609375 48.390625 
Q 23.390625 48.390625 19.1875 42.75 
Q 14.984375 37.109375 14.984375 27.296875 
Q 14.984375 17.484375 19.15625 11.84375 
Q 23.34375 6.203125 30.609375 6.203125 
Q 37.796875 6.203125 41.984375 11.859375 
Q 46.1875 17.53125 46.1875 27.296875 
Q 46.1875 37.015625 41.984375 42.703125 
Q 37.796875 48.390625 30.609375 48.390625 
z
M 30.609375 56 
Q 42.328125 56 49.015625 48.375 
Q 55.71875 40.765625 55.71875 27.296875 
Q 55.71875 13.875 49.015625 6.21875 
Q 42.328125 -1.421875 30.609375 -1.421875 
Q 18.84375 -1.421875 12.171875 6.21875 
Q 5.515625 13.875 5.515625 27.296875 
Q 5.515625 40.765625 12.171875 48.375 
Q 18.84375 56 30.609375 56 
z
" id="DejaVuSans-111"/>
      <path d="M 52 44.1875 
Q 55.375 50.25 60.0625 53.125 
Q 64.75 56 71.09375 56 
Q 79.640625 56 84.28125 50.015625 
Q 88.921875 44.046875 88.921875 33.015625 
L 88.921875 0 
L 79.890625 0 
L 79.890625 32.71875 
Q 79.890625 40.578125 77.09375 44.375 
Q 74.3125 48.1875 68.609375 48.1875 
Q 61.625 48.1875 57.5625 43.546875 
Q 53.515625 38.921875 53.515625 30.90625 
L 53.515625 0 
L 44.484375 0 
L 44.484375 32.71875 
Q 44.484375 40.625 41.703125 44.40625 
Q 38.921875 48.1875 33.109375 48.1875 
Q 26.21875 48.1875 22.15625 43.53125 
Q 18.109375 38.875 18.109375 30.90625 
L 18.109375 0 
L 9.078125 0 
L 9.078125 54.6875 
L 18.109375 54.6875 
L 18.109375 46.1875 
Q 21.1875 51.21875 25.484375 53.609375 
Q 29.78125 56 35.6875 56 
Q 41.65625 56 45.828125 52.96875 
Q 50 49.953125 52 44.1875 
z
" id="DejaVuSans-109"/>
      <path d="M 34.28125 27.484375 
Q 23.390625 27.484375 19.1875 25 
Q 14.984375 22.515625 14.984375 16.5 
Q 14.984375 11.71875 18.140625 8.90625 
Q 21.296875 6.109375 26.703125 6.109375 
Q 34.1875 6.109375 38.703125 11.40625 
Q 43.21875 16.703125 43.21875 25.484375 
L 43.21875 27.484375 
z
M 52.203125 31.203125 
L 52.203125 0 
L 43.21875 0 
L 43.21875 8.296875 
Q 40.140625 3.328125 35.546875 0.953125 
Q 30.953125 -1.421875 24.3125 -1.421875 
Q 15.921875 -1.421875 10.953125 3.296875 
Q 6 8.015625 6 15.921875 
Q 6 25.140625 12.171875 29.828125 
Q 18.359375 34.515625 30.609375 34.515625 
L 43.21875 34.515625 
L 43.21875 35.40625 
Q 43.21875 41.609375 39.140625 45 
Q 35.0625 48.390625 27.6875 48.390625 
Q 23 48.390625 18.546875 47.265625 
Q 14.109375 46.140625 10.015625 43.890625 
L 10.015625 52.203125 
Q 14.9375 54.109375 19.578125 55.046875 
Q 24.21875 56 28.609375 56 
Q 40.484375 56 46.34375 49.84375 
Q 52.203125 43.703125 52.203125 31.203125 
z
" id="DejaVuSans-97"/>
      <path d="M 9.421875 75.984375 
L 18.40625 75.984375 
L 18.40625 0 
L 9.421875 0 
z
" id="DejaVuSans-108"/>
      <path d="M 9.421875 54.6875 
L 18.40625 54.6875 
L 18.40625 0 
L 9.421875 0 
z
M 9.421875 75.984375 
L 18.40625 75.984375 
L 18.40625 64.59375 
L 9.421875 64.59375 
z
" id="DejaVuSans-105"/>
      <path d="M 5.515625 54.6875 
L 48.1875 54.6875 
L 48.1875 46.484375 
L 14.40625 7.171875 
L 48.1875 7.171875 
L 48.1875 0 
L 4.296875 0 
L 4.296875 8.203125 
L 38.09375 47.515625 
L 5.515625 47.515625 
z
" id="DejaVuSans-122"/>
      <path d="M 45.40625 46.390625 
L 45.40625 75.984375 
L 54.390625 75.984375 
L 54.390625 0 
L 45.40625 0 
L 45.40625 8.203125 
Q 42.578125 3.328125 38.25 0.953125 
Q 33.9375 -1.421875 27.875 -1.421875 
Q 17.96875 -1.421875 11.734375 6.484375 
Q 5.515625 14.40625 5.515625 27.296875 
Q 5.515625 40.1875 11.734375 48.09375 
Q 17.96875 56 27.875 56 
Q 33.9375 56 38.25 53.625 
Q 42.578125 51.265625 45.40625 46.390625 
z
M 14.796875 27.296875 
Q 14.796875 17.390625 18.875 11.75 
Q 22.953125 6.109375 30.078125 6.109375 
Q 37.203125 6.109375 41.296875 11.75 
Q 45.40625 17.390625 45.40625 27.296875 
Q 45.40625 37.203125 41.296875 42.84375 
Q 37.203125 48.484375 30.078125 48.484375 
Q 22.953125 48.484375 18.875 42.84375 
Q 14.796875 37.203125 14.796875 27.296875 
z
" id="DejaVuSans-100"/>
      <path d="M 48.78125 52.59375 
L 48.78125 44.1875 
Q 44.96875 46.296875 41.140625 47.34375 
Q 37.3125 48.390625 33.40625 48.390625 
Q 24.65625 48.390625 19.8125 42.84375 
Q 14.984375 37.3125 14.984375 27.296875 
Q 14.984375 17.28125 19.8125 11.734375 
Q 24.65625 6.203125 33.40625 6.203125 
Q 37.3125 6.203125 41.140625 7.25 
Q 44.96875 8.296875 48.78125 10.40625 
L 48.78125 2.09375 
Q 45.015625 0.34375 40.984375 -0.53125 
Q 36.96875 -1.421875 32.421875 -1.421875 
Q 20.0625 -1.421875 12.78125 6.34375 
Q 5.515625 14.109375 5.515625 27.296875 
Q 5.515625 40.671875 12.859375 48.328125 
Q 20.21875 56 33.015625 56 
Q 37.15625 56 41.109375 55.140625 
Q 45.0625 54.296875 48.78125 52.59375 
z
" id="DejaVuSans-99"/>
      <path d="M 8.5 21.578125 
L 8.5 54.6875 
L 17.484375 54.6875 
L 17.484375 21.921875 
Q 17.484375 14.15625 20.5 10.265625 
Q 23.53125 6.390625 29.59375 6.390625 
Q 36.859375 6.390625 41.078125 11.03125 
Q 45.3125 15.671875 45.3125 23.6875 
L 45.3125 54.6875 
L 54.296875 54.6875 
L 54.296875 0 
L 45.3125 0 
L 45.3125 8.40625 
Q 42.046875 3.421875 37.71875 1 
Q 33.40625 -1.421875 27.6875 -1.421875 
Q 18.265625 -1.421875 13.375 4.4375 
Q 8.5 10.296875 8.5 21.578125 
z
M 31.109375 56 
z
" id="DejaVuSans-117"/>
      <path d="M 18.3125 70.21875 
L 18.3125 54.6875 
L 36.8125 54.6875 
L 36.8125 47.703125 
L 18.3125 47.703125 
L 18.3125 18.015625 
Q 18.3125 11.328125 20.140625 9.421875 
Q 21.96875 7.515625 27.59375 7.515625 
L 36.8125 7.515625 
L 36.8125 0 
L 27.59375 0 
Q 17.1875 0 13.234375 3.875 
Q 9.28125 7.765625 9.28125 18.015625 
L 9.28125 47.703125 
L 2.6875 47.703125 
L 2.6875 54.6875 
L 9.28125 54.6875 
L 9.28125 70.21875 
z
" id="DejaVuSans-116"/>
     </defs>
     <g transform="translate(18.612188 200.702417)rotate(-90)scale(0.1 -0.1)">
      <use xlink:href="#DejaVuSans-78"/>
      <use x="74.804688" xlink:href="#DejaVuSans-111"/>
      <use x="135.986328" xlink:href="#DejaVuSans-114"/>
      <use x="177.083984" xlink:href="#DejaVuSans-109"/>
      <use x="274.496094" xlink:href="#DejaVuSans-97"/>
      <use x="335.775391" xlink:href="#DejaVuSans-108"/>
      <use x="363.558594" xlink:href="#DejaVuSans-105"/>
      <use x="391.341797" xlink:href="#DejaVuSans-122"/>
      <use x="443.832031" xlink:href="#DejaVuSans-101"/>
      <use x="505.355469" xlink:href="#DejaVuSans-100"/>
      <use x="568.832031" xlink:href="#DejaVuSans-32"/>
      <use x="600.619141" xlink:href="#DejaVuSans-99"/>
      <use x="655.599609" xlink:href="#DejaVuSans-111"/>
      <use x="716.78125" xlink:href="#DejaVuSans-117"/>
      <use x="780.160156" xlink:href="#DejaVuSans-110"/>
      <use x="843.539062" xlink:href="#DejaVuSans-116"/>
     </g>
    </g>
   </g>
   <g id="line2d_18">
    <path clip-path="url(#p7df85c0393)" d="M 207.105212 288.699686 
L 205.842426 284.985659 
L 88.327948 286.507492 
L 247.64911 286.211898 
L 105.973765 284.175948 
L 77.708786 287.959342 
L 226.551691 288.692221 
L 78.847672 287.460859 
L 85.216216 283.002148 
L 177.405646 288.721962 
L 234.747765 287.211799 
L 228.524502 281.445232 
L 125.515458 283.327057 
L 94.837923 288.288299 
L 151.036809 287.701778 
L 189.062957 288.997679 
L 168.375396 285.911425 
L 222.047338 282.313226 
L 167.919914 283.157018 
L 194.93908 283.900237 
L 212.82523 286.967293 
L 122.935095 285.602395 
L 177.513557 286.584899 
L 234.617996 281.234551 
L 84.227372 285.672211 
L 125.126221 284.05416 
L 144.233543 281.228596 
L 101.173446 285.978198 
L 207.231377 283.7941 
L 211.054365 279.636623 
L 187.871927 284.456235 
L 136.623071 287.727232 
L 171.579035 282.049942 
L 83.572736 286.071682 
L 219.463344 287.488013 
L 208.737263 287.05989 
L 170.333202 284.772459 
L 162.042905 280.756582 
L 224.315661 284.910793 
L 175.962762 287.443596 
L 84.54459 278.949693 
L 184.946148 278.091659 
L 194.9157 287.526634 
L 248.413228 286.178481 
L 121.819603 282.360072 
L 247.168754 274.908554 
L 122.652213 285.112358 
L 87.041836 281.724475 
L 261.382738 284.570529 
L 137.667229 288.190709 
L 261.435466 285.103365 
L 231.792316 286.893664 
L 210.986501 280.247321 
L 114.58226 275.020557 
L 139.707162 274.279239 
L 110.221701 275.155063 
L 228.453271 271.398189 
L 159.150988 276.969488 
L 118.826967 287.944152 
L 138.971972 282.060972 
L 151.841242 281.791079 
L 214.376379 276.429673 
L 255.007786 274.282147 
L 155.166443 282.93815 
L 135.654444 282.670593 
L 218.562742 277.66451 
L 197.280574 272.620891 
L 101.57129 274.119061 
L 113.889125 285.315209 
L 240.173636 288.201367 
L 185.005091 274.487275 
L 111.786137 278.453248 
L 231.936674 280.390719 
L 237.484971 287.7971 
L 211.205183 268.148871 
L 251.510009 273.979866 
L 196.031915 285.047241 
L 268.626359 282.455302 
L 256.14576 267.984516 
L 120.326881 275.498309 
L 215.842741 274.242164 
L 184.839619 267.097636 
L 155.303998 279.208063 
L 117.136969 284.929576 
L 265.14769 282.64389 
L 109.266168 286.664205 
L 134.666452 287.773482 
L 188.372815 280.244904 
L 261.747019 272.464137 
L 165.934847 274.374985 
L 219.288432 283.657132 
L 129.356247 269.630812 
L 212.563966 276.529043 
L 197.882589 286.975019 
L 102.884984 274.450662 
L 264.895576 280.034501 
L 246.241788 268.039033 
L 241.76928 286.898448 
L 201.457495 268.681162 
L 104.57003 274.095648 
L 220.999558 279.46071 
L 100.97403 278.525194 
L 123.168099 270.063875 
L 204.796074 285.206897 
L 180.532147 279.791188 
L 218.957425 283.413322 
L 182.299735 282.797851 
L 240.233288 277.013774 
L 189.96751 277.106272 
L 149.136964 284.433676 
L 259.264635 276.544199 
L 117.631868 285.999545 
L 151.871772 274.848413 
L 216.20692 287.393879 
L 162.287963 269.495556 
L 232.616774 286.428918 
L 248.004918 270.447128 
L 134.961344 265.163151 
L 156.349925 270.212843 
L 211.048312 275.932766 
L 171.338287 277.46855 
L 243.282456 276.066334 
L 168.75466 268.799747 
L 129.899729 273.218743 
L 180.463952 263.855403 
L 212.583728 270.421063 
L 189.145731 287.918007 
L 260.195422 264.1114 
L 200.338131 283.095036 
L 169.732256 264.611287 
L 161.289764 288.68065 
L 258.930269 288.287014 
L 160.733303 258.884746 
L 144.153994 276.509046 
L 229.893561 287.5786 
L 272.586346 261.329176 
L 220.442259 264.640207 
L 166.968098 280.988113 
L 271.685498 272.973247 
L 125.324019 260.892792 
L 168.890098 262.633514 
L 247.38869 268.27968 
L 244.317512 254.589835 
L 186.858949 266.531314 
L 205.203399 253.434212 
L 167.890135 266.276847 
L 229.80493 282.76307 
L 262.66743 256.442797 
L 132.947846 275.958864 
L 193.659163 260.816187 
L 137.625337 280.988769 
L 263.529356 263.64667 
L 288.298416 249.035579 
L 172.532781 275.976611 
L 287.9098 250.169995 
L 246.910921 248.726602 
L 122.948457 256.70216 
L 249.300572 246.834458 
L 235.721327 281.812635 
L 200.179642 257.200433 
L 251.436492 244.570717 
L 276.414766 249.776261 
L 127.615765 263.174563 
L 136.53601 261.430203 
L 158.051338 266.416222 
L 136.487355 289.119386 
L 137.987731 282.829055 
L 222.549714 252.350692 
L 247.021431 282.481995 
L 217.867521 255.551552 
L 116.016441 242.61248 
L 163.634988 280.746188 
L 285.307545 277.061837 
L 178.303284 263.029047 
L 132.651427 266.591941 
L 190.318318 242.925191 
L 220.744945 274.386786 
L 226.553575 249.858521 
L 148.934843 258.303931 
L 275.750153 274.734819 
L 188.918035 268.469991 
L 128.042213 282.899998 
L 204.76764 269.994949 
L 233.313922 244.276173 
L 298.855417 276.478535 
L 284.67206 274.416894 
L 281.825829 264.062537 
L 286.244873 254.636504 
L 249.741979 280.63215 
L 203.59961 258.235154 
L 149.176045 239.276393 
L 243.273917 283.460756 
L 232.083851 246.501035 
L 128.506678 258.365316 
L 212.133544 252.893849 
L 191.427968 238.863257 
L 295.199615 276.23705 
L 240.97422 253.550696 
L 186.727612 261.830161 
L 185.160611 277.523328 
L 221.066394 270.25588 
L 135.522183 271.563505 
L 164.148148 246.009592 
L 226.683119 286.108493 
L 302.962509 240.751601 
L 264.63363 247.448443 
L 256.785271 268.363208 
L 255.491745 260.818868 
L 183.22606 247.962251 
L 249.805951 242.538635 
L 127.161715 240.399652 
L 297.46302 264.315738 
L 281.009361 258.098125 
L 301.809897 252.860365 
L 224.792466 280.937632 
L 204.724229 248.062842 
L 302.639286 247.257724 
L 201.943744 282.280148 
L 289.202353 250.37589 
L 206.921312 274.103364 
L 129.233687 235.477261 
L 194.741337 277.852475 
L 218.789341 281.043019 
L 253.126339 247.097182 
L 206.090145 272.303034 
L 230.046723 251.910302 
L 241.8726 278.480195 
L 240.889553 240.624749 
L 194.781842 278.899176 
L 214.753872 286.042039 
L 270.005816 243.543479 
L 166.063024 265.775496 
L 260.15065 255.243242 
L 135.304711 269.264682 
L 290.107909 267.617766 
L 240.027794 283.073615 
L 144.74374 271.657032 
L 196.099274 288.791633 
L 289.990363 276.134585 
L 232.133317 280.676236 
L 149.78129 263.108453 
L 140.14312 268.611004 
L 236.778235 250.040044 
L 218.265676 267.955779 
L 304.500621 239.093982 
L 161.331941 242.264257 
L 276.674077 244.42878 
L 278.584606 269.457251 
L 224.415052 276.330948 
L 274.966997 269.387534 
L 286.155955 279.640935 
L 247.193554 226.779576 
L 157.489952 234.212726 
L 315.654606 227.335287 
L 237.528857 279.710181 
L 245.456276 268.974912 
L 181.507224 273.58836 
L 243.74149 282.006772 
L 211.24589 228.939879 
L 208.637547 268.953293 
L 183.733824 270.173243 
L 216.791303 288.671723 
L 265.411139 262.520273 
L 214.274629 262.827669 
L 282.148755 249.015614 
L 268.174862 287.696201 
L 282.295193 272.349112 
L 141.201961 244.333 
L 193.902048 268.610619 
L 311.756975 245.785912 
L 162.33003 283.873851 
L 267.413913 286.000841 
L 145.542806 258.795229 
L 273.817045 238.901171 
L 279.484976 230.788487 
L 312.212329 259.805066 
L 278.228596 241.331657 
L 195.735144 229.440918 
L 196.069509 273.318797 
L 243.729258 224.729611 
L 242.304117 275.688369 
L 289.482432 260.274869 
L 307.833955 277.81339 
L 177.279118 220.657441 
L 289.905594 254.150136 
L 158.476639 253.142088 
L 291.295206 282.408641 
L 185.984547 287.309994 
L 238.714318 244.923604 
L 231.170815 231.105145 
L 298.323687 284.600847 
L 183.341911 255.475972 
L 176.184132 231.072645 
L 324.204116 279.634248 
L 264.002243 253.784109 
L 272.899742 215.765751 
L 155.889518 261.850537 
L 202.139742 261.408965 
L 168.112617 243.825012 
L 288.442704 274.980085 
L 241.2203 242.294028 
L 156.85358 217.553502 
L 269.731965 231.65918 
L 326.43508 282.110309 
L 263.161865 227.742858 
L 255.311079 213.40921 
L 320.975289 223.16923 
L 199.572691 271.825871 
L 320.179053 285.118011 
L 246.928566 271.474081 
L 206.098618 232.686263 
L 210.43242 245.157329 
L 240.532316 248.237088 
L 204.839179 288.442236 
L 150.820619 282.831102 
L 264.314211 269.401312 
L 214.904292 287.065733 
L 186.6172 228.349759 
L 251.138656 276.836585 
L 243.605349 255.340313 
L 286.189224 221.882014 
L 166.321823 223.909921 
L 158.156631 199.838023 
L 285.748457 216.97819 
L 163.282486 276.640224 
L 332.066039 275.957794 
L 300.088505 229.31956 
L 194.132959 284.151164 
L 257.1801 213.415751 
L 290.595105 218.266074 
L 328.145735 251.800755 
L 330.835494 244.344477 
L 254.794658 204.524497 
L 242.973913 199.761302 
L 204.054451 208.503586 
L 209.874695 249.192417 
L 222.385713 214.500908 
L 320.540955 207.281258 
L 283.77444 245.57259 
L 271.443055 246.767632 
L 235.75375 201.015855 
L 320.875512 232.735317 
L 167.974435 278.65469 
L 276.378793 193.78239 
L 177.671984 286.287022 
L 239.968505 190.516457 
L 295.396824 254.156951 
L 158.794878 279.539609 
L 185.105452 278.39768 
L 318.979112 196.635479 
L 237.764588 215.298088 
L 205.128729 172.699524 
L 239.816923 266.384257 
L 235.013188 208.062382 
L 161.795522 189.291196 
L 219.03626 208.781224 
L 278.365439 236.341175 
L 240.326422 262.180759 
L 234.070525 152.291815 
L 283.645423 276.134697 
L 199.195418 223.694973 
L 179.114456 275.337388 
L 272.950463 258.969434 
L 230.20317 235.776386 
L 170.172746 221.708763 
L 206.400154 279.376157 
L 242.239547 191.12187 
L 204.541026 202.496691 
L 317.863741 176.94239 
L 311.374607 162.533292 
L 326.944828 136.661896 
L 260.478704 203.609669 
L 235.166185 252.304915 
L 185.763177 152.869735 
L 197.598084 132.20696 
L 255.420714 151.840951 
L 304.360894 173.638967 
L 227.17298 270.780033 
L 312.124531 210.215232 
L 213.572624 187.062416 
L 213.374718 229.663072 
L 273.436008 160.816209 
L 203.629389 250.511467 
L 267.444386 203.587007 
L 289.645459 127.74092 
L 332.899854 144.110204 
L 332.111192 199.089046 
L 260.195439 166.557883 
L 233.51556 239.714013 
L 343.932277 166.85583 
L 252.772684 220.613084 
L 338.706439 187.445129 
L 286.480002 263.286047 
L 168.86723 249.638102 
L 262.202713 261.705676 
L 250.406655 235.207686 
L 200.126906 190.8398 
L 182.181968 279.598908 
L 262.234607 259.956974 
L 217.420391 132.484364 
L 353.081156 288.471767 
L 176.518449 223.955453 
L 210.16281 181.991768 
L 201.460732 98.779092 
L 230.61397 131.605033 
L 321.205134 258.267434 
L 269.734452 230.547176 
L 304.858008 281.510998 
L 297.984274 126.074022 
L 189.304835 184.951426 
L 278.517277 187.864934 
L 233.890411 157.549638 
L 332.425588 278.317528 
L 212.257853 279.308293 
L 247.582993 219.226633 
L 277.658646 261.554965 
L 292.381379 241.429954 
L 247.61814 255.109225 
L 259.130342 271.343803 
L 322.715897 208.85927 
L 220.206228 133.508739 
L 339.024474 208.085241 
L 247.549251 78.683831 
L 316.040774 90.070158 
L 334.110998 173.389301 
L 216.621693 161.260567 
L 333.688145 258.922938 
L 288.183158 218.807925 
L 189.535988 57.902024 
L 303.065822 157.813805 
L 308.727209 284.458117 
L 342.600267 237.457851 
L 257.78042 254.765689 
L 323.030102 268.739518 
L 182.778182 180.680967 
L 316.736216 182.717877 
L 352.324064 204.945319 
L 179.405064 63.167735 
L 222.458189 84.144348 
L 225.758798 209.845186 
L 185.696026 50.097292 
L 330.418473 230.695066 
L 295.776388 187.12111 
L 357.671484 100.731748 
L 313.580155 81.241136 
L 367.318999 188.840205 
L 213.075432 64.191355 
L 189.52499 224.388823 
L 260.928524 238.293459 
L 218.591731 213.62124 
L 197.295273 284.961701 
L 358.586513 108.726167 
L 258.699227 139.18597 
L 270.607987 203.186922 
L 312.427502 66.001179 
L 334.800042 170.464251 
L 208.226147 216.33504 
L 200.05036 81.243471 
L 263.728752 30.9553 
L 200.895637 260.639802 
L 187.498321 240.154121 
L 361.013057 240.370207 
L 348.621306 120.094798 
L 293.462905 59.817212 
L 313.490101 97.150915 
L 262.91722 218.44401 
L 222.39373 288.833377 
L 291.406949 39.746952 
L 258.410593 195.182649 
L 197.306781 232.194829 
L 190.670489 131.516817 
L 317.270425 76.503616 
L 214.763389 62.335109 
L 251.907483 222.088745 
L 238.068128 141.691008 
L 342.608981 266.174632 
L 210.018699 266.068658 
L 375.225998 145.900623 
L 205.904414 252.123548 
L 256.126352 277.412094 
L 269.573131 173.422074 
L 264.236703 181.377629 
L 250.800616 248.008329 
L 282.072052 129.47242 
L 286.29286 250.353213 
L 333.684478 196.578494 
L 362.543543 24.010447 
L 357.18164 256.746671 
L 260.856497 257.942651 
L 226.698332 231.242727 
L 251.530875 114.784709 
L 272.990715 24.200432 
L 248.990921 138.913464 
L 361.049529 150.034113 
L 301.831357 99.049083 
L 267.808467 25.42175 
L 313.433598 213.971112 
L 257.356145 27.681504 
L 225.016311 30.775672 
L 317.639118 237.758266 
L 235.85633 265.09292 
L 317.415202 196.361912 
L 273.792272 121.196222 
L 238.980512 226.10188 
L 342.568681 125.942862 
L 202.341986 61.050245 
L 339.698103 79.68992 
L 358.59814 278.530029 
L 235.369876 93.29824 
L 200.000441 138.585548 
L 216.259962 219.807936 
L 331.745597 285.503748 
L 299.448338 217.098037 
L 289.798191 212.089987 
L 339.705217 177.263161 
L 340.766791 143.238986 
L 258.951519 260.696001 
L 333.258279 148.69368 
L 349.918628 270.801005 
L 386.687186 287.052187 
L 211.067914 133.00576 
L 286.305828 266.834282 
L 234.018656 225.824539 
L 265.075742 121.912521 
L 332.870225 137.470549 
L 362.93383 274.418665 
L 277.608703 184.270837 
L 288.271923 281.794873 
L 252.199014 246.957447 
L 207.373424 124.883191 
L 224.38882 234.587155 
L 377.960359 168.192323 
L 258.748658 238.372399 
L 297.523505 112.795642 
L 354.148374 161.649959 
L 287.004261 219.889965 
L 361.565357 250.282691 
L 260.456456 223.723313 
L 376.753721 163.627318 
L 232.886574 167.344662 
L 343.882929 260.93833 
L 213.52811 280.808849 
L 334.300467 173.723529 
L 229.028424 221.923624 
L 206.457849 254.641594 
L 276.677851 167.369558 
L 357.037051 221.34483 
L 241.772268 162.180403 
L 294.739599 212.574279 
L 381.835498 284.539933 
L 252.935751 288.598587 
L 274.547637 209.889535 
L 329.586901 258.28823 
L 347.870733 256.401952 
L 244.175605 264.977283 
L 215.344647 160.237124 
L 366.99593 169.908394 
L 211.398091 257.32155 
L 229.48251 148.847383 
L 353.468305 184.967326 
L 237.096388 281.521251 
L 209.466109 175.050528 
L 385.099795 169.431678 
L 267.595476 152.355232 
L 218.534452 254.461982 
L 301.496672 211.921529 
L 232.415382 199.059722 
L 335.296983 194.142436 
L 263.518108 243.22999 
L 217.862618 257.190195 
L 333.436226 166.271853 
L 261.531366 229.487247 
L 305.416312 194.113052 
L 295.287035 181.551693 
L 290.353758 254.784925 
L 306.497214 281.635299 
L 399.100281 255.650598 
L 230.863681 254.907351 
L 336.084667 268.457293 
L 271.616892 203.1197 
L 225.831517 243.011241 
L 310.390939 241.294279 
L 399.840854 185.602735 
L 339.212354 205.107159 
L 239.092303 280.343812 
L 368.635889 273.594479 
L 383.385619 245.560329 
L 369.384938 183.613207 
L 323.507458 275.124846 
L 316.459854 195.1276 
L 254.485875 225.372277 
L 245.95901 263.884884 
L 245.757794 253.938989 
L 393.477332 233.942428 
L 405.630531 276.551274 
L 370.054062 220.933785 
L 279.984872 261.228482 
L 399.53783 273.020745 
L 310.625986 285.886523 
L 274.997922 251.538357 
L 338.628937 259.726228 
L 390.327144 196.061134 
L 298.49913 205.079504 
L 314.550967 217.776804 
L 311.168575 193.721297 
L 265.126431 249.241464 
L 308.054609 183.363094 
L 291.812774 184.382638 
L 347.014571 218.367025 
L 310.228412 214.413711 
L 368.389864 251.703669 
L 403.924098 220.615978 
L 291.106553 249.288199 
L 403.978729 275.47627 
L 241.607493 257.195975 
L 316.448631 216.095294 
L 341.304574 256.626964 
L 327.492206 230.302945 
L 247.063727 270.368596 
L 368.205783 229.51437 
L 243.57723 288.033843 
L 296.954665 269.064256 
L 300.282367 287.382548 
L 390.949852 247.098355 
L 359.281331 272.731854 
L 281.046578 216.20241 
L 355.435732 198.558397 
L 319.912413 218.102282 
L 347.69625 212.876225 
L 395.678186 213.235331 
L 255.759287 223.324071 
L 357.044234 268.398803 
L 284.640552 198.821058 
L 325.266319 245.289011 
L 330.83858 207.386096 
L 344.533437 259.366167 
L 400.947927 207.410167 
L 418.844216 247.886379 
L 269.116105 285.301508 
L 319.272336 281.449199 
L 231.71542 262.852399 
L 311.406672 287.444472 
L 260.733428 259.231691 
L 371.447894 243.356003 
L 317.613033 282.451704 
L 310.228247 285.522555 
L 282.290856 245.716665 
L 377.175043 212.613964 
L 251.944508 250.726002 
L 400.416113 277.532287 
L 303.301672 243.930238 
L 328.61457 216.504946 
L 242.8351 236.27408 
L 237.568389 251.648662 
L 407.787395 252.702599 
L 290.454294 249.645635 
L 399.554068 230.943513 
L 296.353025 254.034644 
L 238.046622 235.114195 
L 352.199468 271.84177 
L 243.266641 231.259371 
L 273.681759 251.591705 
L 329.429771 228.829321 
L 310.448335 232.468317 
L 392.086844 278.901561 
L 360.759958 241.080086 
L 363.608959 282.505532 
L 326.45927 243.53502 
L 314.829452 245.214847 
L 256.577307 274.26029 
L 247.907437 269.594447 
L 276.710711 249.638972 
L 305.939411 273.832547 
L 235.839993 255.786724 
L 242.397759 248.705994 
L 369.029364 284.274776 
L 267.915023 259.213525 
L 340.788668 241.374123 
L 411.460835 260.979819 
L 239.918286 275.255639 
L 318.676509 285.522343 
L 273.448781 279.904065 
L 355.202302 279.073472 
L 288.96466 258.263267 
L 310.468771 246.711862 
L 263.768266 259.857898 
L 381.807511 262.062059 
L 244.543779 259.150716 
L 300.08329 286.047008 
L 405.876588 280.899567 
L 305.785948 255.311123 
L 274.779131 283.289909 
L 417.601188 271.903829 
L 318.164678 259.645556 
L 404.567379 264.598991 
L 296.372477 268.556669 
L 340.55249 285.03889 
L 283.16469 273.755032 
L 293.260407 284.838113 
L 419.069784 284.141269 
L 418.317785 281.66097 
L 398.125029 266.103617 
L 262.911355 261.97648 
L 248.069639 275.561581 
L 265.000717 284.014082 
L 383.324718 263.92337 
L 252.24482 278.919209 
L 341.09779 285.613916 
L 299.917179 273.126435 
L 272.533129 282.447473 
L 352.186311 283.035248 
L 304.606772 268.296244 
L 301.002733 268.621702 
L 304.083293 288.291728 
L 251.458121 283.638237 
L 336.243055 264.227788 
L 339.471885 274.989071 
L 300.167497 269.052055 
L 399.40765 265.161522 
L 397.855511 274.143025 
L 425.48451 277.00399 
L 266.666548 263.453311 
L 298.757658 285.708585 
L 295.079201 265.051375 
L 248.62283 285.735706 
L 250.227991 283.50316 
L 258.529584 277.216459 
L 258.529584 277.216459 
" style="fill:none;stroke:#0000ff;stroke-linecap:square;stroke-width:1.5;"/>
   </g>
   <g id="patch_3">
    <path d="M 60.32 302.374833 
L 60.32 10.755 
" style="fill:none;stroke:#000000;stroke-linecap:square;stroke-linejoin:miter;stroke-width:0.8;"/>
   </g>
   <g id="patch_4">
    <path d="M 442.873297 302.374833 
L 442.873297 10.755 
" style="fill:none;stroke:#000000;stroke-linecap:square;stroke-linejoin:miter;stroke-width:0.8;"/>
   </g>
   <g id="patch_5">
    <path d="M 60.32 302.374833 
L 442.873297 302.374833 
" style="fill:none;stroke:#000000;stroke-linecap:square;stroke-linejoin:miter;stroke-width:0.8;"/>
   </g>
   <g id="patch_6">
    <path d="M 60.32 10.755 
L 442.873297 10.755 
" style="fill:none;stroke:#000000;stroke-linecap:square;stroke-linejoin:miter;stroke-width:0.8;"/>
   </g>
   <g id="legend_1">
    <g id="patch_7">
     <path d="M 366.348297 33.433125 
L 435.873297 33.433125 
Q 437.873297 33.433125 437.873297 31.433125 
L 437.873297 17.755 
Q 437.873297 15.755 435.873297 15.755 
L 366.348297 15.755 
Q 364.348297 15.755 364.348297 17.755 
L 364.348297 31.433125 
Q 364.348297 33.433125 366.348297 33.433125 
z
" style="fill:#ffffff;opacity:0.8;stroke:#cccccc;stroke-linejoin:miter;"/>
    </g>
    <g id="line2d_19">
     <path d="M 368.348297 23.853438 
L 388.348297 23.853438 
" style="fill:none;stroke:#0000ff;stroke-linecap:square;stroke-width:1.5;"/>
    </g>
    <g id="line2d_20"/>
    <g id="text_20">
     <!-- 20 MeV -->
     <g transform="translate(396.348297 27.353438)scale(0.1 -0.1)">
      <use xlink:href="#DejaVuSans-50"/>
      <use x="63.623047" xlink:href="#DejaVuSans-48"/>
      <use x="127.246094" xlink:href="#DejaVuSans-32"/>
      <use x="159.033203" xlink:href="#DejaVuSans-77"/>
      <use x="245.3125" xlink:href="#DejaVuSans-101"/>
      <use x="306.835938" xlink:href="#DejaVuSans-86"/>
     </g>
    </g>
   </g>
  </g>
 </g>
 <defs>
  <clipPath id="p7df85c0393">
   <rect height="291.619833" width="382.553297" x="60.32" y="10.755"/>
  </clipPath>
 </defs>
</svg>
